LibreFranklin-Thin.ufo
<glyph name="exclam" format="1">
  <advance width="232"/>
  <unicode hex="0021"/>
  <outline>
    <contour>
      <point x="143" y="736" type="curve" smooth="yes"/>
      <point x="132" y="156" type="line" smooth="yes"/>
      <point x="132" y="150"/>
      <point x="129" y="148"/>
      <point x="122" y="148" type="curve" smooth="yes"/>
      <point x="108" y="148" type="line" smooth="yes"/>
      <point x="102" y="148"/>
      <point x="100" y="150"/>
      <point x="100" y="155" type="curve" smooth="yes"/>
      <point x="90" y="735" type="line" smooth="yes"/>
      <point x="90" y="740"/>
      <point x="92" y="742"/>
      <point x="95" y="742" type="curve" smooth="yes"/>
      <point x="137" y="742" type="line" smooth="yes"/>
      <point x="141" y="742"/>
      <point x="143" y="739"/>
    </contour>
    <contour>
      <point x="147" y="71" type="curve" smooth="yes"/>
      <point x="147" y="11" type="line" smooth="yes"/>
      <point x="147" y="3"/>
      <point x="144" y="0"/>
      <point x="134" y="0" type="curve" smooth="yes"/>
      <point x="95" y="0" type="line" smooth="yes"/>
      <point x="87" y="0"/>
      <point x="85" y="3"/>
      <point x="85" y="10" type="curve" smooth="yes"/>
      <point x="85" y="70" type="line" smooth="yes"/>
      <point x="85" y="77"/>
      <point x="88" y="79"/>
      <point x="92" y="79" type="curve" smooth="yes"/>
      <point x="140" y="79" type="line" smooth="yes"/>
      <point x="145" y="79"/>
      <point x="147" y="77"/>
    </contour>
  </outline>
</glyph>
<glyph name="quotedbl" format="1">
  <advance width="371"/>
  <unicode hex="0022"/>
  <outline>
    <contour>
      <point x="155" y="736" type="curve" smooth="yes"/>
      <point x="135" y="559" type="line" smooth="yes"/>
      <point x="134" y="553"/>
      <point x="132" y="550"/>
      <point x="125" y="550" type="curve" smooth="yes"/>
      <point x="107" y="550" type="line" smooth="yes"/>
      <point x="101" y="550"/>
      <point x="100" y="552"/>
      <point x="99" y="557" type="curve" smooth="yes"/>
      <point x="80" y="736" type="line" smooth="yes"/>
      <point x="80" y="740"/>
      <point x="83" y="742"/>
      <point x="86" y="742" type="curve" smooth="yes"/>
      <point x="149" y="742" type="line" smooth="yes"/>
      <point x="153" y="742"/>
      <point x="155" y="740"/>
    </contour>
    <contour>
      <point x="291" y="736" type="curve" smooth="yes"/>
      <point x="271" y="559" type="line" smooth="yes"/>
      <point x="270" y="553"/>
      <point x="268" y="550"/>
      <point x="261" y="550" type="curve" smooth="yes"/>
      <point x="243" y="550" type="line" smooth="yes"/>
      <point x="237" y="550"/>
      <point x="236" y="552"/>
      <point x="235" y="557" type="curve" smooth="yes"/>
      <point x="216" y="736" type="line" smooth="yes"/>
      <point x="216" y="740"/>
      <point x="219" y="742"/>
      <point x="222" y="742" type="curve" smooth="yes"/>
      <point x="285" y="742" type="line" smooth="yes"/>
      <point x="289" y="742"/>
      <point x="291" y="740"/>
    </contour>
  </outline>
</glyph>
<glyph name="numbersign" format="1">
  <advance width="603"/>
  <unicode hex="0023"/>
  <outline>
    <contour>
      <point x="551" y="498" type="line" smooth="yes"/>
      <point x="555" y="498"/>
      <point x="558" y="496"/>
      <point x="558" y="492" type="curve" smooth="yes"/>
      <point x="558" y="468" type="line" smooth="yes"/>
      <point x="558" y="462"/>
      <point x="555" y="460"/>
      <point x="548" y="460" type="curve" smooth="yes"/>
      <point x="442" y="460" type="line"/>
      <point x="416" y="288" type="line"/>
      <point x="518" y="288" type="line" smooth="yes"/>
      <point x="522" y="288"/>
      <point x="525" y="286"/>
      <point x="525" y="282" type="curve" smooth="yes"/>
      <point x="525" y="258" type="line" smooth="yes"/>
      <point x="525" y="252"/>
      <point x="522" y="250"/>
      <point x="515" y="250" type="curve" smooth="yes"/>
      <point x="410" y="250" type="line"/>
      <point x="372" y="7" type="line" smooth="yes"/>
      <point x="371" y="1"/>
      <point x="368" y="-1"/>
      <point x="364" y="0" type="curve" smooth="yes"/>
      <point x="340" y="4" type="line" smooth="yes"/>
      <point x="335" y="5"/>
      <point x="334" y="7"/>
      <point x="334" y="10" type="curve" smooth="yes"/>
      <point x="371" y="250" type="line"/>
      <point x="207" y="250" type="line"/>
      <point x="169" y="7" type="line" smooth="yes"/>
      <point x="168" y="1"/>
      <point x="165" y="-1"/>
      <point x="161" y="0" type="curve" smooth="yes"/>
      <point x="137" y="4" type="line" smooth="yes"/>
      <point x="132" y="5"/>
      <point x="131" y="7"/>
      <point x="131" y="10" type="curve" smooth="yes"/>
      <point x="168" y="250" type="line"/>
      <point x="53" y="250" type="line" smooth="yes"/>
      <point x="47" y="250"/>
      <point x="45" y="252"/>
      <point x="45" y="257" type="curve" smooth="yes"/>
      <point x="45" y="281" type="line" smooth="yes"/>
      <point x="45" y="286"/>
      <point x="47" y="288"/>
      <point x="50" y="288" type="curve" smooth="yes"/>
      <point x="174" y="288" type="line"/>
      <point x="200" y="460" type="line"/>
      <point x="86" y="460" type="line" smooth="yes"/>
      <point x="80" y="460"/>
      <point x="78" y="462"/>
      <point x="78" y="467" type="curve" smooth="yes"/>
      <point x="78" y="491" type="line" smooth="yes"/>
      <point x="78" y="496"/>
      <point x="80" y="498"/>
      <point x="83" y="498" type="curve" smooth="yes"/>
      <point x="206" y="498" type="line"/>
      <point x="243" y="736" type="line" smooth="yes"/>
      <point x="244" y="740"/>
      <point x="247" y="743"/>
      <point x="250" y="742" type="curve" smooth="yes"/>
      <point x="274" y="738" type="line" smooth="yes"/>
      <point x="280" y="737"/>
      <point x="282" y="734"/>
      <point x="281" y="727" type="curve" smooth="yes"/>
      <point x="245" y="498" type="line"/>
      <point x="409" y="498" type="line"/>
      <point x="446" y="736" type="line" smooth="yes"/>
      <point x="447" y="740"/>
      <point x="450" y="743"/>
      <point x="453" y="742" type="curve" smooth="yes"/>
      <point x="477" y="738" type="line" smooth="yes"/>
      <point x="483" y="737"/>
      <point x="485" y="734"/>
      <point x="484" y="727" type="curve" smooth="yes"/>
      <point x="448" y="498" type="line"/>
    </contour>
    <contour>
      <point x="377" y="288" type="line"/>
      <point x="403" y="460" type="line"/>
      <point x="239" y="460" type="line"/>
      <point x="213" y="288" type="line"/>
    </contour>
  </outline>
</glyph>
<glyph name="dollar" format="1">
  <advance width="574"/>
  <unicode hex="0024"/>
  <outline>
    <contour>
      <point x="534" y="165" type="curve" smooth="yes"/>
      <point x="534" y="65"/>
      <point x="451" y="-10"/>
      <point x="331" y="-10" type="curve" smooth="yes"/>
      <point x="325" y="-10"/>
      <point x="323" y="-12"/>
      <point x="323" y="-16" type="curve" smooth="yes"/>
      <point x="323" y="-85" type="line" smooth="yes"/>
      <point x="323" y="-91"/>
      <point x="321" y="-93"/>
      <point x="316" y="-93" type="curve" smooth="yes"/>
      <point x="292" y="-93" type="line" smooth="yes"/>
      <point x="287" y="-93"/>
      <point x="285" y="-91"/>
      <point x="285" y="-88" type="curve" smooth="yes"/>
      <point x="285" y="-16" type="line" smooth="yes"/>
      <point x="285" y="-11"/>
      <point x="284" y="-10"/>
      <point x="280" y="-10" type="curve" smooth="yes"/>
      <point x="161" y="-10"/>
      <point x="93" y="32"/>
      <point x="42" y="113" type="curve" smooth="yes"/>
      <point x="38" y="120"/>
      <point x="39" y="125"/>
      <point x="44" y="128" type="curve" smooth="yes"/>
      <point x="60" y="138" type="line" smooth="yes"/>
      <point x="65" y="141"/>
      <point x="73" y="141"/>
      <point x="76" y="137" type="curve" smooth="yes"/>
      <point x="127" y="69"/>
      <point x="180" y="33"/>
      <point x="278" y="33" type="curve" smooth="yes"/>
      <point x="283" y="33"/>
      <point x="285" y="35"/>
      <point x="285" y="40" type="curve" smooth="yes"/>
      <point x="285" y="331" type="line" smooth="yes"/>
      <point x="285" y="343"/>
      <point x="276" y="351"/>
      <point x="262" y="358" type="curve" smooth="yes"/>
      <point x="117" y="424"/>
      <point x="67" y="464"/>
      <point x="67" y="559" type="curve" smooth="yes"/>
      <point x="67" y="668"/>
      <point x="155" y="743"/>
      <point x="277" y="752" type="curve" smooth="yes"/>
      <point x="281" y="752"/>
      <point x="284" y="755"/>
      <point x="284" y="759" type="curve" smooth="yes"/>
      <point x="284" y="815" type="line" smooth="yes"/>
      <point x="284" y="819"/>
      <point x="286" y="822"/>
      <point x="290" y="822" type="curve" smooth="yes"/>
      <point x="314" y="822" type="line" smooth="yes"/>
      <point x="320" y="822"/>
      <point x="322" y="819"/>
      <point x="322" y="812" type="curve" smooth="yes"/>
      <point x="322" y="758" type="line" smooth="yes"/>
      <point x="322" y="754"/>
      <point x="324" y="751"/>
      <point x="329" y="751" type="curve" smooth="yes"/>
      <point x="411" y="744"/>
      <point x="469" y="710"/>
      <point x="520" y="656" type="curve" smooth="yes"/>
      <point x="524" y="652"/>
      <point x="526" y="647"/>
      <point x="520" y="642" type="curve" smooth="yes"/>
      <point x="497" y="625" type="line" smooth="yes"/>
      <point x="492" y="621"/>
      <point x="490" y="622"/>
      <point x="484" y="630" type="curve" smooth="yes"/>
      <point x="452" y="670"/>
      <point x="395" y="699"/>
      <point x="331" y="707" type="curve" smooth="yes"/>
      <point x="324" y="708"/>
      <point x="322" y="705"/>
      <point x="322" y="699" type="curve" smooth="yes"/>
      <point x="322" y="397" type="line" smooth="yes"/>
      <point x="322" y="388"/>
      <point x="324" y="386"/>
      <point x="333" y="382" type="curve" smooth="yes"/>
      <point x="360" y="370" type="line" smooth="yes"/>
      <point x="474" y="322"/>
      <point x="534" y="260"/>
    </contour>
    <contour>
      <point x="284" y="419" type="curve" smooth="yes"/>
      <point x="284" y="701" type="line" smooth="yes"/>
      <point x="284" y="706"/>
      <point x="280" y="709"/>
      <point x="274" y="708" type="curve" smooth="yes"/>
      <point x="180" y="700"/>
      <point x="116" y="640"/>
      <point x="116" y="558" type="curve" smooth="yes"/>
      <point x="116" y="501"/>
      <point x="149" y="460"/>
      <point x="264" y="408" type="curve" smooth="yes"/>
      <point x="275" y="403"/>
      <point x="284" y="406"/>
    </contour>
    <contour>
      <point x="323" y="39" type="line" smooth="yes"/>
      <point x="323" y="35"/>
      <point x="325" y="33"/>
      <point x="330" y="33" type="curve" smooth="yes"/>
      <point x="424" y="33"/>
      <point x="485" y="91"/>
      <point x="485" y="169" type="curve" smooth="yes"/>
      <point x="485" y="241"/>
      <point x="443" y="283"/>
      <point x="340" y="327" type="curve" smooth="yes"/>
      <point x="330" y="331"/>
      <point x="323" y="330"/>
      <point x="323" y="319" type="curve" smooth="yes"/>
    </contour>
  </outline>
</glyph>
<glyph name="percent" format="1">
  <advance width="898"/>
  <unicode hex="0025"/>
  <outline>
    <contour>
      <point x="229" y="753" type="curve" smooth="yes"/>
      <point x="324" y="753"/>
      <point x="391" y="680"/>
      <point x="391" y="541" type="curve" smooth="yes"/>
      <point x="391" y="400"/>
      <point x="324" y="327"/>
      <point x="229" y="327" type="curve" smooth="yes"/>
      <point x="133" y="327"/>
      <point x="65" y="400"/>
      <point x="65" y="541" type="curve" smooth="yes"/>
      <point x="65" y="680"/>
      <point x="133" y="753"/>
    </contour>
    <contour>
      <point x="717" y="742" type="curve" smooth="yes"/>
      <point x="228" y="4" type="line" smooth="yes"/>
      <point x="224" y="-2"/>
      <point x="221" y="-4"/>
      <point x="213" y="-4" type="curve" smooth="yes"/>
      <point x="197" y="-4" type="line" smooth="yes"/>
      <point x="188" y="-4"/>
      <point x="187" y="2"/>
      <point x="192" y="9" type="curve" smooth="yes"/>
      <point x="681" y="745" type="line" smooth="yes"/>
      <point x="684" y="750"/>
      <point x="688" y="750"/>
      <point x="693" y="750" type="curve" smooth="yes"/>
      <point x="713" y="750" type="line" smooth="yes"/>
      <point x="718" y="750"/>
      <point x="721" y="748"/>
    </contour>
    <contour>
      <point x="228" y="357" type="curve" smooth="yes"/>
      <point x="306" y="357"/>
      <point x="356" y="434"/>
      <point x="356" y="540" type="curve" smooth="yes"/>
      <point x="356" y="646"/>
      <point x="306" y="723"/>
      <point x="228" y="723" type="curve" smooth="yes"/>
      <point x="150" y="723"/>
      <point x="100" y="645"/>
      <point x="100" y="540" type="curve" smooth="yes"/>
      <point x="100" y="435"/>
      <point x="150" y="357"/>
    </contour>
    <contour>
      <point x="671" y="416" type="curve" smooth="yes"/>
      <point x="766" y="416"/>
      <point x="833" y="343"/>
      <point x="833" y="204" type="curve" smooth="yes"/>
      <point x="833" y="63"/>
      <point x="766" y="-10"/>
      <point x="671" y="-10" type="curve" smooth="yes"/>
      <point x="575" y="-10"/>
      <point x="507" y="63"/>
      <point x="507" y="204" type="curve" smooth="yes"/>
      <point x="507" y="343"/>
      <point x="575" y="416"/>
    </contour>
    <contour>
      <point x="670" y="20" type="curve" smooth="yes"/>
      <point x="745" y="20"/>
      <point x="798" y="100"/>
      <point x="798" y="203" type="curve" smooth="yes"/>
      <point x="798" y="306"/>
      <point x="745" y="386"/>
      <point x="670" y="386" type="curve" smooth="yes"/>
      <point x="595" y="386"/>
      <point x="542" y="305"/>
      <point x="542" y="203" type="curve" smooth="yes"/>
      <point x="542" y="101"/>
      <point x="595" y="20"/>
    </contour>
  </outline>
</glyph>
<glyph name="ampersand" format="1">
  <advance width="740"/>
  <unicode hex="0026"/>
  <outline>
    <contour>
      <point x="314" y="753" type="curve" smooth="yes"/>
      <point x="406" y="753"/>
      <point x="480" y="700"/>
      <point x="480" y="608" type="curve" smooth="yes"/>
      <point x="480" y="532"/>
      <point x="429" y="461"/>
      <point x="288" y="400" type="curve" smooth="yes"/>
      <point x="278" y="396"/>
      <point x="278" y="393"/>
      <point x="285" y="384" type="curve" smooth="yes"/>
      <point x="473" y="160" type="line" smooth="yes"/>
      <point x="479" y="153"/>
      <point x="479" y="153"/>
      <point x="488" y="161" type="curve" smooth="yes"/>
      <point x="545" y="213"/>
      <point x="626" y="332"/>
      <point x="643" y="382" type="curve" smooth="yes"/>
      <point x="645" y="388"/>
      <point x="651" y="389"/>
      <point x="656" y="387" type="curve" smooth="yes"/>
      <point x="673" y="380" type="line" smooth="yes"/>
      <point x="677" y="378"/>
      <point x="680" y="374"/>
      <point x="679" y="370" type="curve" smooth="yes"/>
      <point x="660" y="307"/>
      <point x="582" y="198"/>
      <point x="513" y="129" type="curve" smooth="yes"/>
      <point x="508" y="124"/>
      <point x="509" y="120"/>
      <point x="515" y="114" type="curve" smooth="yes"/>
      <point x="555" y="74"/>
      <point x="641" y="39"/>
      <point x="708" y="39" type="curve" smooth="yes"/>
      <point x="717" y="39"/>
      <point x="720" y="36"/>
      <point x="720" y="29" type="curve" smooth="yes"/>
      <point x="720" y="14" type="line" smooth="yes"/>
      <point x="720" y="3"/>
      <point x="717" y="0"/>
      <point x="704" y="0" type="curve" smooth="yes"/>
      <point x="636" y="0"/>
      <point x="529" y="45"/>
      <point x="479" y="87" type="curve" smooth="yes"/>
      <point x="474" y="91"/>
      <point x="470" y="91"/>
      <point x="465" y="86" type="curve" smooth="yes"/>
      <point x="403" y="28"/>
      <point x="329" y="-5"/>
      <point x="248" y="-5" type="curve" smooth="yes"/>
      <point x="121" y="-5"/>
      <point x="40" y="72"/>
      <point x="40" y="187" type="curve" smooth="yes"/>
      <point x="40" y="266"/>
      <point x="79" y="330"/>
      <point x="185" y="395" type="curve" smooth="yes"/>
      <point x="198" y="403"/>
      <point x="199" y="406"/>
      <point x="186" y="420" type="curve" smooth="yes"/>
      <point x="140" y="468"/>
      <point x="118" y="514"/>
      <point x="118" y="568" type="curve" smooth="yes"/>
      <point x="118" y="673"/>
      <point x="202" y="753"/>
    </contour>
    <contour>
      <point x="314" y="714" type="curve" smooth="yes"/>
      <point x="219" y="714"/>
      <point x="165" y="645"/>
      <point x="165" y="567" type="curve" smooth="yes"/>
      <point x="165" y="527"/>
      <point x="178" y="494"/>
      <point x="214" y="454" type="curve" smooth="yes"/>
      <point x="237" y="429" type="line" smooth="yes"/>
      <point x="240" y="425"/>
      <point x="247" y="424"/>
      <point x="254" y="427" type="curve" smooth="yes"/>
      <point x="385" y="489"/>
      <point x="434" y="542"/>
      <point x="434" y="610" type="curve" smooth="yes"/>
      <point x="434" y="681"/>
      <point x="379" y="714"/>
    </contour>
    <contour>
      <point x="245" y="361" type="line" smooth="yes"/>
      <point x="237" y="371"/>
      <point x="230" y="372"/>
      <point x="217" y="366" type="curve" smooth="yes"/>
      <point x="135" y="327"/>
      <point x="85" y="259"/>
      <point x="85" y="183" type="curve" smooth="yes"/>
      <point x="85" y="93"/>
      <point x="156" y="33"/>
      <point x="252" y="33" type="curve" smooth="yes"/>
      <point x="320" y="33"/>
      <point x="388" y="65"/>
      <point x="436" y="109" type="curve" smooth="yes"/>
      <point x="445" y="117"/>
      <point x="445" y="124"/>
      <point x="439" y="132" type="curve" smooth="yes"/>
    </contour>
  </outline>
</glyph>
<glyph name="quotesingle" format="1">
  <advance width="235"/>
  <unicode hex="0027"/>
  <outline>
    <contour>
      <point x="155" y="736" type="curve" smooth="yes"/>
      <point x="135" y="559" type="line" smooth="yes"/>
      <point x="134" y="553"/>
      <point x="132" y="550"/>
      <point x="125" y="550" type="curve" smooth="yes"/>
      <point x="107" y="550" type="line" smooth="yes"/>
      <point x="101" y="550"/>
      <point x="100" y="552"/>
      <point x="99" y="557" type="curve" smooth="yes"/>
      <point x="80" y="736" type="line" smooth="yes"/>
      <point x="80" y="740"/>
      <point x="83" y="742"/>
      <point x="86" y="742" type="curve" smooth="yes"/>
      <point x="149" y="742" type="line" smooth="yes"/>
      <point x="153" y="742"/>
      <point x="155" y="740"/>
    </contour>
  </outline>
</glyph>
<glyph name="parenleft" format="1">
  <advance width="268"/>
  <unicode hex="0028"/>
  <outline>
    <contour>
      <point x="242" y="742" type="line" smooth="yes"/>
      <point x="248" y="742"/>
      <point x="249" y="738"/>
      <point x="247" y="735" type="curve" smooth="yes"/>
      <point x="181" y="604"/>
      <point x="129" y="443"/>
      <point x="129" y="284" type="curve" smooth="yes"/>
      <point x="129" y="133"/>
      <point x="166" y="-8"/>
      <point x="236" y="-158" type="curve" smooth="yes"/>
      <point x="238" y="-161"/>
      <point x="237" y="-165"/>
      <point x="231" y="-165" type="curve" smooth="yes"/>
      <point x="221" y="-165" type="line" smooth="yes"/>
      <point x="217" y="-165"/>
      <point x="215" y="-164"/>
      <point x="212" y="-160" type="curve" smooth="yes"/>
      <point x="130" y="-19"/>
      <point x="80" y="114"/>
      <point x="80" y="285" type="curve" smooth="yes"/>
      <point x="80" y="451"/>
      <point x="140" y="611"/>
      <point x="223" y="736" type="curve" smooth="yes"/>
      <point x="226" y="740"/>
      <point x="229" y="742"/>
      <point x="235" y="742" type="curve" smooth="yes"/>
    </contour>
  </outline>
</glyph>
<glyph name="parenright" format="1">
  <advance width="268"/>
  <unicode hex="0029"/>
  <outline>
    <contour>
      <point x="26" y="742" type="curve" smooth="yes"/>
      <point x="33" y="742" type="line" smooth="yes"/>
      <point x="39" y="742"/>
      <point x="42" y="740"/>
      <point x="45" y="736" type="curve" smooth="yes"/>
      <point x="128" y="611"/>
      <point x="188" y="451"/>
      <point x="188" y="285" type="curve" smooth="yes"/>
      <point x="188" y="114"/>
      <point x="138" y="-19"/>
      <point x="56" y="-160" type="curve" smooth="yes"/>
      <point x="53" y="-164"/>
      <point x="51" y="-165"/>
      <point x="47" y="-165" type="curve" smooth="yes"/>
      <point x="37" y="-165" type="line" smooth="yes"/>
      <point x="31" y="-165"/>
      <point x="30" y="-161"/>
      <point x="32" y="-158" type="curve" smooth="yes"/>
      <point x="102" y="-8"/>
      <point x="139" y="133"/>
      <point x="139" y="284" type="curve" smooth="yes"/>
      <point x="139" y="443"/>
      <point x="87" y="604"/>
      <point x="21" y="735" type="curve" smooth="yes"/>
      <point x="19" y="738"/>
      <point x="20" y="742"/>
    </contour>
  </outline>
</glyph>
<glyph name="asterisk" format="1">
  <advance width="327"/>
  <unicode hex="002A"/>
  <outline>
    <contour>
      <point x="242" y="460" type="curve" smooth="yes"/>
      <point x="171" y="572" type="line" smooth="yes"/>
      <point x="170" y="573"/>
      <point x="169" y="573"/>
      <point x="168" y="572" type="curve" smooth="yes"/>
      <point x="93" y="455" type="line" smooth="yes"/>
      <point x="92" y="453"/>
      <point x="88" y="453"/>
      <point x="85" y="455" type="curve" smooth="yes"/>
      <point x="63" y="470" type="line" smooth="yes"/>
      <point x="60" y="472"/>
      <point x="60" y="474"/>
      <point x="63" y="478" type="curve" smooth="yes"/>
      <point x="144" y="584" type="line" smooth="yes"/>
      <point x="145" y="586"/>
      <point x="145" y="588"/>
      <point x="141" y="589" type="curve" smooth="yes"/>
      <point x="32" y="621" type="line" smooth="yes"/>
      <point x="29" y="622"/>
      <point x="29" y="624"/>
      <point x="30" y="628" type="curve" smooth="yes"/>
      <point x="38" y="650" type="line" smooth="yes"/>
      <point x="39" y="653"/>
      <point x="41" y="654"/>
      <point x="45" y="652" type="curve" smooth="yes"/>
      <point x="149" y="614" type="line" smooth="yes"/>
      <point x="152" y="613"/>
      <point x="154" y="614"/>
      <point x="154" y="618" type="curve" smooth="yes"/>
      <point x="147" y="737" type="line" smooth="yes"/>
      <point x="147" y="739"/>
      <point x="149" y="742"/>
      <point x="154" y="742" type="curve" smooth="yes"/>
      <point x="184" y="742" type="line" smooth="yes"/>
      <point x="188" y="742"/>
      <point x="189" y="740"/>
      <point x="189" y="737" type="curve" smooth="yes"/>
      <point x="184" y="618" type="line" smooth="yes"/>
      <point x="184" y="614"/>
      <point x="186" y="613"/>
      <point x="188" y="614" type="curve" smooth="yes"/>
      <point x="295" y="659" type="line" smooth="yes"/>
      <point x="299" y="661"/>
      <point x="300" y="660"/>
      <point x="301" y="657" type="curve" smooth="yes"/>
      <point x="308" y="636" type="line" smooth="yes"/>
      <point x="309" y="631"/>
      <point x="309" y="629"/>
      <point x="306" y="628" type="curve" smooth="yes"/>
      <point x="198" y="590" type="line" smooth="yes"/>
      <point x="195" y="589"/>
      <point x="194" y="587"/>
      <point x="196" y="584" type="curve" smooth="yes"/>
      <point x="274" y="485" type="line" smooth="yes"/>
      <point x="277" y="481"/>
      <point x="276" y="478"/>
      <point x="272" y="475" type="curve" smooth="yes"/>
      <point x="251" y="460" type="line" smooth="yes"/>
      <point x="247" y="457"/>
      <point x="243" y="458"/>
    </contour>
  </outline>
</glyph>
<glyph name="plus" format="1">
  <advance width="541"/>
  <unicode hex="002B"/>
  <outline>
    <contour>
      <point x="464" y="392" type="line" smooth="yes"/>
      <point x="468" y="392"/>
      <point x="471" y="390"/>
      <point x="471" y="386" type="curve" smooth="yes"/>
      <point x="471" y="362" type="line" smooth="yes"/>
      <point x="471" y="356"/>
      <point x="468" y="354"/>
      <point x="461" y="354" type="curve" smooth="yes"/>
      <point x="290" y="354" type="line"/>
      <point x="290" y="179" type="line" smooth="yes"/>
      <point x="290" y="175"/>
      <point x="288" y="172"/>
      <point x="284" y="172" type="curve" smooth="yes"/>
      <point x="260" y="172" type="line" smooth="yes"/>
      <point x="254" y="172"/>
      <point x="252" y="175"/>
      <point x="252" y="182" type="curve" smooth="yes"/>
      <point x="252" y="353" type="line"/>
      <point x="78" y="353" type="line" smooth="yes"/>
      <point x="72" y="353"/>
      <point x="70" y="355"/>
      <point x="70" y="360" type="curve" smooth="yes"/>
      <point x="70" y="384" type="line" smooth="yes"/>
      <point x="70" y="389"/>
      <point x="72" y="391"/>
      <point x="75" y="391" type="curve" smooth="yes"/>
      <point x="251" y="391" type="line"/>
      <point x="251" y="565" type="line" smooth="yes"/>
      <point x="251" y="571"/>
      <point x="253" y="573"/>
      <point x="258" y="573" type="curve" smooth="yes"/>
      <point x="282" y="573" type="line" smooth="yes"/>
      <point x="287" y="573"/>
      <point x="289" y="571"/>
      <point x="289" y="568" type="curve" smooth="yes"/>
      <point x="289" y="392" type="line"/>
    </contour>
  </outline>
</glyph>
<glyph name="comma" format="1">
  <advance width="187"/>
  <unicode hex="002C"/>
  <outline>
    <contour>
      <point x="50" y="-134" type="line" smooth="yes"/>
      <point x="46" y="-134"/>
      <point x="44" y="-131"/>
      <point x="47" y="-124" type="curve" smooth="yes"/>
      <point x="90" y="-10" type="line" smooth="yes"/>
      <point x="93" y="-3"/>
      <point x="91" y="0"/>
      <point x="82" y="0" type="curve" smooth="yes"/>
      <point x="73" y="0" type="line" smooth="yes"/>
      <point x="67" y="0"/>
      <point x="65" y="3"/>
      <point x="65" y="7" type="curve" smooth="yes"/>
      <point x="65" y="73" type="line" smooth="yes"/>
      <point x="65" y="77"/>
      <point x="67" y="79"/>
      <point x="71" y="79" type="curve" smooth="yes"/>
      <point x="121" y="79" type="line" smooth="yes"/>
      <point x="125" y="79"/>
      <point x="127" y="77"/>
      <point x="127" y="73" type="curve" smooth="yes"/>
      <point x="127" y="16" type="line" smooth="yes"/>
      <point x="127" y="11"/>
      <point x="126" y="7"/>
      <point x="125" y="4" type="curve" smooth="yes"/>
      <point x="68" y="-128" type="line" smooth="yes"/>
      <point x="66" y="-132"/>
      <point x="63" y="-134"/>
      <point x="57" y="-134" type="curve" smooth="yes"/>
    </contour>
  </outline>
</glyph>
<glyph name="hyphen" format="1">
  <advance width="381"/>
  <unicode hex="002D"/>
  <outline>
    <contour>
      <point x="311" y="280" type="curve" smooth="yes"/>
      <point x="311" y="254" type="line" smooth="yes"/>
      <point x="311" y="248"/>
      <point x="308" y="246"/>
      <point x="301" y="246" type="curve" smooth="yes"/>
      <point x="78" y="245" type="line" smooth="yes"/>
      <point x="72" y="245"/>
      <point x="70" y="247"/>
      <point x="70" y="252" type="curve" smooth="yes"/>
      <point x="70" y="278" type="line" smooth="yes"/>
      <point x="70" y="283"/>
      <point x="72" y="285"/>
      <point x="75" y="285" type="curve" smooth="yes"/>
      <point x="304" y="286" type="line" smooth="yes"/>
      <point x="308" y="286"/>
      <point x="311" y="284"/>
    </contour>
  </outline>
</glyph>
<glyph name="period" format="1">
  <advance width="182"/>
  <unicode hex="002E"/>
  <outline>
    <contour>
      <point x="122" y="71" type="curve" smooth="yes"/>
      <point x="122" y="11" type="line" smooth="yes"/>
      <point x="122" y="3"/>
      <point x="119" y="0"/>
      <point x="109" y="0" type="curve" smooth="yes"/>
      <point x="70" y="0" type="line" smooth="yes"/>
      <point x="62" y="0"/>
      <point x="60" y="3"/>
      <point x="60" y="10" type="curve" smooth="yes"/>
      <point x="60" y="70" type="line" smooth="yes"/>
      <point x="60" y="77"/>
      <point x="63" y="79"/>
      <point x="67" y="79" type="curve" smooth="yes"/>
      <point x="115" y="79" type="line" smooth="yes"/>
      <point x="120" y="79"/>
      <point x="122" y="77"/>
    </contour>
  </outline>
</glyph>
<glyph name="slash" format="1">
  <advance width="328"/>
  <unicode hex="002F"/>
  <outline>
    <contour>
      <point x="22" y="-60" type="line" smooth="yes"/>
      <point x="17" y="-60"/>
      <point x="16" y="-58"/>
      <point x="17" y="-55" type="curve" smooth="yes"/>
      <point x="268" y="736" type="line" smooth="yes"/>
      <point x="269" y="740"/>
      <point x="272" y="742"/>
      <point x="276" y="742" type="curve" smooth="yes"/>
      <point x="305" y="742" type="line" smooth="yes"/>
      <point x="311" y="742"/>
      <point x="312" y="739"/>
      <point x="310" y="732" type="curve" smooth="yes"/>
      <point x="62" y="-52" type="line" smooth="yes"/>
      <point x="60" y="-58"/>
      <point x="56" y="-60"/>
      <point x="51" y="-60" type="curve" smooth="yes"/>
    </contour>
  </outline>
</glyph>
<glyph name="zero" format="1">
  <advance width="675"/>
  <unicode hex="0030"/>
  <outline>
    <contour>
      <point x="338" y="752" type="curve" smooth="yes"/>
      <point x="483" y="752"/>
      <point x="596" y="628"/>
      <point x="596" y="369" type="curve" smooth="yes"/>
      <point x="596" y="112"/>
      <point x="483" y="-10"/>
      <point x="337" y="-10" type="curve" smooth="yes"/>
      <point x="191" y="-10"/>
      <point x="79" y="111"/>
      <point x="79" y="367" type="curve" smooth="yes"/>
      <point x="79" y="627"/>
      <point x="193" y="752"/>
    </contour>
    <contour>
      <point x="339" y="32" type="curve" smooth="yes"/>
      <point x="462" y="32"/>
      <point x="548" y="132"/>
      <point x="548" y="369" type="curve" smooth="yes"/>
      <point x="548" y="608"/>
      <point x="460" y="710"/>
      <point x="338" y="710" type="curve" smooth="yes"/>
      <point x="216" y="710"/>
      <point x="127" y="607"/>
      <point x="127" y="369" type="curve" smooth="yes"/>
      <point x="127" y="133"/>
      <point x="216" y="32"/>
    </contour>
  </outline>
</glyph>
<glyph name="one" format="1">
  <advance width="438"/>
  <unicode hex="0031"/>
  <outline>
    <contour>
      <point x="384" y="42" type="line" smooth="yes"/>
      <point x="389" y="42"/>
      <point x="391" y="40"/>
      <point x="391" y="36" type="curve" smooth="yes"/>
      <point x="391" y="6" type="line" smooth="yes"/>
      <point x="391" y="4"/>
      <point x="389" y="0"/>
      <point x="384" y="0" type="curve" smooth="yes"/>
      <point x="62" y="0" type="line" smooth="yes"/>
      <point x="58" y="0"/>
      <point x="56" y="3"/>
      <point x="56" y="6" type="curve" smooth="yes"/>
      <point x="56" y="36" type="line" smooth="yes"/>
      <point x="56" y="40"/>
      <point x="58" y="42"/>
      <point x="62" y="42" type="curve" smooth="yes"/>
      <point x="203" y="42" type="line" smooth="yes"/>
      <point x="206" y="42"/>
      <point x="209" y="43"/>
      <point x="209" y="46" type="curve" smooth="yes"/>
      <point x="209" y="678" type="line" smooth="yes"/>
      <point x="209" y="683"/>
      <point x="208" y="686"/>
      <point x="203" y="684" type="curve" smooth="yes"/>
      <point x="63" y="628" type="line" smooth="yes"/>
      <point x="58" y="626"/>
      <point x="55" y="629"/>
      <point x="55" y="635" type="curve" smooth="yes"/>
      <point x="55" y="659" type="line" smooth="yes"/>
      <point x="55" y="665"/>
      <point x="56" y="665"/>
      <point x="61" y="668" type="curve" smooth="yes"/>
      <point x="198" y="736" type="line" smooth="yes"/>
      <point x="207" y="741"/>
      <point x="212" y="742"/>
      <point x="220" y="742" type="curve" smooth="yes"/>
      <point x="247" y="742" type="line" smooth="yes"/>
      <point x="252" y="742"/>
      <point x="255" y="739"/>
      <point x="255" y="733" type="curve" smooth="yes"/>
      <point x="255" y="48" type="line" smooth="yes"/>
      <point x="255" y="44"/>
      <point x="257" y="42"/>
      <point x="260" y="42" type="curve" smooth="yes"/>
    </contour>
  </outline>
</glyph>
<glyph name="two" format="1">
  <advance width="571"/>
  <unicode hex="0032"/>
  <outline>
    <contour>
      <point x="71" y="65" type="curve" smooth="yes"/>
      <point x="302" y="304" type="line" smooth="yes"/>
      <point x="404" y="407"/>
      <point x="451" y="477"/>
      <point x="451" y="560" type="curve" smooth="yes"/>
      <point x="451" y="661"/>
      <point x="361" y="710"/>
      <point x="280" y="710" type="curve" smooth="yes"/>
      <point x="220" y="710"/>
      <point x="140" y="683"/>
      <point x="94" y="615" type="curve" smooth="yes"/>
      <point x="91" y="611"/>
      <point x="85" y="608"/>
      <point x="78" y="614" type="curve" smooth="yes"/>
      <point x="63" y="627" type="line" smooth="yes"/>
      <point x="55" y="634"/>
      <point x="56" y="636"/>
      <point x="61" y="643" type="curve" smooth="yes"/>
      <point x="116" y="719"/>
      <point x="208" y="752"/>
      <point x="287" y="752" type="curve" smooth="yes"/>
      <point x="391" y="752"/>
      <point x="497" y="695"/>
      <point x="497" y="554" type="curve" smooth="yes"/>
      <point x="497" y="463"/>
      <point x="449" y="397"/>
      <point x="325" y="270" type="curve" smooth="yes"/>
      <point x="113" y="54" type="line" smooth="yes"/>
      <point x="106" y="47"/>
      <point x="109" y="42"/>
      <point x="119" y="42" type="curve" smooth="yes"/>
      <point x="496" y="42" type="line" smooth="yes"/>
      <point x="503" y="42"/>
      <point x="505" y="40"/>
      <point x="505" y="34" type="curve" smooth="yes"/>
      <point x="505" y="8" type="line" smooth="yes"/>
      <point x="505" y="3"/>
      <point x="503" y="0"/>
      <point x="497" y="0" type="curve" smooth="yes"/>
      <point x="69" y="0" type="line" smooth="yes"/>
      <point x="60" y="0"/>
      <point x="57" y="3"/>
      <point x="57" y="12" type="curve" smooth="yes"/>
      <point x="57" y="32" type="line" smooth="yes"/>
      <point x="57" y="47"/>
      <point x="60" y="54"/>
    </contour>
  </outline>
</glyph>
<glyph name="three" format="1">
  <advance width="624"/>
  <unicode hex="0033"/>
  <outline>
    <contour>
      <point x="84" y="645" type="line" smooth="yes"/>
      <point x="80" y="649"/>
      <point x="81" y="654"/>
      <point x="84" y="657" type="curve" smooth="yes"/>
      <point x="151" y="725"/>
      <point x="216" y="752"/>
      <point x="298" y="752" type="curve" smooth="yes"/>
      <point x="439" y="752"/>
      <point x="529" y="671"/>
      <point x="529" y="568" type="curve" smooth="yes"/>
      <point x="529" y="490"/>
      <point x="478" y="429"/>
      <point x="397" y="400" type="curve" smooth="yes"/>
      <point x="382" y="395"/>
      <point x="382" y="393"/>
      <point x="397" y="389" type="curve" smooth="yes"/>
      <point x="479" y="368"/>
      <point x="552" y="301"/>
      <point x="552" y="199" type="curve" smooth="yes"/>
      <point x="552" y="86"/>
      <point x="462" y="-10"/>
      <point x="284" y="-10" type="curve" smooth="yes"/>
      <point x="191" y="-10"/>
      <point x="122" y="16"/>
      <point x="52" y="85" type="curve" smooth="yes"/>
      <point x="48" y="89"/>
      <point x="47" y="89"/>
      <point x="53" y="95" type="curve" smooth="yes"/>
      <point x="74" y="115" type="line" smooth="yes"/>
      <point x="80" y="121"/>
      <point x="82" y="118"/>
      <point x="85" y="115" type="curve" smooth="yes"/>
      <point x="145" y="53"/>
      <point x="210" y="32"/>
      <point x="289" y="32" type="curve" smooth="yes"/>
      <point x="427" y="32"/>
      <point x="506" y="100"/>
      <point x="506" y="196" type="curve" smooth="yes"/>
      <point x="506" y="312"/>
      <point x="394" y="370"/>
      <point x="286" y="370" type="curve" smooth="yes"/>
      <point x="196" y="370" type="line" smooth="yes"/>
      <point x="190" y="370"/>
      <point x="187" y="372"/>
      <point x="187" y="377" type="curve" smooth="yes"/>
      <point x="187" y="403" type="line" smooth="yes"/>
      <point x="187" y="407"/>
      <point x="191" y="410"/>
      <point x="196" y="410" type="curve" smooth="yes"/>
      <point x="269" y="410" type="line" smooth="yes"/>
      <point x="388" y="410"/>
      <point x="483" y="477"/>
      <point x="483" y="568" type="curve" smooth="yes"/>
      <point x="483" y="648"/>
      <point x="408" y="710"/>
      <point x="300" y="710" type="curve" smooth="yes"/>
      <point x="227" y="710"/>
      <point x="162" y="680"/>
      <point x="112" y="631" type="curve" smooth="yes"/>
      <point x="106" y="625"/>
      <point x="102" y="625"/>
      <point x="96" y="631" type="curve" smooth="yes"/>
    </contour>
  </outline>
</glyph>
<glyph name="four" format="1">
  <advance width="623"/>
  <unicode hex="0034"/>
  <outline>
    <contour>
      <point x="401" y="737" type="line" smooth="yes"/>
      <point x="403" y="740"/>
      <point x="408" y="742"/>
      <point x="415" y="742" type="curve" smooth="yes"/>
      <point x="446" y="742" type="line" smooth="yes"/>
      <point x="452" y="742"/>
      <point x="455" y="739"/>
      <point x="455" y="733" type="curve" smooth="yes"/>
      <point x="455" y="264" type="line" smooth="yes"/>
      <point x="455" y="259"/>
      <point x="457" y="256"/>
      <point x="462" y="256" type="curve" smooth="yes"/>
      <point x="564" y="256" type="line" smooth="yes"/>
      <point x="570" y="256"/>
      <point x="574" y="254"/>
      <point x="574" y="249" type="curve" smooth="yes"/>
      <point x="574" y="224" type="line" smooth="yes"/>
      <point x="574" y="218"/>
      <point x="571" y="214"/>
      <point x="564" y="214" type="curve" smooth="yes"/>
      <point x="463" y="214" type="line" smooth="yes"/>
      <point x="458" y="214"/>
      <point x="455" y="212"/>
      <point x="455" y="205" type="curve" smooth="yes"/>
      <point x="455" y="9" type="line" smooth="yes"/>
      <point x="455" y="3"/>
      <point x="452" y="0"/>
      <point x="445" y="0" type="curve" smooth="yes"/>
      <point x="417" y="0" type="line" smooth="yes"/>
      <point x="412" y="0"/>
      <point x="409" y="4"/>
      <point x="409" y="9" type="curve" smooth="yes"/>
      <point x="409" y="208" type="line" smooth="yes"/>
      <point x="409" y="212"/>
      <point x="407" y="214"/>
      <point x="401" y="214" type="curve" smooth="yes"/>
      <point x="63" y="214" type="line" smooth="yes"/>
      <point x="56" y="214"/>
      <point x="52" y="216"/>
      <point x="52" y="224" type="curve" smooth="yes"/>
      <point x="52" y="255" type="line" smooth="yes"/>
      <point x="52" y="261"/>
      <point x="54" y="267"/>
      <point x="61" y="277" type="curve" smooth="yes"/>
    </contour>
    <contour>
      <point x="113" y="256" type="curve" smooth="yes"/>
      <point x="396" y="256" type="line" smooth="yes"/>
      <point x="401" y="256"/>
      <point x="405" y="259"/>
      <point x="405" y="263" type="curve" smooth="yes"/>
      <point x="405" y="650" type="line" smooth="yes"/>
      <point x="405" y="664"/>
      <point x="400" y="666"/>
      <point x="391" y="654" type="curve" smooth="yes"/>
      <point x="106" y="269" type="line" smooth="yes"/>
      <point x="100" y="261"/>
      <point x="103" y="256"/>
    </contour>
  </outline>
</glyph>
<glyph name="five" format="1">
  <advance width="641"/>
  <unicode hex="0035"/>
  <outline>
    <contour>
      <point x="136" y="742" type="curve" smooth="yes"/>
      <point x="533" y="742" type="line" smooth="yes"/>
      <point x="541" y="742"/>
      <point x="543" y="740"/>
      <point x="542" y="733" type="curve" smooth="yes"/>
      <point x="539" y="707" type="line" smooth="yes"/>
      <point x="538" y="700"/>
      <point x="541" y="700"/>
      <point x="531" y="700" type="curve" smooth="yes"/>
      <point x="175" y="700" type="line" smooth="yes"/>
      <point x="170" y="700"/>
      <point x="166" y="698"/>
      <point x="166" y="692" type="curve" smooth="yes"/>
      <point x="145" y="417" type="line" smooth="yes"/>
      <point x="144" y="409"/>
      <point x="149" y="403"/>
      <point x="155" y="407" type="curve" smooth="yes"/>
      <point x="203" y="435"/>
      <point x="253" y="464"/>
      <point x="335" y="464" type="curve" smooth="yes"/>
      <point x="456" y="464"/>
      <point x="574" y="402"/>
      <point x="574" y="243" type="curve" smooth="yes"/>
      <point x="574" y="83"/>
      <point x="455" y="-10"/>
      <point x="300" y="-10" type="curve" smooth="yes"/>
      <point x="214" y="-10"/>
      <point x="130" y="19"/>
      <point x="64" y="84" type="curve" smooth="yes"/>
      <point x="59" y="89"/>
      <point x="59" y="90"/>
      <point x="65" y="96" type="curve" smooth="yes"/>
      <point x="84" y="116" type="line" smooth="yes"/>
      <point x="87" y="119"/>
      <point x="91" y="117"/>
      <point x="94" y="114" type="curve" smooth="yes"/>
      <point x="154" y="62"/>
      <point x="202" y="30"/>
      <point x="292" y="30" type="curve" smooth="yes"/>
      <point x="441" y="30"/>
      <point x="528" y="117"/>
      <point x="528" y="242" type="curve" smooth="yes"/>
      <point x="528" y="371"/>
      <point x="436" y="424"/>
      <point x="336" y="424" type="curve" smooth="yes"/>
      <point x="250" y="424"/>
      <point x="185" y="384"/>
      <point x="137" y="353" type="curve" smooth="yes"/>
      <point x="127" y="347"/>
      <point x="130" y="350"/>
      <point x="123" y="354" type="curve" smooth="yes"/>
      <point x="101" y="368" type="line" smooth="yes"/>
      <point x="90" y="375"/>
      <point x="95" y="369"/>
      <point x="96" y="384" type="curve" smooth="yes"/>
      <point x="123" y="734" type="line" smooth="yes"/>
      <point x="123" y="742"/>
      <point x="122" y="742"/>
    </contour>
  </outline>
</glyph>
<glyph name="six" format="1">
  <advance width="646"/>
  <unicode hex="0036"/>
  <outline>
    <contour>
      <point x="368" y="752" type="curve" smooth="yes"/>
      <point x="447" y="752"/>
      <point x="495" y="722"/>
      <point x="536" y="678" type="curve" smooth="yes"/>
      <point x="539" y="675"/>
      <point x="542" y="671"/>
      <point x="536" y="667" type="curve" smooth="yes"/>
      <point x="512" y="650" type="line" smooth="yes"/>
      <point x="508" y="647"/>
      <point x="503" y="649"/>
      <point x="499" y="654" type="curve" smooth="yes"/>
      <point x="468" y="689"/>
      <point x="429" y="710"/>
      <point x="369" y="710" type="curve" smooth="yes"/>
      <point x="196" y="710"/>
      <point x="125" y="573"/>
      <point x="125" y="397" type="curve" smooth="yes"/>
      <point x="125" y="375"/>
      <point x="126" y="369"/>
      <point x="140" y="377" type="curve" smooth="yes"/>
      <point x="196" y="405"/>
      <point x="259" y="436"/>
      <point x="347" y="436" type="curve" smooth="yes"/>
      <point x="501" y="436"/>
      <point x="582" y="342"/>
      <point x="582" y="220" type="curve" smooth="yes"/>
      <point x="582" y="81"/>
      <point x="475" y="-10"/>
      <point x="343" y="-10" type="curve" smooth="yes"/>
      <point x="179" y="-10"/>
      <point x="79" y="123"/>
      <point x="79" y="363" type="curve" smooth="yes"/>
      <point x="79" y="605"/>
      <point x="184" y="752"/>
    </contour>
    <contour>
      <point x="351" y="394" type="curve" smooth="yes"/>
      <point x="290" y="394"/>
      <point x="201" y="372"/>
      <point x="151" y="341" type="curve" smooth="yes"/>
      <point x="132" y="328"/>
      <point x="127" y="319"/>
      <point x="127" y="292" type="curve" smooth="yes"/>
      <point x="127" y="191"/>
      <point x="193" y="32"/>
      <point x="346" y="32" type="curve" smooth="yes"/>
      <point x="455" y="32"/>
      <point x="536" y="115"/>
      <point x="536" y="219" type="curve" smooth="yes"/>
      <point x="536" y="313"/>
      <point x="469" y="394"/>
    </contour>
  </outline>
</glyph>
<glyph name="seven" format="1">
  <advance width="587"/>
  <unicode hex="0037"/>
  <outline>
    <contour>
      <point x="60" y="742" type="curve" smooth="yes"/>
      <point x="529" y="742" type="line" smooth="yes"/>
      <point x="534" y="742"/>
      <point x="536" y="739"/>
      <point x="536" y="736" type="curve" smooth="yes"/>
      <point x="536" y="712" type="line" smooth="yes"/>
      <point x="536" y="703"/>
      <point x="535" y="698"/>
      <point x="528" y="688" type="curve" smooth="yes"/>
      <point x="387" y="481"/>
      <point x="256" y="150"/>
      <point x="230" y="14" type="curve" smooth="yes"/>
      <point x="229" y="5"/>
      <point x="226" y="0"/>
      <point x="219" y="0" type="curve" smooth="yes"/>
      <point x="190" y="0" type="line" smooth="yes"/>
      <point x="182" y="0"/>
      <point x="179" y="5"/>
      <point x="181" y="13" type="curve" smooth="yes"/>
      <point x="215" y="161"/>
      <point x="317" y="440"/>
      <point x="477" y="688" type="curve" smooth="yes"/>
      <point x="482" y="695"/>
      <point x="482" y="700"/>
      <point x="471" y="700" type="curve" smooth="yes"/>
      <point x="52" y="700" type="line" smooth="yes"/>
      <point x="48" y="700"/>
      <point x="47" y="702"/>
      <point x="47" y="707" type="curve" smooth="yes"/>
      <point x="50" y="735" type="line" smooth="yes"/>
      <point x="51" y="741"/>
      <point x="53" y="742"/>
    </contour>
  </outline>
</glyph>
<glyph name="eight" format="1">
  <advance width="659"/>
  <unicode hex="0038"/>
  <outline>
    <contour>
      <point x="331" y="752" type="curve" smooth="yes"/>
      <point x="468" y="752"/>
      <point x="557" y="672"/>
      <point x="557" y="549" type="curve" smooth="yes"/>
      <point x="557" y="483"/>
      <point x="528" y="436"/>
      <point x="453" y="379" type="curve" smooth="yes"/>
      <point x="443" y="372"/>
      <point x="443" y="368"/>
      <point x="452" y="365" type="curve" smooth="yes"/>
      <point x="539" y="338"/>
      <point x="590" y="273"/>
      <point x="590" y="188" type="curve" smooth="yes"/>
      <point x="590" y="69"/>
      <point x="486" y="-10"/>
      <point x="329" y="-10" type="curve" smooth="yes"/>
      <point x="169" y="-10"/>
      <point x="73" y="63"/>
      <point x="73" y="185" type="curve" smooth="yes"/>
      <point x="73" y="258"/>
      <point x="108" y="314"/>
      <point x="187" y="368" type="curve" smooth="yes"/>
      <point x="205" y="380"/>
      <point x="205" y="384"/>
      <point x="187" y="393" type="curve" smooth="yes"/>
      <point x="126" y="423"/>
      <point x="93" y="476"/>
      <point x="93" y="546" type="curve" smooth="yes"/>
      <point x="93" y="664"/>
      <point x="195" y="752"/>
    </contour>
    <contour>
      <point x="331" y="710" type="curve" smooth="yes"/>
      <point x="222" y="710"/>
      <point x="139" y="639"/>
      <point x="139" y="546" type="curve" smooth="yes"/>
      <point x="139" y="473"/>
      <point x="181" y="427"/>
      <point x="263" y="410" type="curve" smooth="yes"/>
      <point x="380" y="385" type="line" smooth="yes"/>
      <point x="419" y="377"/>
      <point x="511" y="464"/>
      <point x="511" y="554" type="curve" smooth="yes"/>
      <point x="511" y="648"/>
      <point x="440" y="710"/>
    </contour>
    <contour>
      <point x="330" y="32" type="curve" smooth="yes"/>
      <point x="460" y="32"/>
      <point x="544" y="94"/>
      <point x="544" y="191" type="curve" smooth="yes"/>
      <point x="544" y="266"/>
      <point x="506" y="309"/>
      <point x="423" y="327" type="curve" smooth="yes"/>
      <point x="271" y="361" type="line" smooth="yes"/>
      <point x="232" y="370"/>
      <point x="119" y="293"/>
      <point x="119" y="186" type="curve" smooth="yes"/>
      <point x="119" y="89"/>
      <point x="197" y="32"/>
    </contour>
  </outline>
</glyph>
<glyph name="nine" format="1">
  <advance width="641"/>
  <unicode hex="0039"/>
  <outline>
    <contour>
      <point x="279" y="-10" type="curve" smooth="yes"/>
      <point x="195" y="-10"/>
      <point x="144" y="20"/>
      <point x="101" y="64" type="curve" smooth="yes"/>
      <point x="98" y="67"/>
      <point x="95" y="71"/>
      <point x="101" y="75" type="curve" smooth="yes"/>
      <point x="125" y="92" type="line" smooth="yes"/>
      <point x="129" y="95"/>
      <point x="134" y="93"/>
      <point x="138" y="88" type="curve" smooth="yes"/>
      <point x="169" y="53"/>
      <point x="212" y="32"/>
      <point x="279" y="32" type="curve" smooth="yes"/>
      <point x="446" y="32"/>
      <point x="516" y="169"/>
      <point x="516" y="345" type="curve" smooth="yes"/>
      <point x="516" y="367"/>
      <point x="515" y="373"/>
      <point x="501" y="365" type="curve" smooth="yes"/>
      <point x="447" y="337"/>
      <point x="386" y="306"/>
      <point x="298" y="306" type="curve" smooth="yes"/>
      <point x="147" y="306"/>
      <point x="65" y="400"/>
      <point x="65" y="522" type="curve" smooth="yes"/>
      <point x="65" y="661"/>
      <point x="172" y="752"/>
      <point x="304" y="752" type="curve" smooth="yes"/>
      <point x="464" y="752"/>
      <point x="562" y="619"/>
      <point x="562" y="379" type="curve" smooth="yes"/>
      <point x="562" y="137"/>
      <point x="459" y="-10"/>
    </contour>
    <contour>
      <point x="293" y="348" type="curve" smooth="yes"/>
      <point x="358" y="348"/>
      <point x="443" y="373"/>
      <point x="492" y="408" type="curve" smooth="yes"/>
      <point x="511" y="421"/>
      <point x="516" y="430"/>
      <point x="516" y="457" type="curve" smooth="yes"/>
      <point x="516" y="555"/>
      <point x="451" y="710"/>
      <point x="301" y="710" type="curve" smooth="yes"/>
      <point x="192" y="710"/>
      <point x="111" y="628"/>
      <point x="111" y="524" type="curve" smooth="yes"/>
      <point x="111" y="429"/>
      <point x="179" y="348"/>
    </contour>
  </outline>
</glyph>
<glyph name="colon" format="1">
  <advance width="182"/>
  <unicode hex="003A"/>
  <outline>
    <contour>
      <point x="122" y="492" type="curve" smooth="yes"/>
      <point x="122" y="432" type="line" smooth="yes"/>
      <point x="122" y="424"/>
      <point x="119" y="421"/>
      <point x="109" y="421" type="curve" smooth="yes"/>
      <point x="70" y="421" type="line" smooth="yes"/>
      <point x="62" y="421"/>
      <point x="60" y="424"/>
      <point x="60" y="431" type="curve" smooth="yes"/>
      <point x="60" y="491" type="line" smooth="yes"/>
      <point x="60" y="498"/>
      <point x="63" y="500"/>
      <point x="67" y="500" type="curve" smooth="yes"/>
      <point x="115" y="500" type="line" smooth="yes"/>
      <point x="120" y="500"/>
      <point x="122" y="498"/>
    </contour>
    <contour>
      <point x="122" y="74" type="curve" smooth="yes"/>
      <point x="122" y="14" type="line" smooth="yes"/>
      <point x="122" y="6"/>
      <point x="119" y="3"/>
      <point x="109" y="3" type="curve" smooth="yes"/>
      <point x="70" y="3" type="line" smooth="yes"/>
      <point x="62" y="3"/>
      <point x="60" y="6"/>
      <point x="60" y="13" type="curve" smooth="yes"/>
      <point x="60" y="73" type="line" smooth="yes"/>
      <point x="60" y="80"/>
      <point x="63" y="82"/>
      <point x="67" y="82" type="curve" smooth="yes"/>
      <point x="115" y="82" type="line" smooth="yes"/>
      <point x="120" y="82"/>
      <point x="122" y="80"/>
    </contour>
  </outline>
</glyph>
<glyph name="semicolon" format="1">
  <advance width="210"/>
  <unicode hex="003B"/>
  <outline>
    <contour>
      <point x="70" y="421" type="line" smooth="yes"/>
      <point x="62" y="421"/>
      <point x="60" y="424"/>
      <point x="60" y="431" type="curve" smooth="yes"/>
      <point x="60" y="491" type="line" smooth="yes"/>
      <point x="60" y="498"/>
      <point x="63" y="500"/>
      <point x="67" y="500" type="curve" smooth="yes"/>
      <point x="115" y="500" type="line" smooth="yes"/>
      <point x="120" y="500"/>
      <point x="122" y="498"/>
      <point x="122" y="492" type="curve" smooth="yes"/>
      <point x="122" y="432" type="line" smooth="yes"/>
      <point x="122" y="424"/>
      <point x="119" y="421"/>
      <point x="109" y="421" type="curve" smooth="yes"/>
    </contour>
    <contour>
      <point x="50" y="-134" type="line" smooth="yes"/>
      <point x="46" y="-134"/>
      <point x="44" y="-131"/>
      <point x="47" y="-124" type="curve" smooth="yes"/>
      <point x="90" y="-10" type="line" smooth="yes"/>
      <point x="93" y="-3"/>
      <point x="91" y="0"/>
      <point x="82" y="0" type="curve" smooth="yes"/>
      <point x="73" y="0" type="line" smooth="yes"/>
      <point x="67" y="0"/>
      <point x="65" y="3"/>
      <point x="65" y="7" type="curve" smooth="yes"/>
      <point x="65" y="73" type="line" smooth="yes"/>
      <point x="65" y="77"/>
      <point x="67" y="79"/>
      <point x="71" y="79" type="curve" smooth="yes"/>
      <point x="121" y="79" type="line" smooth="yes"/>
      <point x="125" y="79"/>
      <point x="127" y="77"/>
      <point x="127" y="73" type="curve" smooth="yes"/>
      <point x="127" y="16" type="line" smooth="yes"/>
      <point x="127" y="11"/>
      <point x="126" y="7"/>
      <point x="125" y="4" type="curve" smooth="yes"/>
      <point x="68" y="-128" type="line" smooth="yes"/>
      <point x="66" y="-132"/>
      <point x="63" y="-134"/>
      <point x="57" y="-134" type="curve" smooth="yes"/>
    </contour>
  </outline>
</glyph>
<glyph name="less" format="1">
  <advance width="523"/>
  <unicode hex="003C"/>
  <outline>
    <contour>
      <point x="452" y="216" type="curve" smooth="yes"/>
      <point x="452" y="195" type="line" smooth="yes"/>
      <point x="452" y="184"/>
      <point x="445" y="180"/>
      <point x="436" y="184" type="curve" smooth="yes"/>
      <point x="68" y="330" type="line" smooth="yes"/>
      <point x="63" y="332"/>
      <point x="60" y="335"/>
      <point x="60" y="340" type="curve" smooth="yes"/>
      <point x="60" y="375" type="line" smooth="yes"/>
      <point x="60" y="381"/>
      <point x="63" y="383"/>
      <point x="68" y="385" type="curve" smooth="yes"/>
      <point x="436" y="533" type="line" smooth="yes"/>
      <point x="448" y="538"/>
      <point x="453" y="534"/>
      <point x="453" y="524" type="curve" smooth="yes"/>
      <point x="453" y="498" type="line" smooth="yes"/>
      <point x="453" y="492"/>
      <point x="449" y="489"/>
      <point x="440" y="485" type="curve" smooth="yes"/>
      <point x="121" y="358" type="line"/>
      <point x="439" y="230" type="line" smooth="yes"/>
      <point x="448" y="226"/>
      <point x="452" y="223"/>
    </contour>
  </outline>
</glyph>
<glyph name="equal" format="1">
  <advance width="541"/>
  <unicode hex="003D"/>
  <outline>
    <contour>
      <point x="471" y="486" type="curve" smooth="yes"/>
      <point x="471" y="462" type="line" smooth="yes"/>
      <point x="471" y="456"/>
      <point x="468" y="454"/>
      <point x="461" y="454" type="curve" smooth="yes"/>
      <point x="78" y="453" type="line" smooth="yes"/>
      <point x="72" y="453"/>
      <point x="70" y="455"/>
      <point x="70" y="460" type="curve" smooth="yes"/>
      <point x="70" y="484" type="line" smooth="yes"/>
      <point x="70" y="489"/>
      <point x="72" y="491"/>
      <point x="75" y="491" type="curve" smooth="yes"/>
      <point x="464" y="492" type="line" smooth="yes"/>
      <point x="468" y="492"/>
      <point x="471" y="490"/>
    </contour>
    <contour>
      <point x="471" y="266" type="curve" smooth="yes"/>
      <point x="471" y="242" type="line" smooth="yes"/>
      <point x="471" y="236"/>
      <point x="468" y="234"/>
      <point x="461" y="234" type="curve" smooth="yes"/>
      <point x="78" y="233" type="line" smooth="yes"/>
      <point x="72" y="233"/>
      <point x="70" y="235"/>
      <point x="70" y="240" type="curve" smooth="yes"/>
      <point x="70" y="264" type="line" smooth="yes"/>
      <point x="70" y="269"/>
      <point x="72" y="271"/>
      <point x="75" y="271" type="curve" smooth="yes"/>
      <point x="464" y="272" type="line" smooth="yes"/>
      <point x="468" y="272"/>
      <point x="471" y="270"/>
    </contour>
  </outline>
</glyph>
<glyph name="greater" format="1">
  <advance width="523"/>
  <unicode hex="003E"/>
  <outline>
    <contour>
      <point x="71" y="216" type="line" smooth="yes"/>
      <point x="71" y="223"/>
      <point x="75" y="226"/>
      <point x="84" y="230" type="curve" smooth="yes"/>
      <point x="402" y="358" type="line"/>
      <point x="83" y="485" type="line" smooth="yes"/>
      <point x="74" y="489"/>
      <point x="70" y="492"/>
      <point x="70" y="498" type="curve" smooth="yes"/>
      <point x="70" y="524" type="line" smooth="yes"/>
      <point x="70" y="534"/>
      <point x="75" y="538"/>
      <point x="87" y="533" type="curve" smooth="yes"/>
      <point x="455" y="385" type="line" smooth="yes"/>
      <point x="460" y="383"/>
      <point x="463" y="381"/>
      <point x="463" y="375" type="curve" smooth="yes"/>
      <point x="463" y="340" type="line" smooth="yes"/>
      <point x="463" y="335"/>
      <point x="460" y="332"/>
      <point x="455" y="330" type="curve" smooth="yes"/>
      <point x="87" y="184" type="line" smooth="yes"/>
      <point x="78" y="180"/>
      <point x="71" y="184"/>
      <point x="71" y="195" type="curve" smooth="yes"/>
    </contour>
  </outline>
</glyph>
<glyph name="at" format="1">
  <advance width="834"/>
  <unicode hex="0040"/>
  <outline>
    <contour>
      <point x="650" y="-46" type="curve" smooth="yes"/>
      <point x="588" y="-89"/>
      <point x="516" y="-113"/>
      <point x="437" y="-113" type="curve" smooth="yes"/>
      <point x="196" y="-113"/>
      <point x="53" y="55"/>
      <point x="53" y="261" type="curve" smooth="yes"/>
      <point x="53" y="477"/>
      <point x="215" y="661"/>
      <point x="449" y="661" type="curve" smooth="yes"/>
      <point x="617" y="661"/>
      <point x="797" y="564"/>
      <point x="797" y="340" type="curve" smooth="yes"/>
      <point x="797" y="187"/>
      <point x="713" y="81"/>
      <point x="606" y="81" type="curve" smooth="yes"/>
      <point x="558" y="81"/>
      <point x="530" y="94"/>
      <point x="521" y="138" type="curve" smooth="yes"/>
      <point x="519" y="148"/>
      <point x="516" y="148"/>
      <point x="510" y="140" type="curve" smooth="yes"/>
      <point x="480" y="98"/>
      <point x="437" y="67"/>
      <point x="367" y="67" type="curve" smooth="yes"/>
      <point x="297" y="67"/>
      <point x="233" y="136"/>
      <point x="233" y="243" type="curve" smooth="yes"/>
      <point x="233" y="373"/>
      <point x="313" y="475"/>
      <point x="421" y="475" type="curve" smooth="yes"/>
      <point x="475" y="475"/>
      <point x="518" y="447"/>
      <point x="541" y="403" type="curve" smooth="yes"/>
      <point x="542" y="401"/>
      <point x="546" y="401"/>
      <point x="547" y="406" type="curve" smooth="yes"/>
      <point x="557" y="444" type="line" smooth="yes"/>
      <point x="558" y="448"/>
      <point x="560" y="449"/>
      <point x="564" y="449" type="curve" smooth="yes"/>
      <point x="593" y="449" type="line" smooth="yes"/>
      <point x="597" y="449"/>
      <point x="600" y="447"/>
      <point x="599" y="443" type="curve" smooth="yes"/>
      <point x="561" y="214" type="line" smooth="yes"/>
      <point x="550" y="147"/>
      <point x="566" y="124"/>
      <point x="607" y="124" type="curve" smooth="yes"/>
      <point x="684" y="124"/>
      <point x="747" y="208"/>
      <point x="747" y="334" type="curve" smooth="yes"/>
      <point x="747" y="536"/>
      <point x="587" y="618"/>
      <point x="448" y="618" type="curve" smooth="yes"/>
      <point x="236" y="618"/>
      <point x="102" y="454"/>
      <point x="102" y="258" type="curve" smooth="yes"/>
      <point x="102" y="86"/>
      <point x="216" y="-69"/>
      <point x="449" y="-69" type="curve" smooth="yes"/>
      <point x="535" y="-69"/>
      <point x="576" y="-42"/>
      <point x="626" y="-9" type="curve" smooth="yes"/>
      <point x="634" y="-4"/>
      <point x="641" y="-5"/>
      <point x="645" y="-10" type="curve" smooth="yes"/>
      <point x="657" y="-26" type="line" smooth="yes"/>
      <point x="664" y="-36"/>
      <point x="656" y="-42"/>
    </contour>
    <contour>
      <point x="283" y="244" type="curve" smooth="yes"/>
      <point x="283" y="160"/>
      <point x="317" y="111"/>
      <point x="372" y="111" type="curve" smooth="yes"/>
      <point x="444" y="111"/>
      <point x="508" y="180"/>
      <point x="522" y="266" type="curve" smooth="yes"/>
      <point x="540" y="380"/>
      <point x="480" y="431"/>
      <point x="423" y="431" type="curve" smooth="yes"/>
      <point x="337" y="431"/>
      <point x="283" y="347"/>
    </contour>
  </outline>
</glyph>
<glyph name="B" format="1">
  <advance width="684"/>
  <unicode hex="0042"/>
  <outline>
    <contour>
      <point x="122" y="0" type="line" smooth="yes"/>
      <point x="117" y="0"/>
      <point x="114" y="3"/>
      <point x="114" y="8" type="curve" smooth="yes"/>
      <point x="114" y="732" type="line" smooth="yes"/>
      <point x="114" y="740"/>
      <point x="116" y="742"/>
      <point x="123" y="742" type="curve" smooth="yes"/>
      <point x="328" y="742" type="line" smooth="yes"/>
      <point x="494" y="742"/>
      <point x="591" y="675"/>
      <point x="591" y="551" type="curve" smooth="yes"/>
      <point x="591" y="467"/>
      <point x="548" y="409"/>
      <point x="460" y="382" type="curve" smooth="yes"/>
      <point x="454" y="380"/>
      <point x="454" y="374"/>
      <point x="460" y="373" type="curve" smooth="yes"/>
      <point x="550" y="356"/>
      <point x="609" y="297"/>
      <point x="609" y="197" type="curve" smooth="yes"/>
      <point x="609" y="65"/>
      <point x="506" y="0"/>
      <point x="331" y="0" type="curve" smooth="yes"/>
    </contour>
    <contour>
      <point x="167" y="395" type="curve" smooth="yes"/>
      <point x="340" y="395" type="line" smooth="yes"/>
      <point x="433" y="395"/>
      <point x="543" y="424"/>
      <point x="543" y="546" type="curve" smooth="yes"/>
      <point x="543" y="654"/>
      <point x="459" y="702"/>
      <point x="324" y="702" type="curve" smooth="yes"/>
      <point x="169" y="702" type="line" smooth="yes"/>
      <point x="163" y="702"/>
      <point x="160" y="700"/>
      <point x="160" y="694" type="curve" smooth="yes"/>
      <point x="160" y="405" type="line" smooth="yes"/>
      <point x="160" y="398"/>
      <point x="162" y="395"/>
    </contour>
    <contour>
      <point x="167" y="40" type="curve" smooth="yes"/>
      <point x="326" y="40" type="line" smooth="yes"/>
      <point x="484" y="40"/>
      <point x="561" y="82"/>
      <point x="561" y="191" type="curve" smooth="yes"/>
      <point x="561" y="311"/>
      <point x="465" y="355"/>
      <point x="340" y="355" type="curve" smooth="yes"/>
      <point x="171" y="355" type="line" smooth="yes"/>
      <point x="163" y="355"/>
      <point x="160" y="353"/>
      <point x="160" y="346" type="curve" smooth="yes"/>
      <point x="160" y="50" type="line" smooth="yes"/>
      <point x="160" y="43"/>
      <point x="162" y="40"/>
    </contour>
  </outline>
</glyph>
<glyph name="F" format="1">
  <advance width="583"/>
  <unicode hex="0046"/>
  <outline>
    <contour>
      <point x="114" y="732" type="line" smooth="yes"/>
      <point x="114" y="740"/>
      <point x="116" y="742"/>
      <point x="123" y="742" type="curve" smooth="yes"/>
      <point x="528" y="742" type="line" smooth="yes"/>
      <point x="533" y="742"/>
      <point x="535" y="740"/>
      <point x="535" y="735" type="curve" smooth="yes"/>
      <point x="535" y="709" type="line" smooth="yes"/>
      <point x="535" y="703"/>
      <point x="533" y="702"/>
      <point x="527" y="702" type="curve" smooth="yes"/>
      <point x="169" y="702" type="line" smooth="yes"/>
      <point x="162" y="702"/>
      <point x="160" y="701"/>
      <point x="160" y="693" type="curve" smooth="yes"/>
      <point x="160" y="389" type="line" smooth="yes"/>
      <point x="160" y="383"/>
      <point x="162" y="382"/>
      <point x="169" y="382" type="curve" smooth="yes"/>
      <point x="468" y="382" type="line" smooth="yes"/>
      <point x="473" y="382"/>
      <point x="475" y="380"/>
      <point x="475" y="375" type="curve" smooth="yes"/>
      <point x="475" y="349" type="line" smooth="yes"/>
      <point x="475" y="343"/>
      <point x="473" y="342"/>
      <point x="467" y="342" type="curve" smooth="yes"/>
      <point x="169" y="342" type="line" smooth="yes"/>
      <point x="162" y="342"/>
      <point x="160" y="341"/>
      <point x="160" y="333" type="curve" smooth="yes"/>
      <point x="160" y="7" type="line" smooth="yes"/>
      <point x="160" y="2"/>
      <point x="158" y="0"/>
      <point x="153" y="0" type="curve" smooth="yes"/>
      <point x="123" y="0" type="line" smooth="yes"/>
      <point x="116" y="0"/>
      <point x="114" y="2"/>
      <point x="114" y="10" type="curve" smooth="yes"/>
    </contour>
  </outline>
</glyph>
<glyph name="H" format="1">
  <advance width="725"/>
  <unicode hex="0048"/>
  <outline>
    <contour>
      <point x="0" y="0" type="move" name="Anchor-5"/>
    </contour>
    <contour>
      <point x="363" y="742" type="move" name="Anchor-4"/>
    </contour>
    <contour>
      <point x="0" y="0" type="move" name="Anchor-3"/>
    </contour>
    <contour>
      <point x="363" y="0" type="move" name="Anchor-2"/>
    </contour>
    <contour>
      <point x="558" y="366" type="curve" smooth="yes"/>
      <point x="166" y="366" type="line" smooth="yes"/>
      <point x="162" y="366"/>
      <point x="160" y="363"/>
      <point x="160" y="360" type="curve" smooth="yes"/>
      <point x="160" y="9" type="line" smooth="yes"/>
      <point x="160" y="3"/>
      <point x="157" y="0"/>
      <point x="150" y="0" type="curve" smooth="yes"/>
      <point x="123" y="0" type="line" smooth="yes"/>
      <point x="116" y="0"/>
      <point x="114" y="3"/>
      <point x="114" y="10" type="curve" smooth="yes"/>
      <point x="114" y="732" type="line" smooth="yes"/>
      <point x="114" y="740"/>
      <point x="116" y="742"/>
      <point x="123" y="742" type="curve" smooth="yes"/>
      <point x="151" y="742" type="line" smooth="yes"/>
      <point x="158" y="742"/>
      <point x="160" y="740"/>
      <point x="160" y="732" type="curve" smooth="yes"/>
      <point x="160" y="415" type="line" smooth="yes"/>
      <point x="160" y="407"/>
      <point x="162" y="406"/>
      <point x="169" y="406" type="curve" smooth="yes"/>
      <point x="557" y="406" type="line" smooth="yes"/>
      <point x="563" y="406"/>
      <point x="565" y="408"/>
      <point x="565" y="414" type="curve" smooth="yes"/>
      <point x="565" y="733" type="line" smooth="yes"/>
      <point x="565" y="739"/>
      <point x="567" y="742"/>
      <point x="573" y="742" type="curve" smooth="yes"/>
      <point x="602" y="742" type="line" smooth="yes"/>
      <point x="609" y="742"/>
      <point x="611" y="740"/>
      <point x="611" y="732" type="curve" smooth="yes"/>
      <point x="611" y="10" type="line" smooth="yes"/>
      <point x="611" y="3"/>
      <point x="608" y="0"/>
      <point x="602" y="0" type="curve" smooth="yes"/>
      <point x="575" y="0" type="line" smooth="yes"/>
      <point x="568" y="0"/>
      <point x="565" y="2"/>
      <point x="565" y="9" type="curve" smooth="yes"/>
      <point x="565" y="359" type="line" smooth="yes"/>
      <point x="565" y="364"/>
      <point x="563" y="366"/>
    </contour>
  </outline>
</glyph>
<glyph name="I" format="1">
  <advance width="274"/>
  <unicode hex="0049"/>
  <outline>
    <contour>
      <point x="0" y="0" type="move" name="Anchor-5"/>
    </contour>
    <contour>
      <point x="140" y="742" type="move" name="Anchor-4"/>
    </contour>
    <contour>
      <point x="149" y="10" type="move" name="Anchor-3"/>
    </contour>
    <contour>
      <point x="137" y="0" type="move" name="Anchor-2"/>
    </contour>
    <contour>
      <point x="123" y="742" type="curve" smooth="yes"/>
      <point x="151" y="742" type="line" smooth="yes"/>
      <point x="158" y="742"/>
      <point x="160" y="740"/>
      <point x="160" y="732" type="curve" smooth="yes"/>
      <point x="160" y="12" type="line" smooth="yes"/>
      <point x="160" y="2"/>
      <point x="158" y="0"/>
      <point x="148" y="0" type="curve" smooth="yes"/>
      <point x="125" y="0" type="line" smooth="yes"/>
      <point x="116" y="0"/>
      <point x="114" y="2"/>
      <point x="114" y="10" type="curve" smooth="yes"/>
      <point x="114" y="732" type="line" smooth="yes"/>
      <point x="114" y="740"/>
      <point x="116" y="742"/>
    </contour>
  </outline>
</glyph>
<glyph name="J" format="1">
  <advance width="399"/>
  <unicode hex="004A"/>
  <outline>
    <contour>
      <point x="0" y="0" type="move" name="Anchor-5"/>
    </contour>
    <contour>
      <point x="266" y="742" type="move" name="Anchor-4"/>
    </contour>
    <contour>
      <point x="0" y="0" type="move" name="Anchor-3"/>
    </contour>
    <contour>
      <point x="0" y="0" type="move" name="Anchor-2"/>
    </contour>
    <contour>
      <point x="289" y="144" type="line" smooth="yes"/>
      <point x="289" y="49"/>
      <point x="255" y="-10"/>
      <point x="158" y="-10" type="curve" smooth="yes"/>
      <point x="103" y="-10"/>
      <point x="58" y="10"/>
      <point x="51" y="15" type="curve" smooth="yes"/>
      <point x="48" y="17"/>
      <point x="46" y="20"/>
      <point x="47" y="24" type="curve" smooth="yes"/>
      <point x="56" y="55" type="line" smooth="yes"/>
      <point x="57" y="60"/>
      <point x="60" y="61"/>
      <point x="64" y="59" type="curve" smooth="yes"/>
      <point x="85" y="49"/>
      <point x="107" y="34"/>
      <point x="156" y="34" type="curve" smooth="yes"/>
      <point x="221" y="34"/>
      <point x="243" y="61"/>
      <point x="243" y="154" type="curve" smooth="yes"/>
      <point x="243" y="733" type="line" smooth="yes"/>
      <point x="243" y="739"/>
      <point x="245" y="742"/>
      <point x="251" y="742" type="curve" smooth="yes"/>
      <point x="281" y="742" type="line" smooth="yes"/>
      <point x="287" y="742"/>
      <point x="289" y="739"/>
      <point x="289" y="732" type="curve" smooth="yes"/>
    </contour>
  </outline>
</glyph>
<glyph name="K" format="1">
  <advance width="674"/>
  <unicode hex="004B"/>
  <outline>
    <contour>
      <point x="0" y="0" type="move" name="Anchor-5"/>
    </contour>
    <contour>
      <point x="373" y="742" type="move" name="Anchor-4"/>
    </contour>
    <contour>
      <point x="0" y="0" type="move" name="Anchor-3"/>
    </contour>
    <contour>
      <point x="343" y="0" type="move" name="Anchor-2"/>
    </contour>
    <contour>
      <point x="623" y="7" type="line" smooth="yes"/>
      <point x="626" y="3"/>
      <point x="624" y="0"/>
      <point x="620" y="0" type="curve" smooth="yes"/>
      <point x="581" y="0" type="line" smooth="yes"/>
      <point x="576" y="0"/>
      <point x="572" y="2"/>
      <point x="570" y="5" type="curve" smooth="yes"/>
      <point x="312" y="409" type="line" smooth="yes"/>
      <point x="308" y="415"/>
      <point x="305" y="414"/>
      <point x="300" y="409" type="curve" smooth="yes"/>
      <point x="168" y="263" type="line" smooth="yes"/>
      <point x="162" y="257"/>
      <point x="160" y="254"/>
      <point x="160" y="246" type="curve" smooth="yes"/>
      <point x="160" y="9" type="line" smooth="yes"/>
      <point x="160" y="3"/>
      <point x="157" y="0"/>
      <point x="150" y="0" type="curve" smooth="yes"/>
      <point x="124" y="0" type="line" smooth="yes"/>
      <point x="117" y="0"/>
      <point x="114" y="2"/>
      <point x="114" y="9" type="curve" smooth="yes"/>
      <point x="114" y="734" type="line" smooth="yes"/>
      <point x="114" y="739"/>
      <point x="116" y="742"/>
      <point x="122" y="742" type="curve" smooth="yes"/>
      <point x="152" y="742" type="line" smooth="yes"/>
      <point x="157" y="742"/>
      <point x="160" y="740"/>
      <point x="160" y="734" type="curve" smooth="yes"/>
      <point x="160" y="323" type="line" smooth="yes"/>
      <point x="160" y="317"/>
      <point x="162" y="317"/>
      <point x="167" y="322" type="curve" smooth="yes"/>
      <point x="550" y="738" type="line" smooth="yes"/>
      <point x="553" y="741"/>
      <point x="555" y="742"/>
      <point x="561" y="742" type="curve" smooth="yes"/>
      <point x="599" y="742" type="line" smooth="yes"/>
      <point x="605" y="742"/>
      <point x="606" y="738"/>
      <point x="602" y="734" type="curve" smooth="yes"/>
      <point x="343" y="451" type="line" smooth="yes"/>
      <point x="341" y="449"/>
      <point x="341" y="449"/>
      <point x="343" y="445" type="curve" smooth="yes"/>
    </contour>
  </outline>
</glyph>
<glyph name="M" format="1">
  <advance width="879"/>
  <unicode hex="004D"/>
  <outline>
    <contour>
      <point x="123" y="0" type="line" smooth="yes"/>
      <point x="116" y="0"/>
      <point x="114" y="3"/>
      <point x="114" y="10" type="curve" smooth="yes"/>
      <point x="114" y="732" type="line" smooth="yes"/>
      <point x="114" y="740"/>
      <point x="116" y="742"/>
      <point x="123" y="742" type="curve" smooth="yes"/>
      <point x="149" y="742" type="line" smooth="yes"/>
      <point x="157" y="742"/>
      <point x="160" y="740"/>
      <point x="162" y="734" type="curve" smooth="yes"/>
      <point x="429" y="64" type="line" smooth="yes"/>
      <point x="434" y="51"/>
      <point x="439" y="51"/>
      <point x="445" y="65" type="curve" smooth="yes"/>
      <point x="716" y="735" type="line" smooth="yes"/>
      <point x="718" y="740"/>
      <point x="721" y="742"/>
      <point x="727" y="742" type="curve" smooth="yes"/>
      <point x="756" y="742" type="line" smooth="yes"/>
      <point x="763" y="742"/>
      <point x="765" y="740"/>
      <point x="765" y="732" type="curve" smooth="yes"/>
      <point x="765" y="10" type="line" smooth="yes"/>
      <point x="765" y="3"/>
      <point x="762" y="0"/>
      <point x="756" y="0" type="curve" smooth="yes"/>
      <point x="729" y="0" type="line" smooth="yes"/>
      <point x="722" y="0"/>
      <point x="719" y="2"/>
      <point x="719" y="9" type="curve" smooth="yes"/>
      <point x="719" y="627" type="line" smooth="yes"/>
      <point x="719" y="632"/>
      <point x="717" y="630"/>
      <point x="716" y="627" type="curve" smooth="yes"/>
      <point x="467" y="11" type="line" smooth="yes"/>
      <point x="464" y="3"/>
      <point x="460" y="0"/>
      <point x="451" y="0" type="curve" smooth="yes"/>
      <point x="424" y="0" type="line" smooth="yes"/>
      <point x="413" y="0"/>
      <point x="408" y="3"/>
      <point x="405" y="10" type="curve" smooth="yes"/>
      <point x="161" y="622" type="line" smooth="yes"/>
      <point x="160" y="625"/>
      <point x="158" y="626"/>
      <point x="158" y="622" type="curve" smooth="yes"/>
      <point x="158" y="9" type="line" smooth="yes"/>
      <point x="158" y="3"/>
      <point x="155" y="0"/>
      <point x="148" y="0" type="curve" smooth="yes"/>
    </contour>
  </outline>
</glyph>
<glyph name="O" format="1">
  <advance width="758"/>
  <unicode hex="004F"/>
  <outline>
    <contour>
      <point x="517" y="742" type="move" name="Anchor-5"/>
    </contour>
    <contour>
      <point x="381" y="742" type="move" name="Anchor-4"/>
    </contour>
    <contour>
      <point x="451" y="9" type="move" name="Anchor-3"/>
    </contour>
    <contour>
      <point x="381" y="0" type="move" name="Anchor-2"/>
    </contour>
    <contour>
      <point x="379" y="-10" type="curve" smooth="yes"/>
      <point x="190" y="-10"/>
      <point x="78" y="121"/>
      <point x="78" y="367" type="curve" smooth="yes"/>
      <point x="78" y="617"/>
      <point x="192" y="752"/>
      <point x="380" y="752" type="curve" smooth="yes"/>
      <point x="567" y="752"/>
      <point x="680" y="618"/>
      <point x="680" y="369" type="curve" smooth="yes"/>
      <point x="680" y="122"/>
      <point x="567" y="-10"/>
    </contour>
    <contour>
      <point x="381" y="32" type="curve" smooth="yes"/>
      <point x="546" y="32"/>
      <point x="632" y="142"/>
      <point x="632" y="369" type="curve" smooth="yes"/>
      <point x="632" y="598"/>
      <point x="544" y="710"/>
      <point x="380" y="710" type="curve" smooth="yes"/>
      <point x="215" y="710"/>
      <point x="126" y="597"/>
      <point x="126" y="369" type="curve" smooth="yes"/>
      <point x="126" y="143"/>
      <point x="215" y="32"/>
    </contour>
  </outline>
</glyph>
<glyph name="P" format="1">
  <advance width="674"/>
  <unicode hex="0050"/>
  <outline>
    <contour>
      <point x="611" y="535" type="curve" smooth="yes"/>
      <point x="611" y="387"/>
      <point x="502" y="327"/>
      <point x="351" y="327" type="curve" smooth="yes"/>
      <point x="168" y="327" type="line" smooth="yes"/>
      <point x="162" y="327"/>
      <point x="160" y="324"/>
      <point x="160" y="318" type="curve" smooth="yes"/>
      <point x="160" y="9" type="line" smooth="yes"/>
      <point x="160" y="3"/>
      <point x="157" y="0"/>
      <point x="152" y="0" type="curve" smooth="yes"/>
      <point x="122" y="0" type="line" smooth="yes"/>
      <point x="117" y="0"/>
      <point x="114" y="3"/>
      <point x="114" y="8" type="curve" smooth="yes"/>
      <point x="114" y="732" type="line" smooth="yes"/>
      <point x="114" y="740"/>
      <point x="116" y="742"/>
      <point x="123" y="742" type="curve" smooth="yes"/>
      <point x="345" y="742" type="line" smooth="yes"/>
      <point x="500" y="742"/>
      <point x="611" y="684"/>
    </contour>
    <contour>
      <point x="563" y="538" type="curve" smooth="yes"/>
      <point x="563" y="662"/>
      <point x="479" y="702"/>
      <point x="344" y="702" type="curve" smooth="yes"/>
      <point x="169" y="702" type="line" smooth="yes"/>
      <point x="163" y="702"/>
      <point x="160" y="700"/>
      <point x="160" y="694" type="curve" smooth="yes"/>
      <point x="160" y="377" type="line" smooth="yes"/>
      <point x="160" y="370"/>
      <point x="162" y="367"/>
      <point x="167" y="367" type="curve" smooth="yes"/>
      <point x="351" y="367" type="line" smooth="yes"/>
      <point x="479" y="367"/>
      <point x="563" y="415"/>
    </contour>
  </outline>
</glyph>
<glyph name="Q" format="1">
  <advance width="758"/>
  <unicode hex="0051"/>
  <outline>
    <contour>
      <point x="78" y="369" type="curve" smooth="yes"/>
      <point x="78" y="620"/>
      <point x="191" y="752"/>
      <point x="379" y="752" type="curve" smooth="yes"/>
      <point x="567" y="752"/>
      <point x="680" y="620"/>
      <point x="680" y="369" type="curve" smooth="yes"/>
      <point x="680" y="189"/>
      <point x="624" y="83"/>
      <point x="527" y="25" type="curve" smooth="yes"/>
      <point x="522" y="22"/>
      <point x="521" y="20"/>
      <point x="521" y="16" type="curve" smooth="yes"/>
      <point x="521" y="-11"/>
      <point x="588" y="-70"/>
      <point x="663" y="-80" type="curve" smooth="yes"/>
      <point x="669" y="-81"/>
      <point x="670" y="-84"/>
      <point x="670" y="-87" type="curve" smooth="yes"/>
      <point x="670" y="-109" type="line" smooth="yes"/>
      <point x="670" y="-120"/>
      <point x="664" y="-122"/>
      <point x="650" y="-122" type="curve" smooth="yes"/>
      <point x="606" y="-122"/>
      <point x="540" y="-96"/>
      <point x="475" y="-5" type="curve" smooth="yes"/>
      <point x="472" y="-1"/>
      <point x="467" y="1"/>
      <point x="460" y="-1" type="curve" smooth="yes"/>
      <point x="435" y="-7"/>
      <point x="405" y="-10"/>
      <point x="379" y="-10" type="curve" smooth="yes"/>
      <point x="195" y="-10"/>
      <point x="78" y="116"/>
    </contour>
    <contour>
      <point x="126" y="367" type="curve" smooth="yes"/>
      <point x="126" y="141"/>
      <point x="215" y="32"/>
      <point x="379" y="32" type="curve" smooth="yes"/>
      <point x="543" y="32"/>
      <point x="632" y="141"/>
      <point x="632" y="369" type="curve" smooth="yes"/>
      <point x="632" y="592"/>
      <point x="546" y="710"/>
      <point x="379" y="710" type="curve" smooth="yes"/>
      <point x="212" y="710"/>
      <point x="126" y="592"/>
    </contour>
  </outline>
</glyph>
<glyph name="R" format="1">
  <advance width="679"/>
  <unicode hex="0052"/>
  <outline>
    <contour>
      <point x="0" y="0" type="move" name="Anchor-5"/>
    </contour>
    <contour>
      <point x="334" y="742" type="move" name="Anchor-4"/>
    </contour>
    <contour>
      <point x="0" y="0" type="move" name="Anchor-3"/>
    </contour>
    <contour>
      <point x="341" y="0" type="move" name="Anchor-2"/>
    </contour>
    <contour>
      <point x="599" y="14" type="line" smooth="yes"/>
      <point x="602" y="7"/>
      <point x="598" y="0"/>
      <point x="591" y="0" type="curve" smooth="yes"/>
      <point x="563" y="0" type="line" smooth="yes"/>
      <point x="556" y="0"/>
      <point x="554" y="3"/>
      <point x="551" y="9" type="curve" smooth="yes"/>
      <point x="409" y="345" type="line" smooth="yes"/>
      <point x="406" y="352"/>
      <point x="401" y="355"/>
      <point x="388" y="355" type="curve" smooth="yes"/>
      <point x="172" y="355" type="line" smooth="yes"/>
      <point x="163" y="355"/>
      <point x="160" y="351"/>
      <point x="160" y="344" type="curve" smooth="yes"/>
      <point x="160" y="11" type="line" smooth="yes"/>
      <point x="160" y="3"/>
      <point x="158" y="0"/>
      <point x="150" y="0" type="curve" smooth="yes"/>
      <point x="124" y="0" type="line" smooth="yes"/>
      <point x="116" y="0"/>
      <point x="114" y="3"/>
      <point x="114" y="9" type="curve" smooth="yes"/>
      <point x="114" y="732" type="line" smooth="yes"/>
      <point x="114" y="740"/>
      <point x="116" y="742"/>
      <point x="123" y="742" type="curve" smooth="yes"/>
      <point x="381" y="742" type="line" smooth="yes"/>
      <point x="525" y="742"/>
      <point x="609" y="680"/>
      <point x="609" y="558" type="curve" smooth="yes"/>
      <point x="609" y="435"/>
      <point x="526" y="384"/>
      <point x="457" y="366" type="curve" smooth="yes"/>
      <point x="453" y="365"/>
      <point x="452" y="362"/>
      <point x="453" y="359" type="curve" smooth="yes"/>
    </contour>
    <contour>
      <point x="346" y="395" type="line" smooth="yes"/>
      <point x="489" y="395"/>
      <point x="561" y="439"/>
      <point x="561" y="551" type="curve" smooth="yes"/>
      <point x="561" y="653"/>
      <point x="501" y="702"/>
      <point x="380" y="702" type="curve" smooth="yes"/>
      <point x="171" y="702" type="line" smooth="yes"/>
      <point x="163" y="702"/>
      <point x="160" y="700"/>
      <point x="160" y="694" type="curve" smooth="yes"/>
      <point x="160" y="404" type="line" smooth="yes"/>
      <point x="160" y="398"/>
      <point x="162" y="395"/>
      <point x="167" y="395" type="curve" smooth="yes"/>
    </contour>
  </outline>
</glyph>
<glyph name="S" format="1">
  <advance width="618"/>
  <unicode hex="0053"/>
  <outline>
    <contour>
      <point x="0" y="0" type="move" name="Anchor-5"/>
    </contour>
    <contour>
      <point x="319" y="742" type="move" name="Anchor-4"/>
    </contour>
    <contour>
      <point x="0" y="0" type="move" name="Anchor-3"/>
    </contour>
    <contour>
      <point x="323" y="0" type="move" name="Anchor-2"/>
    </contour>
    <contour>
      <point x="500" y="627" type="curve" smooth="yes"/>
      <point x="460" y="674"/>
      <point x="399" y="710"/>
      <point x="315" y="710" type="curve" smooth="yes"/>
      <point x="206" y="710"/>
      <point x="132" y="656"/>
      <point x="132" y="557" type="curve" smooth="yes"/>
      <point x="132" y="518"/>
      <point x="147" y="458"/>
      <point x="254" y="419" type="curve" smooth="yes"/>
      <point x="392" y="369" type="line" smooth="yes"/>
      <point x="510" y="326"/>
      <point x="553" y="266"/>
      <point x="553" y="182" type="curve" smooth="yes"/>
      <point x="553" y="60"/>
      <point x="460" y="-10"/>
      <point x="309" y="-10" type="curve" smooth="yes"/>
      <point x="198" y="-10"/>
      <point x="120" y="29"/>
      <point x="61" y="113" type="curve" smooth="yes"/>
      <point x="56" y="120"/>
      <point x="57" y="126"/>
      <point x="67" y="133" type="curve" smooth="yes"/>
      <point x="78" y="141" type="line" smooth="yes"/>
      <point x="88" y="148"/>
      <point x="93" y="147"/>
      <point x="98" y="141" type="curve" smooth="yes"/>
      <point x="154" y="69"/>
      <point x="202" y="32"/>
      <point x="309" y="32" type="curve" smooth="yes"/>
      <point x="428" y="32"/>
      <point x="507" y="73"/>
      <point x="507" y="180" type="curve" smooth="yes"/>
      <point x="507" y="239"/>
      <point x="484" y="280"/>
      <point x="375" y="322" type="curve" smooth="yes"/>
      <point x="224" y="380" type="line" smooth="yes"/>
      <point x="116" y="421"/>
      <point x="86" y="492"/>
      <point x="86" y="556" type="curve" smooth="yes"/>
      <point x="86" y="681"/>
      <point x="181" y="752"/>
      <point x="318" y="752" type="curve" smooth="yes"/>
      <point x="411" y="752"/>
      <point x="478" y="716"/>
      <point x="535" y="656" type="curve" smooth="yes"/>
      <point x="539" y="652"/>
      <point x="541" y="647"/>
      <point x="535" y="642" type="curve" smooth="yes"/>
      <point x="513" y="622" type="line" smooth="yes"/>
      <point x="508" y="618"/>
      <point x="506" y="620"/>
    </contour>
  </outline>
</glyph>
<glyph name="T" format="1">
  <advance width="623"/>
  <unicode hex="0054"/>
  <outline>
    <contour>
      <point x="0" y="0" type="move" name="Anchor-5"/>
    </contour>
    <contour>
      <point x="323" y="742" type="move" name="Anchor-4"/>
    </contour>
    <contour>
      <point x="0" y="0" type="move" name="Anchor-3"/>
    </contour>
    <contour>
      <point x="323" y="0" type="move" name="Anchor-2"/>
    </contour>
    <contour>
      <point x="47" y="709" type="curve" smooth="yes"/>
      <point x="47" y="735" type="line" smooth="yes"/>
      <point x="47" y="740"/>
      <point x="49" y="742"/>
      <point x="54" y="742" type="curve" smooth="yes"/>
      <point x="569" y="742" type="line" smooth="yes"/>
      <point x="574" y="742"/>
      <point x="576" y="740"/>
      <point x="576" y="735" type="curve" smooth="yes"/>
      <point x="576" y="709" type="line" smooth="yes"/>
      <point x="576" y="703"/>
      <point x="574" y="702"/>
      <point x="568" y="702" type="curve" smooth="yes"/>
      <point x="355" y="702" type="line" smooth="yes"/>
      <point x="347" y="702"/>
      <point x="345" y="701"/>
      <point x="345" y="693" type="curve" smooth="yes"/>
      <point x="345" y="10" type="line" smooth="yes"/>
      <point x="345" y="2"/>
      <point x="343" y="0"/>
      <point x="336" y="0" type="curve" smooth="yes"/>
      <point x="309" y="0" type="line" smooth="yes"/>
      <point x="301" y="0"/>
      <point x="299" y="2"/>
      <point x="299" y="10" type="curve" smooth="yes"/>
      <point x="299" y="693" type="line" smooth="yes"/>
      <point x="299" y="701"/>
      <point x="297" y="702"/>
      <point x="289" y="702" type="curve" smooth="yes"/>
      <point x="55" y="702" type="line" smooth="yes"/>
      <point x="49" y="702"/>
      <point x="47" y="703"/>
    </contour>
  </outline>
</glyph>
<glyph name="U" format="1">
  <advance width="702"/>
  <unicode hex="0055"/>
  <outline>
    <contour>
      <point x="632" y="742" type="move" name="Anchor-5"/>
    </contour>
    <contour>
      <point x="355" y="742" type="move" name="Anchor-4"/>
    </contour>
    <contour>
      <point x="423" y="9" type="move" name="Anchor-3"/>
    </contour>
    <contour>
      <point x="351" y="0" type="move" name="Anchor-2"/>
    </contour>
    <contour>
      <point x="598" y="230" type="line" smooth="yes"/>
      <point x="598" y="69"/>
      <point x="517" y="-10"/>
      <point x="351" y="-10" type="curve" smooth="yes"/>
      <point x="183" y="-10"/>
      <point x="104" y="71"/>
      <point x="104" y="245" type="curve" smooth="yes"/>
      <point x="104" y="731" type="line" smooth="yes"/>
      <point x="104" y="739"/>
      <point x="106" y="742"/>
      <point x="112" y="742" type="curve" smooth="yes"/>
      <point x="140" y="742" type="line" smooth="yes"/>
      <point x="148" y="742"/>
      <point x="150" y="740"/>
      <point x="150" y="732" type="curve" smooth="yes"/>
      <point x="150" y="226" type="line" smooth="yes"/>
      <point x="150" y="96"/>
      <point x="217" y="32"/>
      <point x="353" y="32" type="curve" smooth="yes"/>
      <point x="491" y="32"/>
      <point x="558" y="97"/>
      <point x="558" y="229" type="curve" smooth="yes"/>
      <point x="558" y="733" type="line" smooth="yes"/>
      <point x="558" y="739"/>
      <point x="560" y="742"/>
      <point x="566" y="742" type="curve" smooth="yes"/>
      <point x="590" y="742" type="line" smooth="yes"/>
      <point x="596" y="742"/>
      <point x="598" y="739"/>
      <point x="598" y="733" type="curve" smooth="yes"/>
    </contour>
  </outline>
</glyph>
<glyph name="V" format="1">
  <advance width="690"/>
  <unicode hex="0056"/>
  <outline>
    <contour>
      <point x="630" y="742" type="line" smooth="yes"/>
      <point x="636" y="742"/>
      <point x="639" y="738"/>
      <point x="637" y="733" type="curve" smooth="yes"/>
      <point x="375" y="11" type="line" smooth="yes"/>
      <point x="372" y="3"/>
      <point x="368" y="0"/>
      <point x="359" y="0" type="curve" smooth="yes"/>
      <point x="327" y="0" type="line" smooth="yes"/>
      <point x="316" y="0"/>
      <point x="310" y="3"/>
      <point x="308" y="10" type="curve" smooth="yes"/>
      <point x="53" y="732" type="line" smooth="yes"/>
      <point x="51" y="738"/>
      <point x="54" y="742"/>
      <point x="61" y="742" type="curve" smooth="yes"/>
      <point x="84" y="742" type="line" smooth="yes"/>
      <point x="92" y="742"/>
      <point x="95" y="740"/>
      <point x="97" y="734" type="curve" smooth="yes"/>
      <point x="334" y="64" type="line" smooth="yes"/>
      <point x="339" y="51"/>
      <point x="345" y="51"/>
      <point x="350" y="65" type="curve" smooth="yes"/>
      <point x="594" y="735" type="line" smooth="yes"/>
      <point x="596" y="740"/>
      <point x="599" y="742"/>
      <point x="605" y="742" type="curve" smooth="yes"/>
    </contour>
  </outline>
</glyph>
<glyph name="Z" format="1">
  <advance width="600"/>
  <unicode hex="005A"/>
  <outline>
    <contour>
      <point x="0" y="0" type="move" name="Anchor-5"/>
    </contour>
    <contour>
      <point x="305" y="742" type="move" name="Anchor-4"/>
    </contour>
    <contour>
      <point x="0" y="0" type="move" name="Anchor-3"/>
    </contour>
    <contour>
      <point x="312" y="0" type="move" name="Anchor-2"/>
    </contour>
    <contour>
      <point x="63" y="0" type="line" smooth="yes"/>
      <point x="57" y="0"/>
      <point x="55" y="2"/>
      <point x="55" y="7" type="curve" smooth="yes"/>
      <point x="55" y="22" type="line" smooth="yes"/>
      <point x="55" y="28"/>
      <point x="57" y="32"/>
      <point x="62" y="39" type="curve" smooth="yes"/>
      <point x="482" y="695" type="line" smooth="yes"/>
      <point x="485" y="700"/>
      <point x="483" y="702"/>
      <point x="478" y="702" type="curve" smooth="yes"/>
      <point x="72" y="702" type="line" smooth="yes"/>
      <point x="67" y="702"/>
      <point x="65" y="704"/>
      <point x="65" y="709" type="curve" smooth="yes"/>
      <point x="65" y="736" type="line" smooth="yes"/>
      <point x="65" y="740"/>
      <point x="67" y="742"/>
      <point x="71" y="742" type="curve" smooth="yes"/>
      <point x="538" y="742" type="line" smooth="yes"/>
      <point x="542" y="742"/>
      <point x="544" y="740"/>
      <point x="544" y="736" type="curve" smooth="yes"/>
      <point x="544" y="719" type="line" smooth="yes"/>
      <point x="544" y="714"/>
      <point x="542" y="712"/>
      <point x="539" y="707" type="curve" smooth="yes"/>
      <point x="115" y="48" type="line" smooth="yes"/>
      <point x="112" y="43"/>
      <point x="113" y="40"/>
      <point x="117" y="40" type="curve" smooth="yes"/>
      <point x="538" y="40" type="line" smooth="yes"/>
      <point x="542" y="40"/>
      <point x="544" y="39"/>
      <point x="544" y="35" type="curve" smooth="yes"/>
      <point x="544" y="7" type="line" smooth="yes"/>
      <point x="544" y="3"/>
      <point x="542" y="0"/>
      <point x="537" y="0" type="curve" smooth="yes"/>
    </contour>
  </outline>
</glyph>
<glyph name="bracketleft" format="1">
  <advance width="268"/>
  <unicode hex="005B"/>
  <outline>
    <contour>
      <point x="106" y="736" type="line" smooth="yes"/>
      <point x="106" y="740"/>
      <point x="108" y="742"/>
      <point x="114" y="742" type="curve" smooth="yes"/>
      <point x="246" y="742" type="line" smooth="yes"/>
      <point x="251" y="742"/>
      <point x="253" y="741"/>
      <point x="253" y="737" type="curve" smooth="yes"/>
      <point x="253" y="711" type="line" smooth="yes"/>
      <point x="253" y="707"/>
      <point x="250" y="705"/>
      <point x="246" y="705" type="curve" smooth="yes"/>
      <point x="157" y="705" type="line" smooth="yes"/>
      <point x="152" y="705"/>
      <point x="150" y="702"/>
      <point x="150" y="697" type="curve" smooth="yes"/>
      <point x="149" y="-122" type="line" smooth="yes"/>
      <point x="149" y="-127"/>
      <point x="150" y="-128"/>
      <point x="155" y="-128" type="curve" smooth="yes"/>
      <point x="244" y="-128" type="line" smooth="yes"/>
      <point x="249" y="-128"/>
      <point x="252" y="-131"/>
      <point x="252" y="-136" type="curve" smooth="yes"/>
      <point x="252" y="-157" type="line" smooth="yes"/>
      <point x="252" y="-163"/>
      <point x="250" y="-165"/>
      <point x="244" y="-165" type="curve" smooth="yes"/>
      <point x="116" y="-165" type="line" smooth="yes"/>
      <point x="110" y="-165"/>
      <point x="107" y="-162"/>
      <point x="107" y="-157" type="curve" smooth="yes"/>
    </contour>
  </outline>
</glyph>
<glyph name="backslash" format="1">
  <advance width="328"/>
  <unicode hex="005C"/>
  <outline>
    <contour>
      <point x="276" y="-60" type="line" smooth="yes"/>
      <point x="271" y="-60"/>
      <point x="267" y="-58"/>
      <point x="265" y="-52" type="curve" smooth="yes"/>
      <point x="17" y="732" type="line" smooth="yes"/>
      <point x="15" y="739"/>
      <point x="16" y="742"/>
      <point x="22" y="742" type="curve" smooth="yes"/>
      <point x="51" y="742" type="line" smooth="yes"/>
      <point x="55" y="742"/>
      <point x="58" y="740"/>
      <point x="59" y="736" type="curve" smooth="yes"/>
      <point x="310" y="-55" type="line" smooth="yes"/>
      <point x="311" y="-58"/>
      <point x="310" y="-60"/>
      <point x="305" y="-60" type="curve" smooth="yes"/>
    </contour>
  </outline>
</glyph>
<glyph name="bracketright" format="1">
  <advance width="268"/>
  <unicode hex="005D"/>
  <outline>
    <contour>
      <point x="162" y="736" type="curve" smooth="yes"/>
      <point x="161" y="-157" type="line" smooth="yes"/>
      <point x="161" y="-162"/>
      <point x="158" y="-165"/>
      <point x="152" y="-165" type="curve" smooth="yes"/>
      <point x="24" y="-165" type="line" smooth="yes"/>
      <point x="18" y="-165"/>
      <point x="16" y="-163"/>
      <point x="16" y="-157" type="curve" smooth="yes"/>
      <point x="16" y="-136" type="line" smooth="yes"/>
      <point x="16" y="-131"/>
      <point x="19" y="-128"/>
      <point x="24" y="-128" type="curve" smooth="yes"/>
      <point x="113" y="-128" type="line" smooth="yes"/>
      <point x="118" y="-128"/>
      <point x="119" y="-127"/>
      <point x="119" y="-122" type="curve" smooth="yes"/>
      <point x="118" y="697" type="line" smooth="yes"/>
      <point x="118" y="702"/>
      <point x="116" y="705"/>
      <point x="111" y="705" type="curve" smooth="yes"/>
      <point x="22" y="705" type="line" smooth="yes"/>
      <point x="18" y="705"/>
      <point x="15" y="707"/>
      <point x="15" y="711" type="curve" smooth="yes"/>
      <point x="15" y="737" type="line" smooth="yes"/>
      <point x="15" y="741"/>
      <point x="17" y="742"/>
      <point x="22" y="742" type="curve" smooth="yes"/>
      <point x="154" y="742" type="line" smooth="yes"/>
      <point x="160" y="742"/>
      <point x="162" y="740"/>
    </contour>
  </outline>
</glyph>
<glyph name="asciicircum" format="1">
  <advance width="476"/>
  <unicode hex="005E"/>
  <outline>
    <contour>
      <point x="366" y="145" type="curve" smooth="yes"/>
      <point x="242" y="462" type="line" smooth="yes"/>
      <point x="239" y="468"/>
      <point x="234" y="468"/>
      <point x="232" y="462" type="curve" smooth="yes"/>
      <point x="107" y="146" type="line" smooth="yes"/>
      <point x="105" y="141"/>
      <point x="102" y="139"/>
      <point x="97" y="139" type="curve" smooth="yes"/>
      <point x="66" y="139" type="line" smooth="yes"/>
      <point x="61" y="139"/>
      <point x="58" y="143"/>
      <point x="61" y="149" type="curve" smooth="yes"/>
      <point x="203" y="504" type="line" smooth="yes"/>
      <point x="212" y="527"/>
      <point x="225" y="540"/>
      <point x="237" y="540" type="curve" smooth="yes"/>
      <point x="249" y="540"/>
      <point x="261" y="528"/>
      <point x="271" y="504" type="curve" smooth="yes"/>
      <point x="415" y="146" type="line" smooth="yes"/>
      <point x="417" y="140"/>
      <point x="415" y="137"/>
      <point x="409" y="137" type="curve" smooth="yes"/>
      <point x="379" y="137" type="line" smooth="yes"/>
      <point x="373" y="137"/>
      <point x="368" y="140"/>
    </contour>
  </outline>
</glyph>
<glyph name="underscore" format="1">
  <advance width="501"/>
  <unicode hex="005F"/>
  <outline>
    <contour>
      <point x="431" y="-67" type="curve" smooth="yes"/>
      <point x="431" y="-93" type="line" smooth="yes"/>
      <point x="431" y="-99"/>
      <point x="428" y="-101"/>
      <point x="421" y="-101" type="curve" smooth="yes"/>
      <point x="78" y="-102" type="line" smooth="yes"/>
      <point x="72" y="-102"/>
      <point x="70" y="-100"/>
      <point x="70" y="-95" type="curve" smooth="yes"/>
      <point x="70" y="-69" type="line" smooth="yes"/>
      <point x="70" y="-64"/>
      <point x="72" y="-62"/>
      <point x="75" y="-62" type="curve" smooth="yes"/>
      <point x="424" y="-61" type="line" smooth="yes"/>
      <point x="428" y="-61"/>
      <point x="431" y="-63"/>
    </contour>
  </outline>
</glyph>
<glyph name="grave" format="1">
  <advance width="272"/>
  <unicode hex="0060"/>
  <outline>
    <contour>
      <point x="21" y="748" type="line" smooth="yes"/>
      <point x="22" y="751"/>
      <point x="26" y="752"/>
      <point x="29" y="751" type="curve" smooth="yes"/>
      <point x="258" y="660" type="line" smooth="yes"/>
      <point x="261" y="659"/>
      <point x="263" y="655"/>
      <point x="261" y="650" type="curve" smooth="yes"/>
      <point x="256" y="635" type="line" smooth="yes"/>
      <point x="254" y="629"/>
      <point x="251" y="628"/>
      <point x="245" y="630" type="curve" smooth="yes"/>
      <point x="18" y="704" type="line" smooth="yes"/>
      <point x="10" y="707"/>
      <point x="9" y="710"/>
      <point x="11" y="716" type="curve" smooth="yes"/>
    </contour>
  </outline>
</glyph>
<glyph name="b" format="1">
  <advance width="592"/>
  <unicode hex="0062"/>
  <outline>
    <contour>
      <point x="113" y="0" type="curve" smooth="yes"/>
      <point x="102" y="0" type="line" smooth="yes"/>
      <point x="94" y="0"/>
      <point x="91" y="3"/>
      <point x="91" y="13" type="curve" smooth="yes"/>
      <point x="91" y="732" type="line" smooth="yes"/>
      <point x="91" y="739"/>
      <point x="94" y="742"/>
      <point x="101" y="742" type="curve" smooth="yes"/>
      <point x="121" y="742" type="line" smooth="yes"/>
      <point x="128" y="742"/>
      <point x="131" y="739"/>
      <point x="131" y="732" type="curve" smooth="yes"/>
      <point x="131" y="478" type="line" smooth="yes"/>
      <point x="131" y="465"/>
      <point x="135" y="465"/>
      <point x="144" y="473" type="curve" smooth="yes"/>
      <point x="154" y="482"/>
      <point x="210" y="540"/>
      <point x="316" y="540" type="curve" smooth="yes"/>
      <point x="469" y="540"/>
      <point x="533" y="416"/>
      <point x="533" y="267" type="curve" smooth="yes"/>
      <point x="533" y="96"/>
      <point x="449" y="-10"/>
      <point x="305" y="-10" type="curve" smooth="yes"/>
      <point x="202" y="-10"/>
      <point x="152" y="50"/>
      <point x="140" y="67" type="curve" smooth="yes"/>
      <point x="135" y="74"/>
      <point x="130" y="73"/>
      <point x="130" y="64" type="curve" smooth="yes"/>
      <point x="128" y="13" type="line" smooth="yes"/>
      <point x="128" y="3"/>
      <point x="125" y="0"/>
    </contour>
    <contour>
      <point x="131" y="415" type="curve"/>
      <point x="131" y="177" type="line" smooth="yes"/>
      <point x="131" y="96"/>
      <point x="217" y="28"/>
      <point x="301" y="28" type="curve" smooth="yes"/>
      <point x="405" y="28"/>
      <point x="490" y="103"/>
      <point x="490" y="267" type="curve" smooth="yes"/>
      <point x="490" y="409"/>
      <point x="427" y="502"/>
      <point x="309" y="502" type="curve" smooth="yes"/>
      <point x="235" y="502"/>
      <point x="171" y="463"/>
    </contour>
  </outline>
</glyph>
<glyph name="e" format="1">
  <advance width="577"/>
  <unicode hex="0065"/>
  <outline>
    <contour>
      <point x="0" y="0" type="move" name="Anchor-5"/>
    </contour>
    <contour>
      <point x="297" y="530" type="move" name="Anchor-4"/>
    </contour>
    <contour>
      <point x="393" y="18" type="move" name="Anchor-3"/>
    </contour>
    <contour>
      <point x="300" y="0" type="move" name="Anchor-2"/>
    </contour>
    <contour>
      <point x="98" y="240" type="curve" smooth="yes"/>
      <point x="98" y="127"/>
      <point x="187" y="28"/>
      <point x="299" y="28" type="curve" smooth="yes"/>
      <point x="379" y="28"/>
      <point x="438" y="61"/>
      <point x="474" y="121" type="curve" smooth="yes"/>
      <point x="478" y="127"/>
      <point x="481" y="128"/>
      <point x="485" y="125" type="curve" smooth="yes"/>
      <point x="508" y="110" type="line" smooth="yes"/>
      <point x="511" y="108"/>
      <point x="512" y="104"/>
      <point x="509" y="100" type="curve" smooth="yes"/>
      <point x="463" y="27"/>
      <point x="393" y="-10"/>
      <point x="299" y="-10" type="curve" smooth="yes"/>
      <point x="155" y="-10"/>
      <point x="56" y="100"/>
      <point x="56" y="261" type="curve" smooth="yes"/>
      <point x="56" y="436"/>
      <point x="158" y="540"/>
      <point x="299" y="540" type="curve" smooth="yes"/>
      <point x="440" y="540"/>
      <point x="528" y="442"/>
      <point x="528" y="274" type="curve" smooth="yes"/>
      <point x="528" y="266"/>
      <point x="530" y="254"/>
      <point x="515" y="254" type="curve" smooth="yes"/>
      <point x="104" y="254" type="line" smooth="yes"/>
      <point x="100" y="254"/>
      <point x="98" y="247"/>
    </contour>
    <contour>
      <point x="99" y="290" type="curve"/>
      <point x="469" y="290" type="line" smooth="yes"/>
      <point x="483" y="290"/>
      <point x="486" y="293"/>
      <point x="486" y="304" type="curve" smooth="yes"/>
      <point x="486" y="414"/>
      <point x="414" y="502"/>
      <point x="298" y="502" type="curve" smooth="yes"/>
      <point x="166" y="502"/>
      <point x="98" y="390"/>
    </contour>
  </outline>
</glyph>
<glyph name="i" format="1">
  <advance width="222"/>
  <unicode hex="0069"/>
  <outline>
    <contour>
      <point x="136" y="729" type="curve" smooth="yes"/>
      <point x="136" y="660" type="line" smooth="yes"/>
      <point x="136" y="650"/>
      <point x="134" y="644"/>
      <point x="124" y="644" type="curve" smooth="yes"/>
      <point x="97" y="644" type="line" smooth="yes"/>
      <point x="88" y="644"/>
      <point x="86" y="650"/>
      <point x="86" y="658" type="curve" smooth="yes"/>
      <point x="86" y="729" type="line" smooth="yes"/>
      <point x="86" y="737"/>
      <point x="91" y="742"/>
      <point x="98" y="742" type="curve" smooth="yes"/>
      <point x="124" y="742" type="line" smooth="yes"/>
      <point x="131" y="742"/>
      <point x="136" y="737"/>
    </contour>
    <contour>
      <point x="131" y="520" type="curve" smooth="yes"/>
      <point x="131" y="12" type="line" smooth="yes"/>
      <point x="131" y="2"/>
      <point x="129" y="0"/>
      <point x="119" y="0" type="curve" smooth="yes"/>
      <point x="102" y="0" type="line" smooth="yes"/>
      <point x="93" y="0"/>
      <point x="91" y="2"/>
      <point x="91" y="10" type="curve" smooth="yes"/>
      <point x="91" y="520" type="line" smooth="yes"/>
      <point x="91" y="528"/>
      <point x="93" y="530"/>
      <point x="100" y="530" type="curve" smooth="yes"/>
      <point x="122" y="530" type="line" smooth="yes"/>
      <point x="129" y="530"/>
      <point x="131" y="528"/>
    </contour>
  </outline>
</glyph>
<glyph name="j" format="1">
  <advance width="222"/>
  <unicode hex="006A"/>
  <outline>
    <contour>
      <point x="136" y="729" type="curve" smooth="yes"/>
      <point x="136" y="660" type="line" smooth="yes"/>
      <point x="136" y="650"/>
      <point x="134" y="644"/>
      <point x="124" y="644" type="curve" smooth="yes"/>
      <point x="97" y="644" type="line" smooth="yes"/>
      <point x="88" y="644"/>
      <point x="86" y="650"/>
      <point x="86" y="658" type="curve" smooth="yes"/>
      <point x="86" y="729" type="line" smooth="yes"/>
      <point x="86" y="737"/>
      <point x="91" y="742"/>
      <point x="98" y="742" type="curve" smooth="yes"/>
      <point x="124" y="742" type="line" smooth="yes"/>
      <point x="131" y="742"/>
      <point x="136" y="737"/>
    </contour>
    <contour>
      <point x="131" y="-51" type="line" smooth="yes"/>
      <point x="131" y="-133"/>
      <point x="109" y="-170"/>
      <point x="18" y="-170" type="curve" smooth="yes"/>
      <point x="-41" y="-170"/>
      <point x="-47" y="-169"/>
      <point x="-47" y="-161" type="curve" smooth="yes"/>
      <point x="-47" y="-140" type="line" smooth="yes"/>
      <point x="-47" y="-136"/>
      <point x="-45" y="-134"/>
      <point x="-41" y="-134" type="curve" smooth="yes"/>
      <point x="17" y="-133" type="line" smooth="yes"/>
      <point x="70" y="-132"/>
      <point x="91" y="-110"/>
      <point x="91" y="-46" type="curve" smooth="yes"/>
      <point x="91" y="520" type="line" smooth="yes"/>
      <point x="91" y="527"/>
      <point x="94" y="530"/>
      <point x="101" y="530" type="curve" smooth="yes"/>
      <point x="123" y="530" type="line" smooth="yes"/>
      <point x="129" y="530"/>
      <point x="131" y="527"/>
      <point x="131" y="520" type="curve" smooth="yes"/>
    </contour>
  </outline>
</glyph>
<glyph name="k" format="1">
  <advance width="538"/>
  <unicode hex="006B"/>
  <outline>
    <contour>
      <point x="0" y="0" type="move" name="Anchor-5"/>
    </contour>
    <contour>
      <point x="0" y="0" type="move" name="Anchor-4"/>
    </contour>
    <contour>
      <point x="0" y="0" type="move" name="Anchor-3"/>
    </contour>
    <contour>
      <point x="273" y="0" type="move" name="Anchor-2"/>
    </contour>
    <contour>
      <point x="504" y="12" type="line" smooth="yes"/>
      <point x="509" y="4"/>
      <point x="508" y="0"/>
      <point x="499" y="0" type="curve" smooth="yes"/>
      <point x="468" y="0" type="line" smooth="yes"/>
      <point x="462" y="0"/>
      <point x="459" y="2"/>
      <point x="456" y="7" type="curve" smooth="yes"/>
      <point x="274" y="299" type="line" smooth="yes"/>
      <point x="272" y="302"/>
      <point x="271" y="304"/>
      <point x="266" y="299" type="curve" smooth="yes"/>
      <point x="138" y="169" type="line" smooth="yes"/>
      <point x="133" y="164"/>
      <point x="131" y="159"/>
      <point x="131" y="152" type="curve" smooth="yes"/>
      <point x="131" y="12" type="line" smooth="yes"/>
      <point x="131" y="2"/>
      <point x="129" y="0"/>
      <point x="119" y="0" type="curve" smooth="yes"/>
      <point x="102" y="0" type="line" smooth="yes"/>
      <point x="93" y="0"/>
      <point x="91" y="2"/>
      <point x="91" y="10" type="curve" smooth="yes"/>
      <point x="91" y="732" type="line" smooth="yes"/>
      <point x="91" y="740"/>
      <point x="93" y="742"/>
      <point x="100" y="742" type="curve" smooth="yes"/>
      <point x="122" y="742" type="line" smooth="yes"/>
      <point x="129" y="742"/>
      <point x="131" y="740"/>
      <point x="131" y="732" type="curve" smooth="yes"/>
      <point x="131" y="234" type="line" smooth="yes"/>
      <point x="131" y="222"/>
      <point x="133" y="221"/>
      <point x="141" y="229" type="curve" smooth="yes"/>
      <point x="425" y="520" type="line" smooth="yes"/>
      <point x="432" y="528"/>
      <point x="435" y="530"/>
      <point x="442" y="530" type="curve" smooth="yes"/>
      <point x="474" y="530" type="line" smooth="yes"/>
      <point x="484" y="530"/>
      <point x="485" y="524"/>
      <point x="476" y="515" type="curve" smooth="yes"/>
      <point x="307" y="342" type="line" smooth="yes"/>
      <point x="304" y="339"/>
      <point x="303" y="336"/>
      <point x="306" y="331" type="curve" smooth="yes"/>
    </contour>
  </outline>
</glyph>
<glyph name="l" format="1">
  <advance width="222"/>
  <unicode hex="006C"/>
  <outline>
    <contour>
      <point x="256" y="742" type="move" name="Anchor-5"/>
    </contour>
    <contour>
      <point x="111" y="742" type="move" name="Anchor-4"/>
    </contour>
    <contour>
      <point x="0" y="0" type="move" name="Anchor-3"/>
    </contour>
    <contour>
      <point x="111" y="0" type="move" name="Anchor-2"/>
    </contour>
    <contour>
      <point x="131" y="732" type="curve" smooth="yes"/>
      <point x="131" y="12" type="line" smooth="yes"/>
      <point x="131" y="2"/>
      <point x="129" y="0"/>
      <point x="119" y="0" type="curve" smooth="yes"/>
      <point x="102" y="0" type="line" smooth="yes"/>
      <point x="93" y="0"/>
      <point x="91" y="2"/>
      <point x="91" y="10" type="curve" smooth="yes"/>
      <point x="91" y="732" type="line" smooth="yes"/>
      <point x="91" y="740"/>
      <point x="93" y="742"/>
      <point x="100" y="742" type="curve" smooth="yes"/>
      <point x="122" y="742" type="line" smooth="yes"/>
      <point x="129" y="742"/>
      <point x="131" y="740"/>
    </contour>
  </outline>
</glyph>
<glyph name="o" format="1">
  <advance width="598"/>
  <unicode hex="006F"/>
  <outline>
    <contour>
      <point x="429" y="530" type="move" name="Anchor-5"/>
    </contour>
    <contour>
      <point x="301" y="530" type="move" name="Anchor-4"/>
    </contour>
    <contour>
      <point x="363" y="10" type="move" name="Anchor-3"/>
    </contour>
    <contour>
      <point x="298" y="0" type="move" name="Anchor-2"/>
    </contour>
    <contour>
      <point x="299" y="-10" type="curve" smooth="yes"/>
      <point x="152" y="-10"/>
      <point x="56" y="101"/>
      <point x="56" y="262" type="curve" smooth="yes"/>
      <point x="56" y="425"/>
      <point x="154" y="540"/>
      <point x="300" y="540" type="curve" smooth="yes"/>
      <point x="445" y="540"/>
      <point x="542" y="426"/>
      <point x="542" y="264" type="curve" smooth="yes"/>
      <point x="542" y="102"/>
      <point x="445" y="-10"/>
    </contour>
    <contour>
      <point x="301" y="28" type="curve" smooth="yes"/>
      <point x="424" y="28"/>
      <point x="500" y="122"/>
      <point x="500" y="264" type="curve" smooth="yes"/>
      <point x="500" y="406"/>
      <point x="422" y="502"/>
      <point x="300" y="502" type="curve" smooth="yes"/>
      <point x="177" y="502"/>
      <point x="98" y="405"/>
      <point x="98" y="264" type="curve" smooth="yes"/>
      <point x="98" y="123"/>
      <point x="177" y="28"/>
    </contour>
  </outline>
</glyph>
<glyph name="q" format="1">
  <advance width="593"/>
  <unicode hex="0071"/>
  <outline>
    <contour>
      <point x="483" y="530" type="curve" smooth="yes"/>
      <point x="491" y="530" type="line" smooth="yes"/>
      <point x="499" y="530"/>
      <point x="502" y="527"/>
      <point x="502" y="517" type="curve" smooth="yes"/>
      <point x="502" y="-155" type="line" smooth="yes"/>
      <point x="502" y="-162"/>
      <point x="499" y="-165"/>
      <point x="493" y="-165" type="curve" smooth="yes"/>
      <point x="470" y="-165" type="line" smooth="yes"/>
      <point x="464" y="-165"/>
      <point x="462" y="-162"/>
      <point x="462" y="-154" type="curve" smooth="yes"/>
      <point x="462" y="34" type="line" smooth="yes"/>
      <point x="462" y="48"/>
      <point x="461" y="51"/>
      <point x="448" y="41" type="curve" smooth="yes"/>
      <point x="413" y="14"/>
      <point x="358" y="-10"/>
      <point x="291" y="-10" type="curve" smooth="yes"/>
      <point x="146" y="-10"/>
      <point x="58" y="102"/>
      <point x="58" y="268" type="curve" smooth="yes"/>
      <point x="58" y="431"/>
      <point x="142" y="540"/>
      <point x="289" y="540" type="curve" smooth="yes"/>
      <point x="400" y="540"/>
      <point x="438" y="487"/>
      <point x="454" y="473" type="curve" smooth="yes"/>
      <point x="460" y="467"/>
      <point x="463" y="468"/>
      <point x="464" y="476" type="curve" smooth="yes"/>
      <point x="468" y="517" type="line" smooth="yes"/>
      <point x="469" y="527"/>
      <point x="471" y="530"/>
    </contour>
    <contour>
      <point x="462" y="105" type="curve"/>
      <point x="462" y="353" type="line" smooth="yes"/>
      <point x="462" y="429"/>
      <point x="390" y="502"/>
      <point x="293" y="502" type="curve" smooth="yes"/>
      <point x="188" y="502"/>
      <point x="100" y="425"/>
      <point x="100" y="269" type="curve" smooth="yes"/>
      <point x="100" y="118"/>
      <point x="182" y="28"/>
      <point x="296" y="28" type="curve" smooth="yes"/>
      <point x="358" y="28"/>
      <point x="421" y="57"/>
    </contour>
  </outline>
</glyph>
<glyph name="r" format="1">
  <advance width="356"/>
  <unicode hex="0072"/>
  <outline>
    <contour>
      <point x="0" y="0" type="move" name="Anchor-5"/>
    </contour>
    <contour>
      <point x="203" y="530" type="move" name="Anchor-4"/>
    </contour>
    <contour>
      <point x="0" y="0" type="move" name="Anchor-3"/>
    </contour>
    <contour>
      <point x="111" y="0" type="move" name="Anchor-2"/>
    </contour>
    <contour>
      <point x="100" y="0" type="line" smooth="yes"/>
      <point x="94" y="0"/>
      <point x="91" y="3"/>
      <point x="91" y="9" type="curve" smooth="yes"/>
      <point x="91" y="521" type="line" smooth="yes"/>
      <point x="91" y="527"/>
      <point x="93" y="530"/>
      <point x="99" y="530" type="curve" smooth="yes"/>
      <point x="120" y="530" type="line" smooth="yes"/>
      <point x="126" y="530"/>
      <point x="128" y="528"/>
      <point x="128" y="522" type="curve" smooth="yes"/>
      <point x="128" y="454" type="line" smooth="yes"/>
      <point x="128" y="447"/>
      <point x="131" y="445"/>
      <point x="136" y="451" type="curve" smooth="yes"/>
      <point x="196" y="516"/>
      <point x="241" y="540"/>
      <point x="295" y="540" type="curve" smooth="yes"/>
      <point x="320" y="540"/>
      <point x="330" y="537"/>
      <point x="330" y="530" type="curve" smooth="yes"/>
      <point x="330" y="504" type="line" smooth="yes"/>
      <point x="330" y="501"/>
      <point x="328" y="499"/>
      <point x="325" y="499" type="curve" smooth="yes"/>
      <point x="320" y="499"/>
      <point x="312" y="500"/>
      <point x="295" y="500" type="curve" smooth="yes"/>
      <point x="231" y="500"/>
      <point x="131" y="432"/>
      <point x="131" y="365" type="curve" smooth="yes"/>
      <point x="131" y="9" type="line" smooth="yes"/>
      <point x="131" y="3"/>
      <point x="128" y="0"/>
      <point x="122" y="0" type="curve" smooth="yes"/>
    </contour>
  </outline>
</glyph>
<glyph name="s" format="1">
  <advance width="501"/>
  <unicode hex="0073"/>
  <outline>
    <contour>
      <point x="0" y="-2" type="move" name="Anchor-5"/>
    </contour>
    <contour>
      <point x="234" y="530" type="move" name="Anchor-4"/>
    </contour>
    <contour>
      <point x="0" y="-2" type="move" name="Anchor-3"/>
    </contour>
    <contour>
      <point x="242" y="0" type="move" name="Anchor-2"/>
    </contour>
    <contour>
      <point x="404" y="426" type="curve" smooth="yes"/>
      <point x="373" y="473"/>
      <point x="318" y="502"/>
      <point x="245" y="502" type="curve" smooth="yes"/>
      <point x="160" y="502"/>
      <point x="97" y="462"/>
      <point x="97" y="398" type="curve" smooth="yes"/>
      <point x="97" y="365"/>
      <point x="116" y="332"/>
      <point x="194" y="307" type="curve" smooth="yes"/>
      <point x="329" y="263" type="line" smooth="yes"/>
      <point x="407" y="238"/>
      <point x="445" y="192"/>
      <point x="445" y="135" type="curve" smooth="yes"/>
      <point x="445" y="49"/>
      <point x="357" y="-12"/>
      <point x="243" y="-12" type="curve" smooth="yes"/>
      <point x="146" y="-12"/>
      <point x="63" y="33"/>
      <point x="30" y="99" type="curve" smooth="yes"/>
      <point x="28" y="103"/>
      <point x="28" y="106"/>
      <point x="32" y="109" type="curve" smooth="yes"/>
      <point x="54" y="123" type="line" smooth="yes"/>
      <point x="57" y="125"/>
      <point x="61" y="125"/>
      <point x="63" y="122" type="curve" smooth="yes"/>
      <point x="98" y="62"/>
      <point x="159" y="26"/>
      <point x="243" y="26" type="curve" smooth="yes"/>
      <point x="333" y="26"/>
      <point x="403" y="68"/>
      <point x="403" y="130" type="curve" smooth="yes"/>
      <point x="403" y="175"/>
      <point x="369" y="208"/>
      <point x="285" y="233" type="curve" smooth="yes"/>
      <point x="182" y="265" type="line" smooth="yes"/>
      <point x="82" y="295"/>
      <point x="55" y="340"/>
      <point x="55" y="390" type="curve" smooth="yes"/>
      <point x="55" y="481"/>
      <point x="137" y="540"/>
      <point x="246" y="540" type="curve" smooth="yes"/>
      <point x="328" y="540"/>
      <point x="398" y="507"/>
      <point x="437" y="448" type="curve" smooth="yes"/>
      <point x="440" y="444"/>
      <point x="439" y="442"/>
      <point x="436" y="440" type="curve" smooth="yes"/>
      <point x="413" y="425" type="line" smooth="yes"/>
      <point x="410" y="423"/>
      <point x="406" y="423"/>
    </contour>
  </outline>
</glyph>
<glyph name="v" format="1">
  <advance width="530"/>
  <unicode hex="0076"/>
  <outline>
    <contour>
      <point x="490" y="530" type="line" smooth="yes"/>
      <point x="496" y="530"/>
      <point x="499" y="526"/>
      <point x="497" y="521" type="curve" smooth="yes"/>
      <point x="291" y="11" type="line" smooth="yes"/>
      <point x="288" y="3"/>
      <point x="282" y="0"/>
      <point x="273" y="0" type="curve" smooth="yes"/>
      <point x="259" y="0" type="line" smooth="yes"/>
      <point x="249" y="0"/>
      <point x="242" y="3"/>
      <point x="239" y="10" type="curve" smooth="yes"/>
      <point x="33" y="520" type="line" smooth="yes"/>
      <point x="31" y="526"/>
      <point x="34" y="530"/>
      <point x="41" y="530" type="curve" smooth="yes"/>
      <point x="63" y="530" type="line" smooth="yes"/>
      <point x="70" y="530"/>
      <point x="73" y="528"/>
      <point x="75" y="522" type="curve" smooth="yes"/>
      <point x="258" y="68" type="line" smooth="yes"/>
      <point x="263" y="55"/>
      <point x="268" y="55"/>
      <point x="274" y="69" type="curve" smooth="yes"/>
      <point x="457" y="523" type="line" smooth="yes"/>
      <point x="459" y="528"/>
      <point x="462" y="530"/>
      <point x="468" y="530" type="curve" smooth="yes"/>
    </contour>
  </outline>
</glyph>
<glyph name="x" format="1">
  <advance width="515"/>
  <unicode hex="0078"/>
  <outline>
    <contour>
      <point x="478" y="12" type="line" smooth="yes"/>
      <point x="485" y="3"/>
      <point x="483" y="0"/>
      <point x="476" y="0" type="curve" smooth="yes"/>
      <point x="442" y="0" type="line" smooth="yes"/>
      <point x="437" y="0"/>
      <point x="432" y="2"/>
      <point x="430" y="5" type="curve" smooth="yes"/>
      <point x="265" y="229" type="line" smooth="yes"/>
      <point x="260" y="236"/>
      <point x="256" y="236"/>
      <point x="251" y="229" type="curve" smooth="yes"/>
      <point x="78" y="5" type="line" smooth="yes"/>
      <point x="76" y="2"/>
      <point x="72" y="0"/>
      <point x="66" y="0" type="curve" smooth="yes"/>
      <point x="41" y="0" type="line" smooth="yes"/>
      <point x="33" y="0"/>
      <point x="28" y="3"/>
      <point x="36" y="14" type="curve" smooth="yes"/>
      <point x="230" y="259" type="line" smooth="yes"/>
      <point x="235" y="265"/>
      <point x="234" y="270"/>
      <point x="230" y="276" type="curve" smooth="yes"/>
      <point x="48" y="521" type="line" smooth="yes"/>
      <point x="45" y="525"/>
      <point x="47" y="530"/>
      <point x="53" y="530" type="curve" smooth="yes"/>
      <point x="84" y="530" type="line" smooth="yes"/>
      <point x="90" y="530"/>
      <point x="92" y="529"/>
      <point x="95" y="525" type="curve" smooth="yes"/>
      <point x="257" y="310" type="line" smooth="yes"/>
      <point x="261" y="304"/>
      <point x="266" y="303"/>
      <point x="271" y="310" type="curve" smooth="yes"/>
      <point x="429" y="525" type="line" smooth="yes"/>
      <point x="432" y="529"/>
      <point x="434" y="530"/>
      <point x="441" y="530" type="curve" smooth="yes"/>
      <point x="468" y="530" type="line" smooth="yes"/>
      <point x="474" y="530"/>
      <point x="475" y="526"/>
      <point x="472" y="522" type="curve" smooth="yes"/>
      <point x="290" y="281" type="line" smooth="yes"/>
      <point x="285" y="275"/>
      <point x="286" y="269"/>
      <point x="290" y="264" type="curve" smooth="yes"/>
    </contour>
  </outline>
</glyph>
<glyph name="z" format="1">
  <advance width="458"/>
  <unicode hex="007A"/>
  <outline>
    <contour>
      <point x="0" y="0" type="move" name="Anchor-5"/>
    </contour>
    <contour>
      <point x="244" y="530" type="move" name="Anchor-4"/>
    </contour>
    <contour>
      <point x="0" y="0" type="move" name="Anchor-3"/>
    </contour>
    <contour>
      <point x="0" y="0" type="move" name="Anchor-2"/>
    </contour>
    <contour>
      <point x="42" y="0" type="line" smooth="yes"/>
      <point x="37" y="0"/>
      <point x="36" y="2"/>
      <point x="36" y="7" type="curve" smooth="yes"/>
      <point x="36" y="30" type="line" smooth="yes"/>
      <point x="36" y="37"/>
      <point x="38" y="42"/>
      <point x="44" y="50" type="curve" smooth="yes"/>
      <point x="365" y="487" type="line" smooth="yes"/>
      <point x="369" y="492"/>
      <point x="367" y="495"/>
      <point x="362" y="495" type="curve" smooth="yes"/>
      <point x="65" y="495" type="line" smooth="yes"/>
      <point x="60" y="495"/>
      <point x="58" y="496"/>
      <point x="58" y="502" type="curve" smooth="yes"/>
      <point x="58" y="523" type="line" smooth="yes"/>
      <point x="58" y="528"/>
      <point x="60" y="530"/>
      <point x="64" y="530" type="curve" smooth="yes"/>
      <point x="408" y="530" type="line" smooth="yes"/>
      <point x="411" y="530"/>
      <point x="413" y="528"/>
      <point x="413" y="524" type="curve" smooth="yes"/>
      <point x="413" y="499" type="line" smooth="yes"/>
      <point x="413" y="491"/>
      <point x="411" y="484"/>
      <point x="406" y="478" type="curve" smooth="yes"/>
      <point x="85" y="42" type="line" smooth="yes"/>
      <point x="81" y="37"/>
      <point x="83" y="35"/>
      <point x="87" y="35" type="curve" smooth="yes"/>
      <point x="414" y="35" type="line" smooth="yes"/>
      <point x="418" y="35"/>
      <point x="420" y="33"/>
      <point x="420" y="29" type="curve" smooth="yes"/>
      <point x="420" y="8" type="line" smooth="yes"/>
      <point x="420" y="2"/>
      <point x="418" y="0"/>
      <point x="412" y="0" type="curve" smooth="yes"/>
    </contour>
  </outline>
</glyph>
<glyph name="braceleft" format="1">
  <advance width="267"/>
  <unicode hex="007B"/>
  <outline>
    <contour>
      <point x="116" y="652" type="line" smooth="yes"/>
      <point x="116" y="704"/>
      <point x="150" y="742"/>
      <point x="224" y="742" type="curve" smooth="yes"/>
      <point x="245" y="742" type="line" smooth="yes"/>
      <point x="250" y="742"/>
      <point x="252" y="741"/>
      <point x="252" y="737" type="curve" smooth="yes"/>
      <point x="252" y="711" type="line" smooth="yes"/>
      <point x="252" y="707"/>
      <point x="249" y="705"/>
      <point x="245" y="705" type="curve" smooth="yes"/>
      <point x="224" y="705" type="line" smooth="yes"/>
      <point x="178" y="705"/>
      <point x="160" y="689"/>
      <point x="160" y="652" type="curve" smooth="yes"/>
      <point x="160" y="419" type="line" smooth="yes"/>
      <point x="160" y="338"/>
      <point x="118" y="297"/>
      <point x="66" y="292" type="curve" smooth="yes"/>
      <point x="58" y="291"/>
      <point x="57" y="286"/>
      <point x="66" y="285" type="curve" smooth="yes"/>
      <point x="117" y="281"/>
      <point x="160" y="245"/>
      <point x="160" y="162" type="curve" smooth="yes"/>
      <point x="160" y="-73" type="line" smooth="yes"/>
      <point x="160" y="-111"/>
      <point x="175" y="-128"/>
      <point x="225" y="-128" type="curve" smooth="yes"/>
      <point x="244" y="-128" type="line" smooth="yes"/>
      <point x="249" y="-128"/>
      <point x="252" y="-131"/>
      <point x="252" y="-136" type="curve" smooth="yes"/>
      <point x="252" y="-157" type="line" smooth="yes"/>
      <point x="252" y="-163"/>
      <point x="250" y="-165"/>
      <point x="244" y="-165" type="curve" smooth="yes"/>
      <point x="225" y="-165" type="line" smooth="yes"/>
      <point x="146" y="-165"/>
      <point x="116" y="-124"/>
      <point x="116" y="-73" type="curve" smooth="yes"/>
      <point x="116" y="162" type="line" smooth="yes"/>
      <point x="116" y="210"/>
      <point x="78" y="269"/>
      <point x="4" y="269" type="curve" smooth="yes"/>
      <point x="2" y="269"/>
      <point x="0" y="271"/>
      <point x="0" y="275" type="curve" smooth="yes"/>
      <point x="0" y="302" type="line" smooth="yes"/>
      <point x="0" y="306"/>
      <point x="2" y="308"/>
      <point x="4" y="308" type="curve" smooth="yes"/>
      <point x="79" y="309"/>
      <point x="116" y="359"/>
      <point x="116" y="419" type="curve" smooth="yes"/>
    </contour>
  </outline>
</glyph>
<glyph name="bar" format="1">
  <advance width="267"/>
  <unicode hex="007C"/>
  <outline>
    <contour>
      <point x="146" y="-165" type="curve" smooth="yes"/>
      <point x="122" y="-165" type="line" smooth="yes"/>
      <point x="117" y="-165"/>
      <point x="115" y="-163"/>
      <point x="115" y="-160" type="curve" smooth="yes"/>
      <point x="114" y="840" type="line" smooth="yes"/>
      <point x="114" y="844"/>
      <point x="116" y="847"/>
      <point x="120" y="847" type="curve" smooth="yes"/>
      <point x="145" y="847" type="line" smooth="yes"/>
      <point x="151" y="847"/>
      <point x="153" y="844"/>
      <point x="153" y="837" type="curve" smooth="yes"/>
      <point x="153" y="-157" type="line" smooth="yes"/>
      <point x="153" y="-163"/>
      <point x="151" y="-165"/>
    </contour>
  </outline>
</glyph>
<glyph name="braceright" format="1">
  <advance width="267"/>
  <unicode hex="007D"/>
  <outline>
    <contour>
      <point x="151" y="652" type="curve" smooth="yes"/>
      <point x="151" y="419" type="line" smooth="yes"/>
      <point x="151" y="359"/>
      <point x="188" y="309"/>
      <point x="263" y="308" type="curve" smooth="yes"/>
      <point x="265" y="308"/>
      <point x="267" y="306"/>
      <point x="267" y="302" type="curve" smooth="yes"/>
      <point x="267" y="275" type="line" smooth="yes"/>
      <point x="267" y="271"/>
      <point x="265" y="269"/>
      <point x="263" y="269" type="curve" smooth="yes"/>
      <point x="189" y="269"/>
      <point x="151" y="210"/>
      <point x="151" y="162" type="curve" smooth="yes"/>
      <point x="151" y="-73" type="line" smooth="yes"/>
      <point x="151" y="-124"/>
      <point x="121" y="-165"/>
      <point x="42" y="-165" type="curve" smooth="yes"/>
      <point x="23" y="-165" type="line" smooth="yes"/>
      <point x="17" y="-165"/>
      <point x="15" y="-163"/>
      <point x="15" y="-157" type="curve" smooth="yes"/>
      <point x="15" y="-136" type="line" smooth="yes"/>
      <point x="15" y="-131"/>
      <point x="18" y="-128"/>
      <point x="23" y="-128" type="curve" smooth="yes"/>
      <point x="42" y="-128" type="line" smooth="yes"/>
      <point x="92" y="-128"/>
      <point x="107" y="-111"/>
      <point x="107" y="-73" type="curve" smooth="yes"/>
      <point x="107" y="162" type="line" smooth="yes"/>
      <point x="107" y="245"/>
      <point x="150" y="281"/>
      <point x="201" y="285" type="curve" smooth="yes"/>
      <point x="210" y="286"/>
      <point x="209" y="291"/>
      <point x="201" y="292" type="curve" smooth="yes"/>
      <point x="149" y="297"/>
      <point x="107" y="338"/>
      <point x="107" y="419" type="curve" smooth="yes"/>
      <point x="107" y="652" type="line" smooth="yes"/>
      <point x="107" y="689"/>
      <point x="89" y="705"/>
      <point x="43" y="705" type="curve" smooth="yes"/>
      <point x="22" y="705" type="line" smooth="yes"/>
      <point x="18" y="705"/>
      <point x="15" y="707"/>
      <point x="15" y="711" type="curve" smooth="yes"/>
      <point x="15" y="737" type="line" smooth="yes"/>
      <point x="15" y="741"/>
      <point x="17" y="742"/>
      <point x="22" y="742" type="curve" smooth="yes"/>
      <point x="43" y="742" type="line" smooth="yes"/>
      <point x="117" y="742"/>
      <point x="151" y="704"/>
    </contour>
  </outline>
</glyph>
<glyph name="asciitilde" format="1">
  <advance width="542"/>
  <unicode hex="007E"/>
  <outline>
    <contour>
      <point x="473" y="372" type="curve" smooth="yes"/>
      <point x="460" y="357"/>
      <point x="426" y="335"/>
      <point x="367" y="335" type="curve" smooth="yes"/>
      <point x="287" y="335"/>
      <point x="252" y="379"/>
      <point x="182" y="379" type="curve" smooth="yes"/>
      <point x="132" y="379"/>
      <point x="102" y="360"/>
      <point x="82" y="341" type="curve" smooth="yes"/>
      <point x="77" y="336"/>
      <point x="76" y="336"/>
      <point x="73" y="343" type="curve" smooth="yes"/>
      <point x="66" y="362" type="line" smooth="yes"/>
      <point x="64" y="367"/>
      <point x="64" y="369"/>
      <point x="67" y="371" type="curve" smooth="yes"/>
      <point x="93" y="393"/>
      <point x="124" y="416"/>
      <point x="178" y="416" type="curve" smooth="yes"/>
      <point x="250" y="416"/>
      <point x="297" y="371"/>
      <point x="368" y="371" type="curve" smooth="yes"/>
      <point x="418" y="371"/>
      <point x="440" y="390"/>
      <point x="457" y="406" type="curve" smooth="yes"/>
      <point x="462" y="411"/>
      <point x="465" y="411"/>
      <point x="468" y="404" type="curve" smooth="yes"/>
      <point x="476" y="383" type="line" smooth="yes"/>
      <point x="478" y="379"/>
      <point x="477" y="377"/>
    </contour>
  </outline>
</glyph>
<glyph name="exclamdown" format="1">
  <advance width="232"/>
  <unicode hex="00A1"/>
  <outline>
    <contour>
      <point x="147" y="459" type="line" smooth="yes"/>
      <point x="147" y="453"/>
      <point x="145" y="451"/>
      <point x="140" y="451" type="curve" smooth="yes"/>
      <point x="92" y="451" type="line" smooth="yes"/>
      <point x="88" y="451"/>
      <point x="85" y="453"/>
      <point x="85" y="460" type="curve" smooth="yes"/>
      <point x="85" y="520" type="line" smooth="yes"/>
      <point x="85" y="527"/>
      <point x="87" y="530"/>
      <point x="95" y="530" type="curve" smooth="yes"/>
      <point x="134" y="530" type="line" smooth="yes"/>
      <point x="144" y="530"/>
      <point x="147" y="527"/>
      <point x="147" y="519" type="curve" smooth="yes"/>
    </contour>
    <contour>
      <point x="143" y="-159" type="line" smooth="yes"/>
      <point x="143" y="-162"/>
      <point x="141" y="-165"/>
      <point x="137" y="-165" type="curve" smooth="yes"/>
      <point x="95" y="-165" type="line" smooth="yes"/>
      <point x="92" y="-165"/>
      <point x="90" y="-163"/>
      <point x="90" y="-158" type="curve" smooth="yes"/>
      <point x="100" y="375" type="line" smooth="yes"/>
      <point x="100" y="380"/>
      <point x="102" y="382"/>
      <point x="108" y="382" type="curve" smooth="yes"/>
      <point x="122" y="382" type="line" smooth="yes"/>
      <point x="129" y="382"/>
      <point x="132" y="380"/>
      <point x="132" y="374" type="curve" smooth="yes"/>
    </contour>
  </outline>
</glyph>
<glyph name="cent" format="1">
  <advance width="558"/>
  <unicode hex="00A2"/>
  <outline>
    <contour>
      <point x="295" y="641" type="move" name="Anchor-1"/>
    </contour>
    <contour>
      <point x="297" y="111" type="move" name="Anchor-0"/>
    </contour>
    <contour>
      <point x="499" y="228" type="line" smooth="yes"/>
      <point x="502" y="226"/>
      <point x="503" y="222"/>
      <point x="501" y="218" type="curve" smooth="yes"/>
      <point x="455" y="143"/>
      <point x="386" y="104"/>
      <point x="305" y="101" type="curve"/>
      <point x="305" y="13" type="line" smooth="yes"/>
      <point x="305" y="4"/>
      <point x="301" y="0"/>
      <point x="292" y="0" type="curve" smooth="yes"/>
      <point x="276" y="0" type="line" smooth="yes"/>
      <point x="267" y="0"/>
      <point x="264" y="4"/>
      <point x="264" y="12" type="curve" smooth="yes"/>
      <point x="264" y="103" type="line"/>
      <point x="139" y="118"/>
      <point x="56" y="223"/>
      <point x="56" y="374" type="curve" smooth="yes"/>
      <point x="56" y="523"/>
      <point x="140" y="633"/>
      <point x="264" y="649" type="curve"/>
      <point x="264" y="733" type="line" smooth="yes"/>
      <point x="264" y="739"/>
      <point x="267" y="742"/>
      <point x="273" y="742" type="curve" smooth="yes"/>
      <point x="297" y="742" type="line" smooth="yes"/>
      <point x="303" y="742"/>
      <point x="305" y="739"/>
      <point x="305" y="734" type="curve" smooth="yes"/>
      <point x="305" y="651" type="line"/>
      <point x="389" y="648"/>
      <point x="448" y="608"/>
      <point x="492" y="544" type="curve" smooth="yes"/>
      <point x="496" y="538"/>
      <point x="495" y="536"/>
      <point x="492" y="534" type="curve" smooth="yes"/>
      <point x="468" y="518" type="line" smooth="yes"/>
      <point x="465" y="516"/>
      <point x="461" y="517"/>
      <point x="457" y="522" type="curve" smooth="yes"/>
      <point x="402" y="589"/>
      <point x="357" y="613"/>
      <point x="301" y="613" type="curve" smooth="yes"/>
      <point x="178" y="613"/>
      <point x="98" y="518"/>
      <point x="98" y="376" type="curve" smooth="yes"/>
      <point x="98" y="234"/>
      <point x="178" y="139"/>
      <point x="300" y="139" type="curve" smooth="yes"/>
      <point x="368" y="139"/>
      <point x="422" y="171"/>
      <point x="466" y="239" type="curve" smooth="yes"/>
      <point x="470" y="245"/>
      <point x="472" y="246"/>
      <point x="476" y="243" type="curve" smooth="yes"/>
    </contour>
  </outline>
</glyph>
<glyph name="sterling" format="1">
  <advance width="597"/>
  <unicode hex="00A3"/>
  <outline>
    <contour>
      <point x="20" y="0" type="line" smooth="yes"/>
      <point x="15" y="0"/>
      <point x="12" y="3"/>
      <point x="12" y="8" type="curve" smooth="yes"/>
      <point x="12" y="32" type="line" smooth="yes"/>
      <point x="12" y="37"/>
      <point x="14" y="39"/>
      <point x="19" y="39" type="curve" smooth="yes"/>
      <point x="54" y="39" type="line" smooth="yes"/>
      <point x="107" y="38"/>
      <point x="152" y="93"/>
      <point x="152" y="214" type="curve" smooth="yes"/>
      <point x="152" y="250"/>
      <point x="147" y="297"/>
      <point x="139" y="353" type="curve" smooth="yes"/>
      <point x="138" y="357"/>
      <point x="137" y="358"/>
      <point x="134" y="358" type="curve" smooth="yes"/>
      <point x="41" y="358" type="line" smooth="yes"/>
      <point x="38" y="358"/>
      <point x="36" y="360"/>
      <point x="36" y="364" type="curve" smooth="yes"/>
      <point x="36" y="390" type="line" smooth="yes"/>
      <point x="36" y="394"/>
      <point x="38" y="396"/>
      <point x="41" y="396" type="curve" smooth="yes"/>
      <point x="125" y="396" type="line" smooth="yes"/>
      <point x="129" y="396"/>
      <point x="132" y="398"/>
      <point x="131" y="402" type="curve" smooth="yes"/>
      <point x="113" y="473" type="line" smooth="yes"/>
      <point x="70" y="643"/>
      <point x="174" y="752"/>
      <point x="302" y="752" type="curve" smooth="yes"/>
      <point x="385" y="752"/>
      <point x="460" y="705"/>
      <point x="479" y="659" type="curve" smooth="yes"/>
      <point x="481" y="654"/>
      <point x="477" y="653"/>
      <point x="473" y="651" type="curve" smooth="yes"/>
      <point x="450" y="640" type="line" smooth="yes"/>
      <point x="445" y="638"/>
      <point x="441" y="639"/>
      <point x="439" y="643" type="curve" smooth="yes"/>
      <point x="416" y="684"/>
      <point x="375" y="709"/>
      <point x="304" y="709" type="curve" smooth="yes"/>
      <point x="216" y="709"/>
      <point x="145" y="657"/>
      <point x="145" y="567" type="curve" smooth="yes"/>
      <point x="145" y="509"/>
      <point x="161" y="438"/>
      <point x="173" y="403" type="curve" smooth="yes"/>
      <point x="174" y="400"/>
      <point x="176" y="397"/>
      <point x="179" y="397" type="curve" smooth="yes"/>
      <point x="350" y="397" type="line" smooth="yes"/>
      <point x="354" y="397"/>
      <point x="356" y="395"/>
      <point x="356" y="392" type="curve" smooth="yes"/>
      <point x="356" y="365" type="line" smooth="yes"/>
      <point x="356" y="361"/>
      <point x="354" y="359"/>
      <point x="350" y="359" type="curve" smooth="yes"/>
      <point x="189" y="359" type="line" smooth="yes"/>
      <point x="184" y="359"/>
      <point x="181" y="357"/>
      <point x="182" y="352" type="curve" smooth="yes"/>
      <point x="190" y="314"/>
      <point x="195" y="276"/>
      <point x="195" y="232" type="curve" smooth="yes"/>
      <point x="195" y="119"/>
      <point x="156" y="64"/>
      <point x="141" y="47" type="curve" smooth="yes"/>
      <point x="137" y="42"/>
      <point x="138" y="40"/>
      <point x="143" y="40" type="curve" smooth="yes"/>
      <point x="354" y="40" type="line" smooth="yes"/>
      <point x="426" y="40"/>
      <point x="474" y="60"/>
      <point x="499" y="117" type="curve" smooth="yes"/>
      <point x="501" y="121"/>
      <point x="506" y="123"/>
      <point x="509" y="122" type="curve" smooth="yes"/>
      <point x="531" y="113" type="line" smooth="yes"/>
      <point x="535" y="111"/>
      <point x="538" y="109"/>
      <point x="536" y="105" type="curve" smooth="yes"/>
      <point x="506" y="34"/>
      <point x="442" y="0"/>
      <point x="354" y="0" type="curve" smooth="yes"/>
    </contour>
  </outline>
</glyph>
<glyph name="yen" format="1">
  <advance width="578"/>
  <unicode hex="00A5"/>
  <outline>
    <contour>
      <point x="550" y="742" type="line" smooth="yes"/>
      <point x="557" y="742"/>
      <point x="560" y="737"/>
      <point x="556" y="731" type="curve" smooth="yes"/>
      <point x="321" y="337" type="line"/>
      <point x="468" y="337" type="line" smooth="yes"/>
      <point x="472" y="337"/>
      <point x="475" y="335"/>
      <point x="475" y="331" type="curve" smooth="yes"/>
      <point x="475" y="307" type="line" smooth="yes"/>
      <point x="475" y="301"/>
      <point x="472" y="299"/>
      <point x="465" y="299" type="curve" smooth="yes"/>
      <point x="315" y="299" type="line"/>
      <point x="315" y="197" type="line"/>
      <point x="468" y="197" type="line" smooth="yes"/>
      <point x="472" y="197"/>
      <point x="475" y="195"/>
      <point x="475" y="191" type="curve" smooth="yes"/>
      <point x="475" y="167" type="line" smooth="yes"/>
      <point x="475" y="161"/>
      <point x="472" y="159"/>
      <point x="465" y="159" type="curve" smooth="yes"/>
      <point x="315" y="159" type="line"/>
      <point x="315" y="13" type="line" smooth="yes"/>
      <point x="315" y="4"/>
      <point x="311" y="0"/>
      <point x="300" y="0" type="curve" smooth="yes"/>
      <point x="281" y="0" type="line" smooth="yes"/>
      <point x="272" y="0"/>
      <point x="269" y="4"/>
      <point x="269" y="11" type="curve" smooth="yes"/>
      <point x="269" y="158" type="line"/>
      <point x="117" y="158" type="line" smooth="yes"/>
      <point x="111" y="158"/>
      <point x="109" y="160"/>
      <point x="109" y="165" type="curve" smooth="yes"/>
      <point x="109" y="189" type="line" smooth="yes"/>
      <point x="109" y="194"/>
      <point x="111" y="196"/>
      <point x="114" y="196" type="curve" smooth="yes"/>
      <point x="269" y="196" type="line"/>
      <point x="269" y="298" type="line"/>
      <point x="117" y="298" type="line" smooth="yes"/>
      <point x="111" y="298"/>
      <point x="109" y="300"/>
      <point x="109" y="305" type="curve" smooth="yes"/>
      <point x="109" y="329" type="line" smooth="yes"/>
      <point x="109" y="334"/>
      <point x="111" y="336"/>
      <point x="114" y="336" type="curve" smooth="yes"/>
      <point x="254" y="336" type="line"/>
      <point x="22" y="730" type="line" smooth="yes"/>
      <point x="18" y="737"/>
      <point x="20" y="742"/>
      <point x="30" y="742" type="curve" smooth="yes"/>
      <point x="57" y="742" type="line" smooth="yes"/>
      <point x="66" y="742"/>
      <point x="69" y="740"/>
      <point x="73" y="733" type="curve" smooth="yes"/>
      <point x="282" y="375" type="line" smooth="yes"/>
      <point x="289" y="363"/>
      <point x="292" y="362"/>
      <point x="299" y="374" type="curve" smooth="yes"/>
      <point x="512" y="733" type="line" smooth="yes"/>
      <point x="517" y="741"/>
      <point x="519" y="742"/>
      <point x="528" y="742" type="curve" smooth="yes"/>
    </contour>
  </outline>
</glyph>
<glyph name="brokenbar" format="1">
  <advance width="267"/>
  <unicode hex="00A6"/>
  <outline>
    <contour>
      <point x="146" y="443" type="curve" smooth="yes"/>
      <point x="122" y="443" type="line" smooth="yes"/>
      <point x="117" y="443"/>
      <point x="115" y="445"/>
      <point x="115" y="448" type="curve" smooth="yes"/>
      <point x="114" y="840" type="line" smooth="yes"/>
      <point x="114" y="844"/>
      <point x="116" y="847"/>
      <point x="120" y="847" type="curve" smooth="yes"/>
      <point x="145" y="847" type="line" smooth="yes"/>
      <point x="151" y="847"/>
      <point x="153" y="844"/>
      <point x="153" y="837" type="curve" smooth="yes"/>
      <point x="153" y="451" type="line" smooth="yes"/>
      <point x="153" y="445"/>
      <point x="151" y="443"/>
    </contour>
    <contour>
      <point x="146" y="-165" type="curve" smooth="yes"/>
      <point x="122" y="-165" type="line" smooth="yes"/>
      <point x="117" y="-165"/>
      <point x="115" y="-163"/>
      <point x="115" y="-160" type="curve" smooth="yes"/>
      <point x="114" y="232" type="line" smooth="yes"/>
      <point x="114" y="236"/>
      <point x="116" y="239"/>
      <point x="120" y="239" type="curve" smooth="yes"/>
      <point x="145" y="239" type="line" smooth="yes"/>
      <point x="151" y="239"/>
      <point x="153" y="236"/>
      <point x="153" y="229" type="curve" smooth="yes"/>
      <point x="153" y="-157" type="line" smooth="yes"/>
      <point x="153" y="-163"/>
      <point x="151" y="-165"/>
    </contour>
  </outline>
</glyph>
<glyph name="section" format="1">
  <advance width="477"/>
  <unicode hex="00A7"/>
  <outline>
    <contour>
      <point x="332" y="195" type="curve"/>
      <point x="394" y="160"/>
      <point x="432" y="120"/>
      <point x="432" y="64" type="curve" smooth="yes"/>
      <point x="432" y="-11"/>
      <point x="357" y="-68"/>
      <point x="250" y="-68" type="curve" smooth="yes"/>
      <point x="168" y="-68"/>
      <point x="85" y="-25"/>
      <point x="47" y="44" type="curve" smooth="yes"/>
      <point x="45" y="47"/>
      <point x="45" y="51"/>
      <point x="47" y="52" type="curve" smooth="yes"/>
      <point x="71" y="67" type="line" smooth="yes"/>
      <point x="75" y="69"/>
      <point x="78" y="69"/>
      <point x="80" y="65" type="curve" smooth="yes"/>
      <point x="114" y="10"/>
      <point x="177" y="-28"/>
      <point x="253" y="-28" type="curve" smooth="yes"/>
      <point x="330" y="-28"/>
      <point x="388" y="5"/>
      <point x="388" y="64" type="curve" smooth="yes"/>
      <point x="388" y="105"/>
      <point x="362" y="142"/>
      <point x="270" y="178" type="curve" smooth="yes"/>
      <point x="172" y="216" type="line" smooth="yes"/>
      <point x="90" y="248"/>
      <point x="58" y="296"/>
      <point x="58" y="353" type="curve" smooth="yes"/>
      <point x="58" y="416"/>
      <point x="107" y="463"/>
      <point x="169" y="485" type="curve"/>
      <point x="76" y="531"/>
      <point x="58" y="575"/>
      <point x="58" y="623" type="curve" smooth="yes"/>
      <point x="58" y="696"/>
      <point x="130" y="752"/>
      <point x="236" y="752" type="curve" smooth="yes"/>
      <point x="315" y="752"/>
      <point x="379" y="709"/>
      <point x="413" y="660" type="curve" smooth="yes"/>
      <point x="415" y="657"/>
      <point x="415" y="654"/>
      <point x="412" y="652" type="curve" smooth="yes"/>
      <point x="392" y="639" type="line" smooth="yes"/>
      <point x="387" y="636"/>
      <point x="382" y="636"/>
      <point x="380" y="639" type="curve" smooth="yes"/>
      <point x="347" y="681"/>
      <point x="300" y="712"/>
      <point x="241" y="712" type="curve" smooth="yes"/>
      <point x="153" y="712"/>
      <point x="102" y="677"/>
      <point x="102" y="625" type="curve" smooth="yes"/>
      <point x="102" y="590"/>
      <point x="120" y="554"/>
      <point x="203" y="520" type="curve" smooth="yes"/>
      <point x="293" y="483" type="line" smooth="yes"/>
      <point x="394" y="441"/>
      <point x="432" y="388"/>
      <point x="432" y="324" type="curve" smooth="yes"/>
      <point x="432" y="253"/>
      <point x="383" y="218"/>
    </contour>
    <contour>
      <point x="272" y="222" type="line"/>
      <point x="331" y="217"/>
      <point x="387" y="264"/>
      <point x="387" y="318" type="curve" smooth="yes"/>
      <point x="387" y="369"/>
      <point x="371" y="404"/>
      <point x="290" y="437" type="curve" smooth="yes"/>
      <point x="225" y="463" type="line"/>
      <point x="160" y="457"/>
      <point x="102" y="407"/>
      <point x="102" y="356" type="curve" smooth="yes"/>
      <point x="102" y="313"/>
      <point x="120" y="286"/>
      <point x="201" y="252" type="curve" smooth="yes"/>
    </contour>
  </outline>
</glyph>
<glyph name="dieresis" format="1">
  <advance width="181"/>
  <unicode hex="00A8"/>
  <outline>
    <contour>
      <point x="60" y="732" type="curve" smooth="yes"/>
      <point x="60" y="656" type="line" smooth="yes"/>
      <point x="60" y="646"/>
      <point x="58" y="644"/>
      <point x="48" y="644" type="curve" smooth="yes"/>
      <point x="21" y="644" type="line" smooth="yes"/>
      <point x="12" y="644"/>
      <point x="10" y="646"/>
      <point x="10" y="654" type="curve" smooth="yes"/>
      <point x="10" y="732" type="line" smooth="yes"/>
      <point x="10" y="740"/>
      <point x="12" y="742"/>
      <point x="19" y="742" type="curve" smooth="yes"/>
      <point x="51" y="742" type="line" smooth="yes"/>
      <point x="58" y="742"/>
      <point x="60" y="740"/>
    </contour>
    <contour>
      <point x="171" y="732" type="curve" smooth="yes"/>
      <point x="171" y="656" type="line" smooth="yes"/>
      <point x="171" y="646"/>
      <point x="169" y="644"/>
      <point x="159" y="644" type="curve" smooth="yes"/>
      <point x="132" y="644" type="line" smooth="yes"/>
      <point x="123" y="644"/>
      <point x="121" y="646"/>
      <point x="121" y="654" type="curve" smooth="yes"/>
      <point x="121" y="732" type="line" smooth="yes"/>
      <point x="121" y="740"/>
      <point x="123" y="742"/>
      <point x="130" y="742" type="curve" smooth="yes"/>
      <point x="162" y="742" type="line" smooth="yes"/>
      <point x="169" y="742"/>
      <point x="171" y="740"/>
    </contour>
  </outline>
</glyph>
<glyph name="copyright" format="1">
  <advance width="830"/>
  <unicode hex="00A9"/>
  <outline>
    <contour>
      <point x="415" y="-10" type="curve" smooth="yes"/>
      <point x="204" y="-10"/>
      <point x="34" y="159"/>
      <point x="34" y="371" type="curve" smooth="yes"/>
      <point x="34" y="581"/>
      <point x="204" y="752"/>
      <point x="415" y="752" type="curve" smooth="yes"/>
      <point x="625" y="752"/>
      <point x="796" y="581"/>
      <point x="796" y="371" type="curve" smooth="yes"/>
      <point x="796" y="159"/>
      <point x="625" y="-10"/>
    </contour>
    <contour>
      <point x="415" y="34" type="curve" smooth="yes"/>
      <point x="592" y="34"/>
      <point x="751" y="166"/>
      <point x="751" y="371" type="curve" smooth="yes"/>
      <point x="751" y="573"/>
      <point x="592" y="709"/>
      <point x="415" y="709" type="curve" smooth="yes"/>
      <point x="234" y="709"/>
      <point x="79" y="573"/>
      <point x="79" y="371" type="curve" smooth="yes"/>
      <point x="79" y="166"/>
      <point x="234" y="34"/>
    </contour>
    <contour>
      <point x="417" y="590" type="curve" smooth="yes"/>
      <point x="487" y="590"/>
      <point x="535" y="551"/>
      <point x="573" y="499" type="curve" smooth="yes"/>
      <point x="576" y="495"/>
      <point x="573" y="493"/>
      <point x="573" y="492" type="curve" smooth="yes"/>
      <point x="545" y="475" type="line" smooth="yes"/>
      <point x="543" y="474"/>
      <point x="540" y="475"/>
      <point x="537" y="479" type="curve" smooth="yes"/>
      <point x="505" y="527"/>
      <point x="465" y="551"/>
      <point x="421" y="551" type="curve" smooth="yes"/>
      <point x="334" y="551"/>
      <point x="273" y="479"/>
      <point x="273" y="375" type="curve" smooth="yes"/>
      <point x="273" y="270"/>
      <point x="334" y="198"/>
      <point x="420" y="198" type="curve" smooth="yes"/>
      <point x="474" y="198"/>
      <point x="520" y="230"/>
      <point x="546" y="277" type="curve" smooth="yes"/>
      <point x="548" y="281"/>
      <point x="553" y="280"/>
      <point x="556" y="278" type="curve" smooth="yes"/>
      <point x="576" y="266" type="line" smooth="yes"/>
      <point x="579" y="264"/>
      <point x="579" y="261"/>
      <point x="578" y="258" type="curve" smooth="yes"/>
      <point x="540" y="197"/>
      <point x="484" y="159"/>
      <point x="417" y="159" type="curve" smooth="yes"/>
      <point x="305" y="159"/>
      <point x="229" y="245"/>
      <point x="229" y="373" type="curve" smooth="yes"/>
      <point x="229" y="500"/>
      <point x="307" y="590"/>
    </contour>
  </outline>
</glyph>
<glyph name="guillemotleft" format="1">
  <advance width="421"/>
  <unicode hex="00AB"/>
  <outline>
    <contour>
      <point x="89" y="251" type="curve" smooth="yes"/>
      <point x="203" y="83" type="line" smooth="yes"/>
      <point x="206" y="79"/>
      <point x="202" y="78"/>
      <point x="196" y="78" type="curve" smooth="yes"/>
      <point x="184" y="78" type="line" smooth="yes"/>
      <point x="180" y="78"/>
      <point x="177" y="80"/>
      <point x="176" y="82" type="curve" smooth="yes"/>
      <point x="38" y="250" type="line" smooth="yes"/>
      <point x="34" y="255"/>
      <point x="34" y="259"/>
      <point x="37" y="263" type="curve" smooth="yes"/>
      <point x="177" y="441" type="line" smooth="yes"/>
      <point x="180" y="445"/>
      <point x="181" y="445"/>
      <point x="184" y="445" type="curve" smooth="yes"/>
      <point x="198" y="445" type="line" smooth="yes"/>
      <point x="202" y="445"/>
      <point x="206" y="442"/>
      <point x="203" y="437" type="curve" smooth="yes"/>
      <point x="89" y="263" type="line" smooth="yes"/>
      <point x="87" y="259"/>
      <point x="86" y="255"/>
    </contour>
    <contour>
      <point x="256" y="251" type="curve" smooth="yes"/>
      <point x="370" y="83" type="line" smooth="yes"/>
      <point x="373" y="79"/>
      <point x="369" y="78"/>
      <point x="363" y="78" type="curve" smooth="yes"/>
      <point x="351" y="78" type="line" smooth="yes"/>
      <point x="347" y="78"/>
      <point x="344" y="80"/>
      <point x="343" y="82" type="curve" smooth="yes"/>
      <point x="205" y="250" type="line" smooth="yes"/>
      <point x="201" y="255"/>
      <point x="201" y="259"/>
      <point x="204" y="263" type="curve" smooth="yes"/>
      <point x="344" y="441" type="line" smooth="yes"/>
      <point x="347" y="445"/>
      <point x="348" y="445"/>
      <point x="351" y="445" type="curve" smooth="yes"/>
      <point x="365" y="445" type="line" smooth="yes"/>
      <point x="369" y="445"/>
      <point x="373" y="442"/>
      <point x="370" y="437" type="curve" smooth="yes"/>
      <point x="256" y="263" type="line" smooth="yes"/>
      <point x="254" y="259"/>
      <point x="253" y="255"/>
    </contour>
  </outline>
</glyph>
<glyph name="logicalnot" format="1">
  <advance width="541"/>
  <unicode hex="00AC"/>
  <outline>
    <contour>
      <point x="464" y="392" type="line" smooth="yes"/>
      <point x="468" y="392"/>
      <point x="471" y="390"/>
      <point x="471" y="386" type="curve" smooth="yes"/>
      <point x="471" y="222" type="line" smooth="yes"/>
      <point x="471" y="216"/>
      <point x="469" y="214"/>
      <point x="464" y="214" type="curve" smooth="yes"/>
      <point x="441" y="214" type="line" smooth="yes"/>
      <point x="436" y="214"/>
      <point x="434" y="216"/>
      <point x="434" y="219" type="curve" smooth="yes"/>
      <point x="433" y="354" type="line"/>
      <point x="78" y="353" type="line" smooth="yes"/>
      <point x="72" y="353"/>
      <point x="70" y="355"/>
      <point x="70" y="360" type="curve" smooth="yes"/>
      <point x="70" y="384" type="line" smooth="yes"/>
      <point x="70" y="389"/>
      <point x="72" y="391"/>
      <point x="75" y="391" type="curve" smooth="yes"/>
    </contour>
  </outline>
</glyph>
<glyph name="registered" format="1">
  <advance width="545"/>
  <unicode hex="00AE"/>
  <outline>
    <contour>
      <point x="273" y="275" type="curve" smooth="yes"/>
      <point x="140" y="275"/>
      <point x="34" y="381"/>
      <point x="34" y="513" type="curve" smooth="yes"/>
      <point x="34" y="645"/>
      <point x="140" y="752"/>
      <point x="273" y="752" type="curve" smooth="yes"/>
      <point x="404" y="752"/>
      <point x="511" y="645"/>
      <point x="511" y="513" type="curve" smooth="yes"/>
      <point x="511" y="381"/>
      <point x="404" y="275"/>
    </contour>
    <contour>
      <point x="273" y="310" type="curve" smooth="yes"/>
      <point x="391" y="310"/>
      <point x="475" y="389"/>
      <point x="475" y="513" type="curve" smooth="yes"/>
      <point x="475" y="636"/>
      <point x="391" y="717"/>
      <point x="273" y="717" type="curve" smooth="yes"/>
      <point x="153" y="717"/>
      <point x="70" y="636"/>
      <point x="70" y="513" type="curve" smooth="yes"/>
      <point x="70" y="389"/>
      <point x="153" y="310"/>
    </contour>
    <contour>
      <point x="354" y="398" type="line" smooth="yes"/>
      <point x="355" y="395"/>
      <point x="354" y="393"/>
      <point x="351" y="393" type="curve" smooth="yes"/>
      <point x="327" y="393" type="line" smooth="yes"/>
      <point x="325" y="393"/>
      <point x="324" y="394"/>
      <point x="323" y="396" type="curve" smooth="yes"/>
      <point x="282" y="504" type="line" smooth="yes"/>
      <point x="281" y="506"/>
      <point x="284" y="507"/>
      <point x="275" y="507" type="curve" smooth="yes"/>
      <point x="219" y="507" type="line" smooth="yes"/>
      <point x="216" y="507"/>
      <point x="215" y="506"/>
      <point x="215" y="503" type="curve" smooth="yes"/>
      <point x="215" y="397" type="line" smooth="yes"/>
      <point x="215" y="394"/>
      <point x="215" y="393"/>
      <point x="212" y="393" type="curve" smooth="yes"/>
      <point x="189" y="393" type="line" smooth="yes"/>
      <point x="186" y="393"/>
      <point x="186" y="394"/>
      <point x="186" y="396" type="curve" smooth="yes"/>
      <point x="186" y="626" type="line" smooth="yes"/>
      <point x="186" y="629"/>
      <point x="186" y="630"/>
      <point x="188" y="630" type="curve" smooth="yes"/>
      <point x="288" y="630" type="line" smooth="yes"/>
      <point x="335" y="630"/>
      <point x="362" y="610"/>
      <point x="362" y="572" type="curve" smooth="yes"/>
      <point x="362" y="532"/>
      <point x="335" y="517"/>
      <point x="313" y="510" type="curve" smooth="yes"/>
      <point x="312" y="510"/>
      <point x="311" y="509"/>
      <point x="312" y="508" type="curve" smooth="yes"/>
    </contour>
    <contour>
      <point x="281" y="535" type="line" smooth="yes"/>
      <point x="308" y="535"/>
      <point x="331" y="542"/>
      <point x="331" y="568" type="curve" smooth="yes"/>
      <point x="331" y="586"/>
      <point x="322" y="602"/>
      <point x="278" y="602" type="curve" smooth="yes"/>
      <point x="219" y="602" type="line" smooth="yes"/>
      <point x="216" y="602"/>
      <point x="215" y="606"/>
      <point x="215" y="599" type="curve" smooth="yes"/>
      <point x="215" y="538" type="line" smooth="yes"/>
      <point x="215" y="536"/>
      <point x="216" y="535"/>
      <point x="218" y="535" type="curve" smooth="yes"/>
    </contour>
  </outline>
</glyph>
<glyph name="macron" format="1">
  <advance width="272"/>
  <unicode hex="00AF"/>
  <outline>
    <contour>
      <point x="262" y="716" type="curve" smooth="yes"/>
      <point x="262" y="692" type="line" smooth="yes"/>
      <point x="262" y="687"/>
      <point x="260" y="684"/>
      <point x="252" y="684" type="curve" smooth="yes"/>
      <point x="17" y="684" type="line" smooth="yes"/>
      <point x="11" y="684"/>
      <point x="10" y="687"/>
      <point x="10" y="692" type="curve" smooth="yes"/>
      <point x="10" y="715" type="line" smooth="yes"/>
      <point x="10" y="719"/>
      <point x="12" y="722"/>
      <point x="15" y="722" type="curve" smooth="yes"/>
      <point x="257" y="722" type="line" smooth="yes"/>
      <point x="260" y="722"/>
      <point x="262" y="719"/>
    </contour>
  </outline>
</glyph>
<glyph name="degree" format="1">
  <advance width="464"/>
  <unicode hex="00B0"/>
  <outline>
    <contour>
      <point x="382" y="708" type="curve" smooth="yes"/>
      <point x="382" y="620"/>
      <point x="318" y="558"/>
      <point x="232" y="558" type="curve" smooth="yes"/>
      <point x="145" y="558"/>
      <point x="82" y="620"/>
      <point x="82" y="708" type="curve" smooth="yes"/>
      <point x="82" y="796"/>
      <point x="145" y="858"/>
      <point x="232" y="858" type="curve" smooth="yes"/>
      <point x="318" y="858"/>
      <point x="382" y="796"/>
    </contour>
    <contour>
      <point x="339" y="707" type="curve" smooth="yes"/>
      <point x="339" y="773"/>
      <point x="297" y="819"/>
      <point x="230" y="819" type="curve" smooth="yes"/>
      <point x="164" y="819"/>
      <point x="121" y="773"/>
      <point x="122" y="707" type="curve" smooth="yes"/>
      <point x="123" y="640"/>
      <point x="164" y="594"/>
      <point x="231" y="594" type="curve" smooth="yes"/>
      <point x="297" y="594"/>
      <point x="339" y="640"/>
    </contour>
  </outline>
</glyph>
<glyph name="plusminus" format="1">
  <advance width="541"/>
  <unicode hex="00B1"/>
  <outline>
    <contour>
      <point x="464" y="462" type="line" smooth="yes"/>
      <point x="468" y="462"/>
      <point x="471" y="460"/>
      <point x="471" y="456" type="curve" smooth="yes"/>
      <point x="471" y="432" type="line" smooth="yes"/>
      <point x="471" y="426"/>
      <point x="468" y="424"/>
      <point x="461" y="424" type="curve" smooth="yes"/>
      <point x="289" y="424" type="line"/>
      <point x="289" y="249" type="line" smooth="yes"/>
      <point x="289" y="245"/>
      <point x="287" y="242"/>
      <point x="283" y="242" type="curve" smooth="yes"/>
      <point x="260" y="242" type="line" smooth="yes"/>
      <point x="254" y="242"/>
      <point x="252" y="245"/>
      <point x="252" y="252" type="curve" smooth="yes"/>
      <point x="252" y="423" type="line"/>
      <point x="78" y="423" type="line" smooth="yes"/>
      <point x="72" y="423"/>
      <point x="70" y="425"/>
      <point x="70" y="430" type="curve" smooth="yes"/>
      <point x="70" y="454" type="line" smooth="yes"/>
      <point x="70" y="459"/>
      <point x="72" y="461"/>
      <point x="75" y="461" type="curve" smooth="yes"/>
      <point x="251" y="461" type="line"/>
      <point x="251" y="635" type="line" smooth="yes"/>
      <point x="251" y="641"/>
      <point x="253" y="643"/>
      <point x="258" y="643" type="curve" smooth="yes"/>
      <point x="282" y="643" type="line" smooth="yes"/>
      <point x="287" y="643"/>
      <point x="289" y="641"/>
      <point x="289" y="638" type="curve" smooth="yes"/>
      <point x="289" y="462" type="line"/>
    </contour>
    <contour>
      <point x="464" y="122" type="line" smooth="yes"/>
      <point x="468" y="122"/>
      <point x="471" y="120"/>
      <point x="471" y="116" type="curve" smooth="yes"/>
      <point x="471" y="92" type="line" smooth="yes"/>
      <point x="471" y="86"/>
      <point x="468" y="84"/>
      <point x="461" y="84" type="curve" smooth="yes"/>
      <point x="78" y="83" type="line" smooth="yes"/>
      <point x="72" y="83"/>
      <point x="70" y="85"/>
      <point x="70" y="90" type="curve" smooth="yes"/>
      <point x="70" y="114" type="line" smooth="yes"/>
      <point x="70" y="119"/>
      <point x="72" y="121"/>
      <point x="75" y="121" type="curve" smooth="yes"/>
    </contour>
  </outline>
</glyph>
<glyph name="uni00B2" format="1">
  <advance width="452"/>
  <unicode hex="00B2"/>
  <outline>
    <contour>
      <point x="63" y="425" type="curve" smooth="yes"/>
      <point x="208" y="575" type="line" smooth="yes"/>
      <point x="272" y="640"/>
      <point x="302" y="684"/>
      <point x="302" y="736" type="curve" smooth="yes"/>
      <point x="302" y="800"/>
      <point x="245" y="831"/>
      <point x="194" y="831" type="curve" smooth="yes"/>
      <point x="156" y="831"/>
      <point x="106" y="814"/>
      <point x="77" y="771" type="curve" smooth="yes"/>
      <point x="75" y="768"/>
      <point x="71" y="766"/>
      <point x="67" y="770" type="curve" smooth="yes"/>
      <point x="58" y="778" type="line" smooth="yes"/>
      <point x="53" y="783"/>
      <point x="53" y="784"/>
      <point x="56" y="788" type="curve" smooth="yes"/>
      <point x="91" y="836"/>
      <point x="149" y="857"/>
      <point x="199" y="857" type="curve" smooth="yes"/>
      <point x="264" y="857"/>
      <point x="331" y="821"/>
      <point x="331" y="732" type="curve" smooth="yes"/>
      <point x="331" y="675"/>
      <point x="300" y="634"/>
      <point x="222" y="554" type="curve" smooth="yes"/>
      <point x="89" y="418" type="line" smooth="yes"/>
      <point x="85" y="414"/>
      <point x="87" y="410"/>
      <point x="93" y="410" type="curve" smooth="yes"/>
      <point x="330" y="410" type="line" smooth="yes"/>
      <point x="334" y="410"/>
      <point x="336" y="409"/>
      <point x="336" y="405" type="curve" smooth="yes"/>
      <point x="336" y="389" type="line" smooth="yes"/>
      <point x="336" y="386"/>
      <point x="334" y="384"/>
      <point x="331" y="384" type="curve" smooth="yes"/>
      <point x="61" y="384" type="line" smooth="yes"/>
      <point x="56" y="384"/>
      <point x="54" y="386"/>
      <point x="54" y="392" type="curve" smooth="yes"/>
      <point x="54" y="404" type="line" smooth="yes"/>
      <point x="54" y="414"/>
      <point x="56" y="418"/>
    </contour>
  </outline>
</glyph>
<glyph name="uni00B3" format="1">
  <advance width="467"/>
  <unicode hex="00B3"/>
  <outline>
    <contour>
      <point x="81" y="790" type="line" smooth="yes"/>
      <point x="78" y="792"/>
      <point x="79" y="795"/>
      <point x="81" y="797" type="curve" smooth="yes"/>
      <point x="123" y="840"/>
      <point x="164" y="857"/>
      <point x="215" y="857" type="curve" smooth="yes"/>
      <point x="304" y="857"/>
      <point x="361" y="806"/>
      <point x="361" y="741" type="curve" smooth="yes"/>
      <point x="361" y="692"/>
      <point x="329" y="654"/>
      <point x="278" y="636" type="curve" smooth="yes"/>
      <point x="268" y="632"/>
      <point x="268" y="631"/>
      <point x="278" y="629" type="curve" smooth="yes"/>
      <point x="329" y="615"/>
      <point x="375" y="573"/>
      <point x="375" y="509" type="curve" smooth="yes"/>
      <point x="375" y="438"/>
      <point x="319" y="378"/>
      <point x="207" y="378" type="curve" smooth="yes"/>
      <point x="148" y="378"/>
      <point x="105" y="394"/>
      <point x="61" y="437" type="curve" smooth="yes"/>
      <point x="58" y="440"/>
      <point x="58" y="440"/>
      <point x="61" y="444" type="curve" smooth="yes"/>
      <point x="75" y="456" type="line" smooth="yes"/>
      <point x="78" y="460"/>
      <point x="80" y="458"/>
      <point x="81" y="456" type="curve" smooth="yes"/>
      <point x="119" y="417"/>
      <point x="160" y="404"/>
      <point x="210" y="404" type="curve" smooth="yes"/>
      <point x="297" y="404"/>
      <point x="346" y="447"/>
      <point x="346" y="507" type="curve" smooth="yes"/>
      <point x="346" y="580"/>
      <point x="276" y="617"/>
      <point x="208" y="617" type="curve" smooth="yes"/>
      <point x="151" y="617" type="line" smooth="yes"/>
      <point x="148" y="617"/>
      <point x="146" y="618"/>
      <point x="146" y="621" type="curve" smooth="yes"/>
      <point x="146" y="637" type="line" smooth="yes"/>
      <point x="146" y="640"/>
      <point x="148" y="642"/>
      <point x="151" y="642" type="curve" smooth="yes"/>
      <point x="197" y="642" type="line" smooth="yes"/>
      <point x="272" y="642"/>
      <point x="332" y="684"/>
      <point x="332" y="741" type="curve" smooth="yes"/>
      <point x="332" y="792"/>
      <point x="285" y="831"/>
      <point x="217" y="831" type="curve" smooth="yes"/>
      <point x="171" y="831"/>
      <point x="130" y="812"/>
      <point x="98" y="781" type="curve" smooth="yes"/>
      <point x="95" y="777"/>
      <point x="92" y="777"/>
      <point x="88" y="781" type="curve" smooth="yes"/>
    </contour>
  </outline>
</glyph>
<glyph name="acute" format="1">
  <advance width="272"/>
  <unicode hex="00B4"/>
  <outline>
    <contour>
      <point x="255" y="752" type="curve" smooth="yes"/>
      <point x="265" y="720" type="line" smooth="yes"/>
      <point x="267" y="714"/>
      <point x="266" y="711"/>
      <point x="258" y="708" type="curve" smooth="yes"/>
      <point x="31" y="634" type="line" smooth="yes"/>
      <point x="25" y="632"/>
      <point x="22" y="633"/>
      <point x="20" y="639" type="curve" smooth="yes"/>
      <point x="15" y="654" type="line" smooth="yes"/>
      <point x="13" y="659"/>
      <point x="15" y="663"/>
      <point x="18" y="664" type="curve" smooth="yes"/>
      <point x="247" y="755" type="line" smooth="yes"/>
      <point x="250" y="756"/>
      <point x="254" y="755"/>
    </contour>
  </outline>
</glyph>
<glyph name="uni00B5" format="1">
  <advance width="571"/>
  <unicode hex="00B5"/>
  <outline>
    <contour>
      <point x="247" y="28" type="curve" smooth="yes"/>
      <point x="312" y="28"/>
      <point x="375" y="68"/>
      <point x="440" y="133" type="curve"/>
      <point x="440" y="521" type="line" smooth="yes"/>
      <point x="440" y="527"/>
      <point x="443" y="530"/>
      <point x="449" y="530" type="curve" smooth="yes"/>
      <point x="471" y="530" type="line" smooth="yes"/>
      <point x="477" y="530"/>
      <point x="480" y="527"/>
      <point x="480" y="521" type="curve" smooth="yes"/>
      <point x="480" y="9" type="line" smooth="yes"/>
      <point x="480" y="3"/>
      <point x="478" y="0"/>
      <point x="472" y="0" type="curve" smooth="yes"/>
      <point x="451" y="0" type="line" smooth="yes"/>
      <point x="445" y="0"/>
      <point x="443" y="2"/>
      <point x="443" y="8" type="curve" smooth="yes"/>
      <point x="443" y="73" type="line" smooth="yes"/>
      <point x="443" y="80"/>
      <point x="441" y="81"/>
      <point x="435" y="76" type="curve" smooth="yes"/>
      <point x="355" y="13"/>
      <point x="309" y="-10"/>
      <point x="249" y="-10" type="curve" smooth="yes"/>
      <point x="199" y="-10"/>
      <point x="158" y="2"/>
      <point x="123" y="37" type="curve"/>
      <point x="123" y="-153" type="line" smooth="yes"/>
      <point x="123" y="-163"/>
      <point x="121" y="-165"/>
      <point x="111" y="-165" type="curve" smooth="yes"/>
      <point x="94" y="-165" type="line" smooth="yes"/>
      <point x="85" y="-165"/>
      <point x="83" y="-163"/>
      <point x="83" y="-155" type="curve" smooth="yes"/>
      <point x="83" y="520" type="line" smooth="yes"/>
      <point x="83" y="527"/>
      <point x="86" y="530"/>
      <point x="92" y="530" type="curve" smooth="yes"/>
      <point x="114" y="530" type="line" smooth="yes"/>
      <point x="120" y="530"/>
      <point x="123" y="527"/>
      <point x="123" y="521" type="curve" smooth="yes"/>
      <point x="123" y="137" type="line" smooth="yes"/>
      <point x="123" y="79"/>
      <point x="179" y="28"/>
    </contour>
  </outline>
</glyph>
<glyph name="paragraph" format="1">
  <advance width="534"/>
  <unicode hex="00B6"/>
  <outline>
    <contour>
      <point x="446" y="710" type="curve" smooth="yes"/>
      <point x="394" y="710" type="line" smooth="yes"/>
      <point x="392" y="710"/>
      <point x="390" y="708"/>
      <point x="390" y="705" type="curve" smooth="yes"/>
      <point x="390" y="-80" type="line" smooth="yes"/>
      <point x="390" y="-82"/>
      <point x="390" y="-85"/>
      <point x="386" y="-85" type="curve" smooth="yes"/>
      <point x="361" y="-85" type="line" smooth="yes"/>
      <point x="357" y="-85"/>
      <point x="356" y="-82"/>
      <point x="356" y="-80" type="curve" smooth="yes"/>
      <point x="356" y="706" type="line" smooth="yes"/>
      <point x="356" y="708"/>
      <point x="354" y="710"/>
      <point x="351" y="710" type="curve" smooth="yes"/>
      <point x="316" y="710" type="line" smooth="yes"/>
      <point x="313" y="710"/>
      <point x="312" y="708"/>
      <point x="312" y="705" type="curve" smooth="yes"/>
      <point x="312" y="-80" type="line" smooth="yes"/>
      <point x="312" y="-83"/>
      <point x="310" y="-85"/>
      <point x="307" y="-85" type="curve" smooth="yes"/>
      <point x="282" y="-85" type="line" smooth="yes"/>
      <point x="279" y="-85"/>
      <point x="277" y="-84"/>
      <point x="277" y="-80" type="curve" smooth="yes"/>
      <point x="277" y="301" type="line" smooth="yes"/>
      <point x="277" y="302"/>
      <point x="276" y="304"/>
      <point x="274" y="304" type="curve" smooth="yes"/>
      <point x="131" y="304"/>
      <point x="56" y="408"/>
      <point x="56" y="514" type="curve" smooth="yes"/>
      <point x="56" y="626"/>
      <point x="131" y="742"/>
      <point x="288" y="742" type="curve" smooth="yes"/>
      <point x="446" y="742" type="line" smooth="yes"/>
      <point x="449" y="742"/>
      <point x="450" y="741"/>
      <point x="450" y="738" type="curve" smooth="yes"/>
      <point x="450" y="713" type="line" smooth="yes"/>
      <point x="450" y="710"/>
      <point x="449" y="710"/>
    </contour>
  </outline>
</glyph>
<glyph name="periodcentered" format="1">
  <advance width="172"/>
  <unicode hex="00B7"/>
  <outline>
    <contour>
      <point x="127" y="405" type="curve" smooth="yes"/>
      <point x="127" y="345" type="line" smooth="yes"/>
      <point x="127" y="337"/>
      <point x="124" y="334"/>
      <point x="114" y="334" type="curve" smooth="yes"/>
      <point x="55" y="334" type="line" smooth="yes"/>
      <point x="47" y="334"/>
      <point x="45" y="337"/>
      <point x="45" y="344" type="curve" smooth="yes"/>
      <point x="45" y="404" type="line" smooth="yes"/>
      <point x="45" y="411"/>
      <point x="48" y="413"/>
      <point x="52" y="413" type="curve" smooth="yes"/>
      <point x="120" y="413" type="line" smooth="yes"/>
      <point x="125" y="413"/>
      <point x="127" y="411"/>
    </contour>
  </outline>
</glyph>
<glyph name="cedilla" format="1">
  <advance width="196"/>
  <unicode hex="00B8"/>
  <outline>
    <contour>
      <point x="186" y="-129" type="curve" smooth="yes"/>
      <point x="186" y="-179"/>
      <point x="141" y="-204"/>
      <point x="86" y="-204" type="curve" smooth="yes"/>
      <point x="57" y="-204"/>
      <point x="34" y="-197"/>
      <point x="13" y="-183" type="curve" smooth="yes"/>
      <point x="11" y="-182"/>
      <point x="9" y="-180"/>
      <point x="10" y="-177" type="curve" smooth="yes"/>
      <point x="19" y="-157" type="line" smooth="yes"/>
      <point x="20" y="-155"/>
      <point x="23" y="-154"/>
      <point x="26" y="-156" type="curve" smooth="yes"/>
      <point x="39" y="-167"/>
      <point x="53" y="-174"/>
      <point x="82" y="-174" type="curve" smooth="yes"/>
      <point x="124" y="-174"/>
      <point x="142" y="-159"/>
      <point x="142" y="-131" type="curve" smooth="yes"/>
      <point x="142" y="-99"/>
      <point x="117" y="-85"/>
      <point x="65" y="-83" type="curve" smooth="yes"/>
      <point x="60" y="-83"/>
      <point x="60" y="-81"/>
      <point x="61" y="-79" type="curve" smooth="yes"/>
      <point x="97" y="5" type="line"/>
      <point x="131" y="5" type="line"/>
      <point x="107" y="-55" type="line" smooth="yes"/>
      <point x="106" y="-57"/>
      <point x="107" y="-58"/>
      <point x="110" y="-58" type="curve" smooth="yes"/>
      <point x="169" y="-64"/>
      <point x="186" y="-97"/>
    </contour>
  </outline>
</glyph>
<glyph name="uni00B9" format="1">
  <advance width="367"/>
  <unicode hex="00B9"/>
  <outline>
    <contour>
      <point x="248" y="406" type="line" smooth="yes"/>
      <point x="251" y="406"/>
      <point x="252" y="405"/>
      <point x="252" y="403" type="curve" smooth="yes"/>
      <point x="252" y="384" type="line" smooth="yes"/>
      <point x="252" y="383"/>
      <point x="251" y="380"/>
      <point x="248" y="380" type="curve" smooth="yes"/>
      <point x="45" y="380" type="line" smooth="yes"/>
      <point x="42" y="380"/>
      <point x="41" y="382"/>
      <point x="41" y="384" type="curve" smooth="yes"/>
      <point x="41" y="403" type="line" smooth="yes"/>
      <point x="41" y="405"/>
      <point x="42" y="406"/>
      <point x="45" y="406" type="curve" smooth="yes"/>
      <point x="134" y="406" type="line" smooth="yes"/>
      <point x="136" y="406"/>
      <point x="137" y="407"/>
      <point x="137" y="409" type="curve" smooth="yes"/>
      <point x="137" y="806" type="line" smooth="yes"/>
      <point x="137" y="810"/>
      <point x="137" y="811"/>
      <point x="134" y="810" type="curve" smooth="yes"/>
      <point x="46" y="775" type="line" smooth="yes"/>
      <point x="42" y="774"/>
      <point x="41" y="776"/>
      <point x="41" y="779" type="curve" smooth="yes"/>
      <point x="41" y="795" type="line" smooth="yes"/>
      <point x="41" y="798"/>
      <point x="41" y="798"/>
      <point x="44" y="800" type="curve" smooth="yes"/>
      <point x="131" y="843" type="line" smooth="yes"/>
      <point x="136" y="846"/>
      <point x="139" y="847"/>
      <point x="144" y="847" type="curve" smooth="yes"/>
      <point x="161" y="847" type="line" smooth="yes"/>
      <point x="165" y="847"/>
      <point x="166" y="845"/>
      <point x="166" y="841" type="curve" smooth="yes"/>
      <point x="166" y="410" type="line" smooth="yes"/>
      <point x="166" y="408"/>
      <point x="168" y="406"/>
      <point x="170" y="406" type="curve" smooth="yes"/>
    </contour>
  </outline>
</glyph>
<glyph name="ordmasculine" format="1">
  <advance width="419"/>
  <unicode hex="00BA"/>
  <outline>
    <contour>
      <point x="209" y="751" type="curve" smooth="yes"/>
      <point x="305" y="751"/>
      <point x="363" y="681"/>
      <point x="363" y="577" type="curve" smooth="yes"/>
      <point x="363" y="478"/>
      <point x="309" y="407"/>
      <point x="209" y="407" type="curve" smooth="yes"/>
      <point x="110" y="407"/>
      <point x="56" y="478"/>
      <point x="56" y="577" type="curve" smooth="yes"/>
      <point x="56" y="681"/>
      <point x="115" y="751"/>
    </contour>
    <contour>
      <point x="209" y="716" type="curve" smooth="yes"/>
      <point x="135" y="716"/>
      <point x="97" y="660"/>
      <point x="97" y="580" type="curve" smooth="yes"/>
      <point x="97" y="495"/>
      <point x="135" y="440"/>
      <point x="209" y="440" type="curve" smooth="yes"/>
      <point x="283" y="440"/>
      <point x="322" y="495"/>
      <point x="322" y="580" type="curve" smooth="yes"/>
      <point x="322" y="660"/>
      <point x="283" y="716"/>
    </contour>
  </outline>
</glyph>
<glyph name="guillemotright" format="1">
  <advance width="420"/>
  <unicode hex="00BB"/>
  <outline>
    <contour>
      <point x="164" y="251" type="line" smooth="yes"/>
      <point x="167" y="255"/>
      <point x="167" y="259"/>
      <point x="164" y="263" type="curve" smooth="yes"/>
      <point x="50" y="437" type="line" smooth="yes"/>
      <point x="47" y="442"/>
      <point x="51" y="445"/>
      <point x="55" y="445" type="curve" smooth="yes"/>
      <point x="69" y="445" type="line" smooth="yes"/>
      <point x="72" y="445"/>
      <point x="73" y="445"/>
      <point x="76" y="441" type="curve" smooth="yes"/>
      <point x="216" y="263" type="line" smooth="yes"/>
      <point x="219" y="259"/>
      <point x="219" y="255"/>
      <point x="215" y="250" type="curve" smooth="yes"/>
      <point x="77" y="82" type="line" smooth="yes"/>
      <point x="76" y="80"/>
      <point x="73" y="78"/>
      <point x="69" y="78" type="curve" smooth="yes"/>
      <point x="57" y="78" type="line" smooth="yes"/>
      <point x="51" y="78"/>
      <point x="48" y="79"/>
      <point x="50" y="83" type="curve" smooth="yes"/>
    </contour>
    <contour>
      <point x="331" y="251" type="line" smooth="yes"/>
      <point x="334" y="255"/>
      <point x="334" y="259"/>
      <point x="331" y="263" type="curve" smooth="yes"/>
      <point x="217" y="437" type="line" smooth="yes"/>
      <point x="214" y="442"/>
      <point x="218" y="445"/>
      <point x="222" y="445" type="curve" smooth="yes"/>
      <point x="236" y="445" type="line" smooth="yes"/>
      <point x="239" y="445"/>
      <point x="240" y="445"/>
      <point x="243" y="441" type="curve" smooth="yes"/>
      <point x="383" y="263" type="line" smooth="yes"/>
      <point x="387" y="259"/>
      <point x="387" y="255"/>
      <point x="382" y="250" type="curve" smooth="yes"/>
      <point x="244" y="82" type="line" smooth="yes"/>
      <point x="243" y="80"/>
      <point x="240" y="78"/>
      <point x="236" y="78" type="curve" smooth="yes"/>
      <point x="224" y="78" type="line" smooth="yes"/>
      <point x="218" y="78"/>
      <point x="215" y="79"/>
      <point x="217" y="83" type="curve" smooth="yes"/>
    </contour>
  </outline>
</glyph>
<glyph name="onequarter" format="1">
  <advance width="860"/>
  <unicode hex="00BC"/>
  <outline>
    <contour>
      <point x="705" y="742" type="curve" smooth="yes"/>
      <point x="216" y="4" type="line" smooth="yes"/>
      <point x="212" y="-2"/>
      <point x="209" y="-4"/>
      <point x="201" y="-4" type="curve" smooth="yes"/>
      <point x="185" y="-4" type="line" smooth="yes"/>
      <point x="176" y="-4"/>
      <point x="175" y="2"/>
      <point x="180" y="9" type="curve" smooth="yes"/>
      <point x="669" y="745" type="line" smooth="yes"/>
      <point x="672" y="750"/>
      <point x="676" y="750"/>
      <point x="681" y="750" type="curve" smooth="yes"/>
      <point x="701" y="750" type="line" smooth="yes"/>
      <point x="706" y="750"/>
      <point x="709" y="748"/>
    </contour>
    <contour>
      <point x="254" y="302" type="line" smooth="yes"/>
      <point x="257" y="302"/>
      <point x="258" y="301"/>
      <point x="258" y="299" type="curve" smooth="yes"/>
      <point x="258" y="280" type="line" smooth="yes"/>
      <point x="258" y="279"/>
      <point x="257" y="276"/>
      <point x="254" y="276" type="curve" smooth="yes"/>
      <point x="51" y="276" type="line" smooth="yes"/>
      <point x="48" y="276"/>
      <point x="47" y="278"/>
      <point x="47" y="280" type="curve" smooth="yes"/>
      <point x="47" y="299" type="line" smooth="yes"/>
      <point x="47" y="301"/>
      <point x="48" y="302"/>
      <point x="51" y="302" type="curve" smooth="yes"/>
      <point x="140" y="302" type="line" smooth="yes"/>
      <point x="142" y="302"/>
      <point x="143" y="303"/>
      <point x="143" y="305" type="curve" smooth="yes"/>
      <point x="143" y="702" type="line" smooth="yes"/>
      <point x="143" y="706"/>
      <point x="143" y="707"/>
      <point x="140" y="706" type="curve" smooth="yes"/>
      <point x="52" y="671" type="line" smooth="yes"/>
      <point x="48" y="670"/>
      <point x="47" y="672"/>
      <point x="47" y="675" type="curve" smooth="yes"/>
      <point x="47" y="691" type="line" smooth="yes"/>
      <point x="47" y="694"/>
      <point x="47" y="694"/>
      <point x="50" y="696" type="curve" smooth="yes"/>
      <point x="137" y="739" type="line" smooth="yes"/>
      <point x="142" y="742"/>
      <point x="145" y="743"/>
      <point x="150" y="743" type="curve" smooth="yes"/>
      <point x="167" y="743" type="line" smooth="yes"/>
      <point x="171" y="743"/>
      <point x="172" y="741"/>
      <point x="172" y="737" type="curve" smooth="yes"/>
      <point x="172" y="306" type="line" smooth="yes"/>
      <point x="172" y="304"/>
      <point x="174" y="302"/>
      <point x="176" y="302" type="curve" smooth="yes"/>
    </contour>
    <contour>
      <point x="700" y="464" type="line" smooth="yes"/>
      <point x="701" y="465"/>
      <point x="705" y="467"/>
      <point x="709" y="467" type="curve" smooth="yes"/>
      <point x="729" y="467" type="line" smooth="yes"/>
      <point x="732" y="467"/>
      <point x="734" y="465"/>
      <point x="734" y="461" type="curve" smooth="yes"/>
      <point x="734" y="166" type="line" smooth="yes"/>
      <point x="734" y="163"/>
      <point x="735" y="161"/>
      <point x="739" y="161" type="curve" smooth="yes"/>
      <point x="803" y="161" type="line" smooth="yes"/>
      <point x="807" y="161"/>
      <point x="809" y="160"/>
      <point x="809" y="157" type="curve" smooth="yes"/>
      <point x="809" y="141" type="line" smooth="yes"/>
      <point x="809" y="137"/>
      <point x="807" y="135"/>
      <point x="803" y="135" type="curve" smooth="yes"/>
      <point x="739" y="135" type="line" smooth="yes"/>
      <point x="736" y="135"/>
      <point x="734" y="133"/>
      <point x="734" y="129" type="curve" smooth="yes"/>
      <point x="734" y="6" type="line" smooth="yes"/>
      <point x="734" y="2"/>
      <point x="732" y="0"/>
      <point x="728" y="0" type="curve" smooth="yes"/>
      <point x="710" y="0" type="line" smooth="yes"/>
      <point x="707" y="0"/>
      <point x="705" y="3"/>
      <point x="705" y="6" type="curve" smooth="yes"/>
      <point x="705" y="131" type="line" smooth="yes"/>
      <point x="705" y="133"/>
      <point x="704" y="135"/>
      <point x="700" y="135" type="curve" smooth="yes"/>
      <point x="488" y="135" type="line" smooth="yes"/>
      <point x="483" y="135"/>
      <point x="481" y="136"/>
      <point x="481" y="141" type="curve" smooth="yes"/>
      <point x="481" y="160" type="line" smooth="yes"/>
      <point x="481" y="164"/>
      <point x="482" y="168"/>
      <point x="486" y="174" type="curve" smooth="yes"/>
    </contour>
    <contour>
      <point x="519" y="161" type="curve" smooth="yes"/>
      <point x="697" y="161" type="line" smooth="yes"/>
      <point x="700" y="161"/>
      <point x="703" y="163"/>
      <point x="703" y="165" type="curve" smooth="yes"/>
      <point x="703" y="409" type="line" smooth="yes"/>
      <point x="703" y="418"/>
      <point x="700" y="419"/>
      <point x="694" y="411" type="curve" smooth="yes"/>
      <point x="515" y="169" type="line" smooth="yes"/>
      <point x="511" y="164"/>
      <point x="513" y="161"/>
    </contour>
  </outline>
</glyph>
<glyph name="onehalf" format="1">
  <advance width="923"/>
  <unicode hex="00BD"/>
  <outline>
    <contour>
      <point x="695" y="742" type="curve" smooth="yes"/>
      <point x="206" y="4" type="line" smooth="yes"/>
      <point x="202" y="-2"/>
      <point x="199" y="-4"/>
      <point x="191" y="-4" type="curve" smooth="yes"/>
      <point x="175" y="-4" type="line" smooth="yes"/>
      <point x="166" y="-4"/>
      <point x="165" y="2"/>
      <point x="170" y="9" type="curve" smooth="yes"/>
      <point x="659" y="745" type="line" smooth="yes"/>
      <point x="662" y="750"/>
      <point x="666" y="750"/>
      <point x="671" y="750" type="curve" smooth="yes"/>
      <point x="691" y="750" type="line" smooth="yes"/>
      <point x="696" y="750"/>
      <point x="699" y="748"/>
    </contour>
    <contour>
      <point x="244" y="302" type="line" smooth="yes"/>
      <point x="247" y="302"/>
      <point x="248" y="301"/>
      <point x="248" y="299" type="curve" smooth="yes"/>
      <point x="248" y="280" type="line" smooth="yes"/>
      <point x="248" y="279"/>
      <point x="247" y="276"/>
      <point x="244" y="276" type="curve" smooth="yes"/>
      <point x="41" y="276" type="line" smooth="yes"/>
      <point x="38" y="276"/>
      <point x="37" y="278"/>
      <point x="37" y="280" type="curve" smooth="yes"/>
      <point x="37" y="299" type="line" smooth="yes"/>
      <point x="37" y="301"/>
      <point x="38" y="302"/>
      <point x="41" y="302" type="curve" smooth="yes"/>
      <point x="130" y="302" type="line" smooth="yes"/>
      <point x="132" y="302"/>
      <point x="133" y="303"/>
      <point x="133" y="305" type="curve" smooth="yes"/>
      <point x="133" y="702" type="line" smooth="yes"/>
      <point x="133" y="706"/>
      <point x="133" y="707"/>
      <point x="130" y="706" type="curve" smooth="yes"/>
      <point x="42" y="671" type="line" smooth="yes"/>
      <point x="38" y="670"/>
      <point x="37" y="672"/>
      <point x="37" y="675" type="curve" smooth="yes"/>
      <point x="37" y="691" type="line" smooth="yes"/>
      <point x="37" y="694"/>
      <point x="37" y="694"/>
      <point x="40" y="696" type="curve" smooth="yes"/>
      <point x="127" y="739" type="line" smooth="yes"/>
      <point x="132" y="742"/>
      <point x="135" y="743"/>
      <point x="140" y="743" type="curve" smooth="yes"/>
      <point x="157" y="743" type="line" smooth="yes"/>
      <point x="161" y="743"/>
      <point x="162" y="741"/>
      <point x="162" y="737" type="curve" smooth="yes"/>
      <point x="162" y="306" type="line" smooth="yes"/>
      <point x="162" y="304"/>
      <point x="164" y="302"/>
      <point x="166" y="302" type="curve" smooth="yes"/>
    </contour>
    <contour>
      <point x="578" y="41" type="curve" smooth="yes"/>
      <point x="723" y="191" type="line" smooth="yes"/>
      <point x="787" y="256"/>
      <point x="817" y="300"/>
      <point x="817" y="352" type="curve" smooth="yes"/>
      <point x="817" y="416"/>
      <point x="760" y="447"/>
      <point x="709" y="447" type="curve" smooth="yes"/>
      <point x="671" y="447"/>
      <point x="621" y="430"/>
      <point x="592" y="387" type="curve" smooth="yes"/>
      <point x="590" y="384"/>
      <point x="586" y="382"/>
      <point x="582" y="386" type="curve" smooth="yes"/>
      <point x="573" y="394" type="line" smooth="yes"/>
      <point x="568" y="399"/>
      <point x="568" y="400"/>
      <point x="571" y="404" type="curve" smooth="yes"/>
      <point x="606" y="452"/>
      <point x="664" y="473"/>
      <point x="714" y="473" type="curve" smooth="yes"/>
      <point x="779" y="473"/>
      <point x="846" y="437"/>
      <point x="846" y="348" type="curve" smooth="yes"/>
      <point x="846" y="291"/>
      <point x="815" y="250"/>
      <point x="737" y="170" type="curve" smooth="yes"/>
      <point x="604" y="34" type="line" smooth="yes"/>
      <point x="600" y="30"/>
      <point x="602" y="26"/>
      <point x="608" y="26" type="curve" smooth="yes"/>
      <point x="845" y="26" type="line" smooth="yes"/>
      <point x="849" y="26"/>
      <point x="851" y="25"/>
      <point x="851" y="21" type="curve" smooth="yes"/>
      <point x="851" y="5" type="line" smooth="yes"/>
      <point x="851" y="2"/>
      <point x="849" y="0"/>
      <point x="846" y="0" type="curve" smooth="yes"/>
      <point x="576" y="0" type="line" smooth="yes"/>
      <point x="571" y="0"/>
      <point x="569" y="2"/>
      <point x="569" y="8" type="curve" smooth="yes"/>
      <point x="569" y="20" type="line" smooth="yes"/>
      <point x="569" y="30"/>
      <point x="571" y="34"/>
    </contour>
  </outline>
</glyph>
<glyph name="threequarters" format="1">
  <advance width="882"/>
  <unicode hex="00BE"/>
  <outline>
    <contour>
      <point x="67" y="685" type="line" smooth="yes"/>
      <point x="64" y="687"/>
      <point x="65" y="690"/>
      <point x="67" y="692" type="curve" smooth="yes"/>
      <point x="109" y="735"/>
      <point x="150" y="752"/>
      <point x="201" y="752" type="curve" smooth="yes"/>
      <point x="290" y="752"/>
      <point x="347" y="701"/>
      <point x="347" y="636" type="curve" smooth="yes"/>
      <point x="347" y="587"/>
      <point x="315" y="549"/>
      <point x="264" y="531" type="curve" smooth="yes"/>
      <point x="254" y="527"/>
      <point x="254" y="526"/>
      <point x="264" y="524" type="curve" smooth="yes"/>
      <point x="315" y="510"/>
      <point x="361" y="468"/>
      <point x="361" y="404" type="curve" smooth="yes"/>
      <point x="361" y="333"/>
      <point x="305" y="273"/>
      <point x="193" y="273" type="curve" smooth="yes"/>
      <point x="134" y="273"/>
      <point x="91" y="289"/>
      <point x="47" y="332" type="curve" smooth="yes"/>
      <point x="44" y="335"/>
      <point x="44" y="335"/>
      <point x="47" y="339" type="curve" smooth="yes"/>
      <point x="61" y="351" type="line" smooth="yes"/>
      <point x="64" y="355"/>
      <point x="66" y="353"/>
      <point x="67" y="351" type="curve" smooth="yes"/>
      <point x="105" y="312"/>
      <point x="146" y="299"/>
      <point x="196" y="299" type="curve" smooth="yes"/>
      <point x="283" y="299"/>
      <point x="332" y="342"/>
      <point x="332" y="402" type="curve" smooth="yes"/>
      <point x="332" y="475"/>
      <point x="262" y="512"/>
      <point x="194" y="512" type="curve" smooth="yes"/>
      <point x="137" y="512" type="line" smooth="yes"/>
      <point x="134" y="512"/>
      <point x="132" y="513"/>
      <point x="132" y="516" type="curve" smooth="yes"/>
      <point x="132" y="532" type="line" smooth="yes"/>
      <point x="132" y="535"/>
      <point x="134" y="537"/>
      <point x="137" y="537" type="curve" smooth="yes"/>
      <point x="183" y="537" type="line" smooth="yes"/>
      <point x="258" y="537"/>
      <point x="318" y="579"/>
      <point x="318" y="636" type="curve" smooth="yes"/>
      <point x="318" y="687"/>
      <point x="271" y="726"/>
      <point x="203" y="726" type="curve" smooth="yes"/>
      <point x="157" y="726"/>
      <point x="116" y="707"/>
      <point x="84" y="676" type="curve" smooth="yes"/>
      <point x="81" y="672"/>
      <point x="78" y="672"/>
      <point x="74" y="676" type="curve" smooth="yes"/>
    </contour>
    <contour>
      <point x="765" y="742" type="curve" smooth="yes"/>
      <point x="276" y="4" type="line" smooth="yes"/>
      <point x="272" y="-2"/>
      <point x="269" y="-4"/>
      <point x="261" y="-4" type="curve" smooth="yes"/>
      <point x="245" y="-4" type="line" smooth="yes"/>
      <point x="236" y="-4"/>
      <point x="235" y="2"/>
      <point x="240" y="9" type="curve" smooth="yes"/>
      <point x="729" y="745" type="line" smooth="yes"/>
      <point x="732" y="750"/>
      <point x="736" y="750"/>
      <point x="741" y="750" type="curve" smooth="yes"/>
      <point x="761" y="750" type="line" smooth="yes"/>
      <point x="766" y="750"/>
      <point x="769" y="748"/>
    </contour>
    <contour>
      <point x="742" y="464" type="line" smooth="yes"/>
      <point x="743" y="465"/>
      <point x="747" y="467"/>
      <point x="751" y="467" type="curve" smooth="yes"/>
      <point x="771" y="467" type="line" smooth="yes"/>
      <point x="774" y="467"/>
      <point x="776" y="465"/>
      <point x="776" y="461" type="curve" smooth="yes"/>
      <point x="776" y="166" type="line" smooth="yes"/>
      <point x="776" y="163"/>
      <point x="777" y="161"/>
      <point x="781" y="161" type="curve" smooth="yes"/>
      <point x="845" y="161" type="line" smooth="yes"/>
      <point x="849" y="161"/>
      <point x="851" y="160"/>
      <point x="851" y="157" type="curve" smooth="yes"/>
      <point x="851" y="141" type="line" smooth="yes"/>
      <point x="851" y="137"/>
      <point x="849" y="135"/>
      <point x="845" y="135" type="curve" smooth="yes"/>
      <point x="781" y="135" type="line" smooth="yes"/>
      <point x="778" y="135"/>
      <point x="776" y="133"/>
      <point x="776" y="129" type="curve" smooth="yes"/>
      <point x="776" y="6" type="line" smooth="yes"/>
      <point x="776" y="2"/>
      <point x="774" y="0"/>
      <point x="770" y="0" type="curve" smooth="yes"/>
      <point x="752" y="0" type="line" smooth="yes"/>
      <point x="749" y="0"/>
      <point x="747" y="3"/>
      <point x="747" y="6" type="curve" smooth="yes"/>
      <point x="747" y="131" type="line" smooth="yes"/>
      <point x="747" y="133"/>
      <point x="746" y="135"/>
      <point x="742" y="135" type="curve" smooth="yes"/>
      <point x="530" y="135" type="line" smooth="yes"/>
      <point x="525" y="135"/>
      <point x="523" y="136"/>
      <point x="523" y="141" type="curve" smooth="yes"/>
      <point x="523" y="160" type="line" smooth="yes"/>
      <point x="523" y="164"/>
      <point x="524" y="168"/>
      <point x="528" y="174" type="curve" smooth="yes"/>
    </contour>
    <contour>
      <point x="561" y="161" type="curve" smooth="yes"/>
      <point x="739" y="161" type="line" smooth="yes"/>
      <point x="742" y="161"/>
      <point x="745" y="163"/>
      <point x="745" y="165" type="curve" smooth="yes"/>
      <point x="745" y="409" type="line" smooth="yes"/>
      <point x="745" y="418"/>
      <point x="742" y="419"/>
      <point x="736" y="411" type="curve" smooth="yes"/>
      <point x="557" y="169" type="line" smooth="yes"/>
      <point x="553" y="164"/>
      <point x="555" y="161"/>
    </contour>
  </outline>
</glyph>
